<svg width="737" height="1079" viewBox="0 0 737 1079" fill="none" xmlns="http://www.w3.org/2000/svg">
<path d="M-4.50153e-05 49.1689L-2.12043e-06 1030.49C-9.49346e-07 1057.28 21.719 1079 48.5109 1079L688.28 1079C715.072 1079 736.791 1057.28 736.791 1030.49L736.791 49.1689C736.791 22.3778 715.072 0.659393 688.28 0.659394L48.5108 0.659422C21.719 0.659423 -4.61864e-05 22.3778 -4.50153e-05 49.1689Z" fill="url(#paint0_linear_96_14281)"/>
<path d="M58.6367 250.833L58.6367 77.5488C58.6367 65.1714 68.639 55.1694 81.0168 55.1694L161.41 55.1694C173.788 55.1694 183.79 65.1714 183.79 77.5488L183.79 250.833C183.79 263.211 173.788 273.213 161.41 273.213L81.0168 273.213C68.639 273.213 58.6367 263.211 58.6367 250.833Z" fill="white"/>
<path d="M128.403 219.578L131.153 210.951C135.905 212.327 139.53 214.452 141.781 217.578C144.156 220.578 145.282 224.454 145.282 229.205C145.282 234.956 143.281 239.832 139.28 243.583C135.279 247.334 129.903 249.209 123.027 249.209C115.775 249.209 110.024 247.334 106.023 243.583C102.022 239.832 100.021 234.831 100.021 228.705C100.021 223.329 101.647 218.953 104.773 215.702C106.648 213.702 109.274 212.202 112.774 211.201L114.9 219.953C112.649 220.453 110.774 221.578 109.524 223.204C108.148 224.829 107.523 226.83 107.523 229.205C107.523 232.456 108.648 235.081 111.024 237.082C113.399 239.082 117.15 240.082 122.402 240.082C127.903 240.082 131.904 239.082 134.279 237.082C136.655 235.081 137.78 232.456 137.78 229.33C137.78 226.955 137.03 224.954 135.529 223.204C134.029 221.578 131.654 220.328 128.528 219.578L128.403 219.578Z" fill="#393D6A"/>
<path d="M144.531 165.318L144.531 174.944L134.529 178.82L134.529 196.324L144.531 199.949L144.531 209.326L100.771 192.323L100.771 182.946L144.531 165.442L144.531 165.318ZM127.277 181.571L111.024 187.572L127.277 193.448L127.277 181.446L127.277 181.571Z" fill="#393D6A"/>
<path d="M144.531 160.441L100.771 160.441L100.771 141.813C100.771 137.062 101.147 133.686 101.897 131.56C102.647 129.435 104.147 127.81 106.148 126.435C108.148 125.184 110.399 124.559 113.024 124.559C116.275 124.559 119.026 125.559 121.151 127.435C123.277 129.31 124.652 132.186 125.152 136.061C126.277 134.186 127.527 132.561 128.778 131.311C130.153 130.06 132.529 128.435 135.904 126.309L144.406 120.933L144.406 131.56L134.904 137.937C131.528 140.187 129.278 141.813 128.403 142.563C127.527 143.313 126.902 144.313 126.652 145.188C126.277 146.189 126.152 147.564 126.152 149.689L126.152 151.44L144.406 151.44L144.406 160.316L144.531 160.441ZM119.276 151.565L119.276 145.063C119.276 140.812 119.151 138.187 118.776 137.062C118.4 136.061 117.775 135.186 116.9 134.561C116.025 133.936 114.9 133.686 113.649 133.686C112.149 133.686 111.024 134.061 110.024 134.811C109.148 135.561 108.523 136.687 108.273 138.187C108.273 138.937 108.148 141.062 108.148 144.688L108.148 151.565L119.276 151.565Z" fill="#393D6A"/>
<path d="M100.771 116.181L100.771 100.053C100.771 96.4276 101.022 93.6771 101.647 91.6767C102.397 89.0512 103.772 86.9258 105.648 85.0504C107.523 83.3 109.899 81.7997 112.774 80.9245C115.525 79.9243 119.026 79.4241 123.152 79.4241C126.777 79.4241 129.903 79.9242 132.529 80.7994C135.654 81.9246 138.28 83.425 140.28 85.5504C141.781 87.0507 142.906 89.1761 143.781 91.8017C144.406 93.8021 144.656 96.4276 144.656 99.6783L144.656 116.307L100.897 116.307L100.771 116.181ZM108.148 107.305L137.155 107.305L137.155 100.679C137.155 98.178 137.03 96.4276 136.78 95.3023C136.404 93.9271 135.779 92.6769 134.904 91.6767C134.029 90.6765 132.654 89.9263 130.653 89.3012C128.653 88.6761 126.027 88.4259 122.651 88.4259C119.276 88.4259 116.65 88.6761 114.9 89.3012C113.149 89.9263 111.649 90.8015 110.649 91.8017C109.648 92.9269 108.898 94.3022 108.648 95.9275C108.398 97.1778 108.273 99.5533 108.273 103.179L108.273 107.18L108.148 107.305Z" fill="#393D6A"/>
<path d="M547.623 467.753C547.623 463.752 548.998 460.627 551.874 458.376C555.25 455.751 560.876 454.375 568.753 454.375C576.63 454.375 582.256 455.751 585.632 458.501C588.507 460.752 589.883 463.877 589.883 467.878C589.883 471.879 588.382 475.13 585.257 477.63C582.131 480.131 576.63 481.381 568.753 481.381C560.876 481.381 555.375 480.005 551.999 477.38C549.123 475.13 547.748 472.004 547.748 468.003L547.623 467.753ZM554.25 467.753C554.25 468.753 554.625 469.628 555.125 470.379C555.75 471.129 556.875 471.754 558.375 472.129C560.376 472.629 563.877 473.004 568.753 473.004C573.629 473.004 576.88 472.754 578.755 472.254C580.631 471.754 581.756 471.129 582.381 470.379C583.006 469.628 583.256 468.753 583.256 467.878C583.256 467.003 582.881 466.128 582.381 465.253C581.756 464.502 580.631 463.877 579.13 463.502C577.13 463.002 573.629 462.752 568.753 462.752C563.877 462.752 560.626 463.002 558.751 463.502C557 464.002 555.75 464.628 555.125 465.378C554.5 466.128 554.25 467.003 554.25 468.003L554.25 467.753Z" fill="white"/>
<path d="M578.505 449.25L577.63 441.373C579.38 441.123 580.88 440.498 581.881 439.373C582.881 438.248 583.506 436.998 583.506 435.497C583.506 433.872 582.881 432.497 581.506 431.246C580.13 430.121 578.13 429.496 575.379 429.496C572.879 429.496 570.878 430.121 569.628 431.246C568.378 432.371 567.752 433.872 567.752 435.622C567.752 437.873 568.753 439.998 570.753 441.749L569.878 448.125L548.373 443.999L548.373 423.12L555.75 423.12L555.75 438.123L562.751 439.373C561.876 437.623 561.376 435.747 561.376 433.997C561.376 430.496 562.626 427.496 565.252 425.12C567.878 422.62 571.128 421.494 575.254 421.494C578.63 421.494 581.756 422.495 584.381 424.495C588.007 427.121 589.882 430.871 589.882 435.747C589.882 439.498 588.882 442.624 586.757 445.124C584.756 447.5 582.006 449 578.505 449.5L578.505 449.25Z" fill="white"/>
<path d="M589.883 403.615L547.123 393.363L547.123 387.362L589.883 397.739L589.883 403.615Z" fill="white"/>
<path d="M581.756 342.229L589.132 342.229L589.132 369.984C586.382 369.609 583.756 368.734 581.256 367.234C578.755 365.734 575.504 362.733 571.378 358.357C568.003 354.731 565.752 352.606 564.627 351.731C563.001 350.605 561.376 350.105 559.751 350.105C558 350.105 556.625 350.606 555.625 351.481C554.624 352.481 554.249 353.731 554.249 355.356C554.249 356.982 554.75 358.357 555.75 359.232C556.75 360.232 558.375 360.733 560.751 360.983L560.001 368.859C555.625 368.359 552.499 366.859 550.624 364.483C548.748 361.983 547.748 358.857 547.748 355.232C547.748 351.106 548.873 347.98 550.999 345.605C553.249 343.229 556 342.104 559.251 342.104C561.126 342.104 562.876 342.479 564.502 343.104C566.127 343.729 568.003 344.854 569.753 346.23C571.003 347.23 572.754 348.855 575.004 351.481C577.255 353.981 578.88 355.606 579.63 356.232C580.38 356.857 581.131 357.482 581.881 357.857L581.881 342.104L581.756 342.229Z" fill="white"/>
<path d="M547.623 323.474C547.623 319.473 548.998 316.347 551.874 314.097C555.25 311.471 560.876 310.096 568.753 310.096C576.63 310.096 582.256 311.471 585.632 314.222C588.507 316.472 589.883 319.598 589.883 323.599C589.883 327.6 588.382 330.85 585.257 333.351C582.131 335.851 576.63 337.102 568.753 337.102C560.876 337.102 555.375 335.726 551.999 332.976C549.123 330.725 547.748 327.6 547.748 323.599L547.623 323.474ZM554.25 323.474C554.25 324.474 554.625 325.224 555.125 326.099C555.75 326.85 556.875 327.475 558.375 327.85C560.376 328.35 563.877 328.6 568.753 328.6C573.629 328.6 576.88 328.35 578.755 327.85C580.631 327.35 581.756 326.724 582.381 325.974C583.006 325.224 583.256 324.349 583.256 323.474C583.256 322.599 582.881 321.599 582.381 320.973C581.756 320.223 580.631 319.598 579.13 319.223C577.13 318.723 573.629 318.473 568.753 318.473C563.877 318.473 560.626 318.723 558.751 319.223C557 319.723 555.75 320.348 555.125 321.098C554.5 321.849 554.25 322.724 554.25 323.599L554.25 323.474Z" fill="white"/>
<path d="M547.748 988.605L547.748 973.352C547.748 969.977 547.998 967.226 548.498 965.476C549.249 963.1 550.499 960.975 552.249 959.225C554.125 957.474 556.375 956.224 559.001 955.224C561.626 954.349 564.877 953.848 568.753 953.848C572.129 953.848 575.129 954.224 577.63 955.099C580.631 956.099 583.006 957.599 584.881 959.475C586.257 960.975 587.382 962.85 588.132 965.351C588.757 967.226 589.007 969.602 589.007 972.727L589.007 988.48L547.623 988.48L547.748 988.605ZM554.75 980.229L582.131 980.229L582.131 973.977C582.131 971.602 582.131 969.977 581.756 968.977C581.381 967.601 580.88 966.476 580.005 965.601C579.13 964.726 577.88 963.976 576.004 963.475C574.129 962.975 571.628 962.6 568.378 962.6C565.127 962.6 562.752 962.85 561.001 963.475C559.251 963.976 558 964.851 557 965.851C556 966.851 555.375 968.101 555 969.727C554.75 970.852 554.625 973.227 554.625 976.603L554.625 980.354L554.75 980.229Z" fill="white"/>
<path d="M568.378 941.096L567.127 948.348C564.252 947.472 562.126 946.097 560.751 944.222C559.376 942.221 558.625 939.346 558.625 935.47C558.625 931.969 559 929.344 559.876 927.593C560.751 925.843 561.751 924.593 563.001 923.968C564.252 923.217 566.627 922.967 570.128 922.967L579.38 922.967C582.006 922.967 584.006 922.968 585.257 922.717C586.507 922.467 587.882 921.967 589.257 921.342L589.257 929.219C589.257 929.219 588.007 929.719 586.882 929.969C586.382 929.969 586.132 930.219 585.882 930.219C587.257 931.594 588.132 932.969 588.882 934.595C589.507 936.095 589.883 937.72 589.883 939.471C589.883 942.596 589.007 944.972 587.382 946.722C585.757 948.472 583.631 949.348 581.005 949.348C579.38 949.348 577.755 948.973 576.504 948.097C575.129 947.347 574.129 946.222 573.504 944.722C572.754 943.221 572.128 941.096 571.628 938.471C570.878 934.72 570.253 932.219 569.628 930.719L568.878 930.719C567.377 930.719 566.252 931.094 565.627 931.844C565.002 932.594 564.627 933.97 564.627 936.095C564.627 937.47 564.877 938.596 565.502 939.471C566.002 940.221 567.002 940.846 568.378 941.346L568.378 941.096ZM574.754 930.594C575.129 931.594 575.504 933.219 576.004 935.345C576.505 937.595 576.88 938.971 577.38 939.596C578.13 940.596 579.005 941.096 580.13 941.096C581.256 941.096 582.256 940.721 583.006 939.846C583.756 938.971 584.256 937.97 584.256 936.72C584.256 935.345 583.756 933.97 582.881 932.594C582.131 931.594 581.256 931.094 580.255 930.719C579.63 930.469 578.255 930.469 576.379 930.469L574.754 930.469L574.754 930.594Z" fill="white"/>
<path d="M559.251 901.214L565.627 901.214L565.627 906.59L577.63 906.59C580.13 906.59 581.506 906.59 581.881 906.465C582.256 906.465 582.631 906.09 582.881 905.714C583.131 905.339 583.256 904.964 583.256 904.339C583.256 903.589 583.006 902.589 582.506 901.214L588.632 900.463C589.382 902.339 589.758 904.464 589.758 906.714C589.758 908.215 589.507 909.465 589.007 910.59C588.507 911.716 587.882 912.591 587.132 913.091C586.382 913.591 585.381 913.966 584.006 914.216C583.131 914.341 581.256 914.466 578.38 914.466L565.377 914.466L565.377 918.092L559.001 918.092L559.001 914.466L552.999 914.466L548.373 906.59L559.001 906.59L559.001 901.214L559.251 901.214Z" fill="white"/>
<path d="M579.63 877.959L581.005 870.082C583.881 871.082 586.132 872.708 587.632 874.833C589.132 877.084 589.882 879.834 589.882 883.085C589.882 888.336 588.132 892.087 584.756 894.712C582.006 896.713 578.63 897.713 574.379 897.713C569.378 897.713 565.502 896.462 562.751 893.837C560.001 891.211 558.5 887.961 558.5 883.96C558.5 879.459 560.001 875.959 562.876 873.458C565.877 870.832 570.378 869.707 576.379 869.832L576.379 889.711C578.755 889.711 580.505 888.961 581.881 887.836C583.256 886.586 583.881 885.085 583.881 883.21C583.881 881.96 583.506 880.959 582.881 880.084C582.256 879.209 581.13 878.584 579.63 878.084L579.63 877.959ZM571.628 877.584C569.378 877.584 567.627 878.209 566.377 879.334C565.127 880.459 564.627 881.835 564.627 883.46C564.627 885.21 565.252 886.586 566.502 887.711C567.753 888.836 569.503 889.336 571.628 889.336L571.628 877.459L571.628 877.584Z" fill="white"/>
<path d="M144.533 988.48L103.148 988.48L103.148 972.977C103.148 969.852 103.524 967.226 104.399 965.351C105.274 963.475 106.524 961.975 108.275 960.85C110.025 959.725 111.9 959.225 113.776 959.225C115.526 959.225 117.152 959.725 118.777 960.725C120.402 961.725 121.653 963.1 122.528 965.101C123.278 962.6 124.528 960.725 126.279 959.35C128.029 957.974 130.155 957.349 132.53 957.349C134.53 957.349 136.281 957.724 137.906 958.599C139.532 959.475 140.907 960.475 141.782 961.6C142.657 962.85 143.408 964.351 143.783 966.101C144.283 967.976 144.533 970.102 144.533 972.852L144.533 988.605L144.533 988.48ZM120.527 983.104L120.527 974.228C120.527 971.852 120.402 970.102 120.027 968.977C119.652 967.601 118.902 966.476 118.027 965.851C117.026 965.101 115.901 964.726 114.401 964.726C113.026 964.726 111.775 965.101 110.775 965.726C109.775 966.351 109.025 967.351 108.65 968.601C108.275 969.852 108.025 971.977 108.025 974.853L108.025 983.104L120.527 983.104ZM139.657 983.104L139.657 972.852C139.657 971.102 139.657 969.852 139.407 969.102C139.157 967.851 138.781 966.726 138.281 965.976C137.781 965.101 136.906 964.476 136.031 963.85C135.031 963.35 133.905 963.1 132.53 963.1C131.03 963.1 129.654 963.475 128.529 964.226C127.404 964.976 126.654 966.101 126.154 967.476C125.653 968.851 125.403 970.977 125.403 973.602L125.403 983.104L139.657 983.104Z" fill="white"/>
<path d="M140.907 931.218C142.532 933.094 143.658 934.844 144.283 936.595C144.908 938.345 145.283 940.22 145.283 942.221C145.283 945.471 144.533 948.097 142.907 949.847C141.282 951.597 139.282 952.473 136.781 952.473C135.281 952.473 133.905 952.098 132.78 951.473C131.53 950.847 130.53 949.972 129.905 948.847C129.154 947.722 128.654 946.472 128.279 945.221C128.029 944.221 127.779 942.721 127.529 940.72C127.029 936.595 126.404 933.594 125.779 931.718C125.028 931.718 124.653 931.718 124.403 931.718C122.278 931.718 120.902 932.219 120.027 933.219C118.902 934.469 118.277 936.47 118.277 938.97C118.277 941.346 118.652 943.096 119.527 944.221C120.402 945.346 121.903 946.221 123.903 946.722L123.278 951.723C121.153 951.222 119.402 950.597 118.152 949.472C116.902 948.472 115.776 946.972 115.151 944.971C114.401 942.971 114.026 940.72 114.026 938.22C114.026 935.719 114.276 933.594 114.901 931.969C115.526 930.343 116.276 929.218 117.152 928.468C118.027 927.718 119.152 927.218 120.652 926.842C121.528 926.717 123.028 926.593 125.278 926.593L132.03 926.593C136.781 926.593 139.782 926.593 141.032 926.218C142.282 925.967 143.408 925.592 144.658 924.967L144.658 930.218C143.658 930.718 142.407 931.093 140.907 931.218ZM129.529 931.594C130.28 933.469 130.905 936.219 131.405 939.845C131.655 941.971 132.03 943.471 132.405 944.221C132.78 945.096 133.28 945.721 134.03 946.221C134.781 946.722 135.531 946.972 136.406 946.972C137.781 946.972 138.907 946.471 139.782 945.471C140.657 944.471 141.157 942.971 141.157 940.97C141.157 938.97 140.782 937.22 139.907 935.719C139.032 934.219 137.906 933.094 136.406 932.344C135.281 931.844 133.53 931.469 131.28 931.469L129.404 931.469L129.529 931.594Z" fill="white"/>
<path d="M144.533 919.092L114.526 919.092L114.526 914.466L118.777 914.466C115.526 912.216 113.776 909.09 113.776 904.964C113.776 903.214 114.151 901.463 114.776 899.963C115.401 898.463 116.276 897.337 117.277 896.587C118.277 895.837 119.527 895.337 121.028 894.962C121.903 894.837 123.653 894.712 126.029 894.712L144.408 894.712L144.408 899.838L126.154 899.838C124.028 899.838 122.528 900.088 121.528 900.463C120.527 900.838 119.652 901.588 119.027 902.589C118.402 903.589 118.152 904.714 118.152 906.089C118.152 908.215 118.902 910.09 120.152 911.715C121.528 913.216 124.153 914.091 127.904 914.091L144.283 914.091L144.283 919.217L144.533 919.092Z" fill="white"/>
<path d="M144.533 887.461L103.148 887.461L103.148 882.46L126.779 882.46L114.526 870.458L114.526 863.831L125.653 875.333L144.533 862.706L144.533 868.957L129.154 878.834L132.53 882.46L144.408 882.46L144.408 887.461L144.533 887.461Z" fill="white"/>
<path d="M294.066 979.354C294.066 974.728 295.692 971.228 298.942 968.602C302.818 965.477 309.195 963.976 318.197 963.976C327.199 963.976 333.575 965.477 337.451 968.602C340.702 971.103 342.327 974.728 342.327 979.354C342.327 983.98 340.577 987.606 337.076 990.482C333.575 993.232 327.199 994.732 318.197 994.732C309.195 994.732 302.943 993.232 298.942 990.106C295.692 987.481 294.066 983.98 294.066 979.354ZM301.568 979.354C301.568 980.48 301.943 981.48 302.568 982.355C303.319 983.23 304.569 983.855 306.319 984.355C308.695 984.98 312.571 985.356 318.197 985.356C323.823 985.356 327.574 985.105 329.574 984.48C331.575 983.855 333.075 983.23 333.7 982.355C334.45 981.48 334.701 980.48 334.701 979.479C334.701 978.479 334.325 977.354 333.7 976.604C332.95 975.729 331.7 975.103 329.949 974.603C327.574 973.978 323.698 973.728 318.197 973.728C312.696 973.728 308.82 973.978 306.819 974.603C304.694 975.103 303.319 975.854 302.693 976.729C301.943 977.604 301.693 978.604 301.693 979.604L301.568 979.354Z" fill="white"/>
<path d="M294.066 938.846C294.066 934.221 295.692 930.72 298.942 928.094C302.818 924.969 309.195 923.468 318.197 923.468C327.199 923.468 333.575 924.969 337.451 928.094C340.702 930.72 342.327 934.221 342.327 938.846C342.327 943.472 340.577 947.223 337.076 949.974C333.575 952.724 327.199 954.225 318.197 954.225C309.195 954.225 302.943 952.724 298.942 949.599C295.692 946.973 294.066 943.472 294.066 938.846ZM301.568 938.846C301.568 939.972 301.943 940.972 302.568 941.722C303.319 942.597 304.569 943.222 306.319 943.722C308.695 944.348 312.571 944.723 318.197 944.723C323.823 944.723 327.574 944.473 329.574 943.848C331.7 943.347 333.075 942.597 333.7 941.722C334.45 940.847 334.701 939.847 334.701 938.846C334.701 937.846 334.325 936.721 333.7 935.971C332.95 935.096 331.7 934.471 329.949 933.971C327.574 933.345 323.698 932.97 318.197 932.97C312.696 932.97 308.82 933.22 306.819 933.846C304.694 934.471 303.319 935.096 302.693 935.971C301.943 936.846 301.693 937.846 301.693 938.846L301.568 938.846Z" fill="white"/>
<path d="M294.066 898.339C294.066 893.713 295.692 890.212 298.942 887.586C302.818 884.461 309.195 882.961 318.197 882.961C327.199 882.961 333.575 884.461 337.451 887.586C340.702 890.212 342.327 893.713 342.327 898.339C342.327 902.965 340.577 906.59 337.076 909.466C333.575 912.341 327.199 913.717 318.197 913.717C309.195 913.717 302.943 912.216 298.942 909.091C295.692 906.59 294.066 902.965 294.066 898.339ZM301.568 898.339C301.568 899.464 301.943 900.339 302.568 901.214C303.319 902.089 304.569 902.714 306.319 903.215C308.695 903.84 312.571 904.09 318.197 904.09C323.823 904.09 327.574 903.84 329.574 903.215C331.7 902.714 333.075 901.964 333.7 901.089C334.45 900.214 334.701 899.339 334.701 898.214C334.701 897.088 334.325 896.088 333.7 895.213C332.95 894.338 331.7 893.713 329.949 893.213C327.574 892.588 323.698 892.212 318.197 892.212C312.696 892.212 308.82 892.462 306.819 893.088C304.819 893.713 303.319 894.338 302.693 895.213C301.943 896.088 301.693 897.088 301.693 898.089L301.568 898.339Z" fill="white"/>
<path d="M294.066 857.831C294.066 853.205 295.692 849.704 298.942 847.079C302.818 843.953 309.195 842.453 318.197 842.453C327.199 842.453 333.575 843.953 337.451 847.079C340.702 849.579 342.327 853.205 342.327 857.831C342.327 862.457 340.577 866.208 337.076 868.958C333.575 871.834 327.199 873.209 318.197 873.209C309.195 873.209 302.943 871.709 298.942 868.583C295.692 866.083 294.066 862.457 294.066 857.831ZM301.568 857.831C301.568 858.956 301.943 859.956 302.568 860.831C303.319 861.707 304.569 862.332 306.319 862.832C308.695 863.457 312.571 863.832 318.197 863.832C323.823 863.832 327.574 863.582 329.574 862.957C331.7 862.332 333.075 861.707 333.7 860.831C334.45 859.956 334.701 858.956 334.701 857.956C334.701 856.956 334.325 855.831 333.7 855.08C332.95 854.205 331.7 853.58 329.949 853.08C327.574 852.455 323.698 852.205 318.197 852.205C312.696 852.205 308.82 852.455 306.819 853.08C304.694 853.58 303.319 854.33 302.693 855.205C301.943 856.081 301.693 856.956 301.693 858.081L301.568 857.831Z" fill="white"/>
<path d="M294.066 796.192C294.066 791.566 295.692 788.065 298.942 785.44C302.818 782.314 309.195 780.814 318.197 780.814C327.199 780.814 333.575 782.314 337.451 785.44C340.702 788.065 342.327 791.566 342.327 796.192C342.327 800.818 340.577 804.444 337.076 807.319C333.575 810.195 327.199 811.57 318.197 811.57C309.195 811.57 302.943 810.07 298.942 806.944C295.692 804.319 294.066 800.818 294.066 796.192ZM301.568 796.192C301.568 797.317 301.943 798.318 302.568 799.068C303.319 799.943 304.569 800.568 306.319 801.068C308.695 801.693 312.571 802.068 318.197 802.068C323.823 802.068 327.574 801.818 329.574 801.193C331.7 800.693 333.075 799.943 333.7 799.068C334.45 798.193 334.701 797.192 334.701 796.192C334.701 795.192 334.325 794.067 333.7 793.192C332.95 792.316 331.7 791.691 329.949 791.191C327.574 790.566 323.698 790.316 318.197 790.316C312.696 790.316 308.82 790.566 306.819 791.191C304.819 791.816 303.319 792.441 302.693 793.317C301.943 794.192 301.693 795.192 301.693 796.192L301.568 796.192Z" fill="white"/>
<path d="M294.066 755.684C294.066 751.059 295.692 747.558 298.942 744.932C302.818 741.807 309.195 740.306 318.197 740.306C327.199 740.306 333.575 741.807 337.451 744.932C340.702 747.558 342.327 751.059 342.327 755.684C342.327 760.31 340.577 763.936 337.076 766.812C333.575 769.687 327.199 771.062 318.197 771.062C309.195 771.062 302.943 769.562 298.942 766.437C295.692 763.811 294.066 760.31 294.066 755.684ZM301.568 755.684C301.568 756.81 301.943 757.81 302.568 758.56C303.319 759.435 304.569 760.06 306.319 760.56C308.695 761.186 312.571 761.561 318.197 761.561C323.823 761.561 327.574 761.311 329.574 760.685C331.7 760.185 333.075 759.435 333.7 758.56C334.45 757.685 334.701 756.685 334.701 755.684C334.701 754.684 334.325 753.559 333.7 752.684C332.95 751.809 331.7 751.183 329.949 750.683C327.574 750.058 323.698 749.808 318.197 749.808C312.696 749.808 308.82 750.058 306.819 750.683C304.694 751.183 303.319 751.934 302.693 752.809C301.943 753.684 301.693 754.684 301.693 755.684L301.568 755.684Z" fill="white"/>
<path d="M294.066 715.177C294.066 710.551 295.692 707.05 298.942 704.424C302.818 701.299 309.195 699.799 318.197 699.799C327.199 699.799 333.575 701.424 337.451 704.424C340.702 706.925 342.327 710.551 342.327 715.052C342.327 719.553 340.577 723.428 337.076 726.179C333.575 728.929 327.199 730.43 318.197 730.43C309.195 730.43 302.943 728.929 298.942 725.804C295.692 723.303 294.066 719.678 294.066 715.052L294.066 715.177ZM301.568 715.177C301.568 716.302 301.943 717.302 302.568 718.052C303.319 718.927 304.569 719.552 306.319 720.053C308.695 720.678 312.571 720.928 318.197 720.928C323.823 720.928 327.574 720.678 329.574 720.053C331.7 719.427 333.075 718.802 333.7 717.927C334.45 717.052 334.701 716.052 334.701 715.052C334.701 714.051 334.325 712.926 333.7 712.176C332.95 711.301 331.7 710.676 329.949 710.176C327.574 709.551 323.698 709.175 318.197 709.175C312.696 709.175 308.82 709.425 306.819 710.051C304.694 710.551 303.319 711.301 302.693 712.176C301.943 713.051 301.693 714.051 301.693 715.052L301.568 715.177Z" fill="white"/>
<path d="M294.066 674.669C294.066 670.043 295.692 666.542 298.942 663.917C302.818 660.791 309.195 659.291 318.197 659.291C327.199 659.291 333.575 660.791 337.451 663.917C340.702 666.542 342.327 670.043 342.327 674.669C342.327 679.295 340.577 682.92 337.076 685.796C333.575 688.671 327.199 690.047 318.197 690.047C309.195 690.047 302.943 688.546 298.942 685.421C295.692 682.92 294.066 679.295 294.066 674.669ZM301.568 674.669C301.568 675.794 301.943 676.794 302.568 677.544C303.319 678.42 304.569 679.045 306.319 679.545C308.695 680.17 312.571 680.42 318.197 680.42C323.823 680.42 327.574 680.17 329.574 679.545C331.7 679.045 333.075 678.294 333.7 677.419C334.45 676.544 334.701 675.544 334.701 674.544C334.701 673.544 334.325 672.418 333.7 671.543C332.95 670.668 331.7 670.043 329.949 669.543C327.574 668.918 323.698 668.543 318.197 668.543C312.696 668.543 308.82 668.793 306.819 669.418C304.819 670.043 303.319 670.668 302.693 671.543C301.943 672.418 301.693 673.419 301.693 674.419L301.568 674.669Z" fill="white"/>
<path d="M294.066 613.03C294.066 608.404 295.692 604.904 298.942 602.278C302.818 599.152 309.195 597.652 318.197 597.652C327.199 597.652 333.575 599.152 337.451 602.278C340.702 604.904 342.327 608.404 342.327 613.03C342.327 617.656 340.577 621.407 337.076 624.157C333.575 627.033 327.199 628.408 318.197 628.408C309.195 628.408 302.943 626.908 298.942 623.782C295.692 621.282 294.066 617.656 294.066 613.03ZM301.568 613.03C301.568 614.155 301.943 615.155 302.568 616.031C303.319 616.906 304.569 617.531 306.319 618.031C308.695 618.656 312.571 618.906 318.197 618.906C323.823 618.906 327.574 618.656 329.574 618.031C331.7 617.531 333.075 616.781 333.7 615.906C334.45 615.031 334.701 614.03 334.701 613.03C334.701 612.03 334.325 611.03 333.7 610.155C332.95 609.279 331.7 608.654 329.949 608.154C327.574 607.529 323.698 607.154 318.197 607.154C312.696 607.154 308.82 607.404 306.819 608.029C304.694 608.529 303.319 609.279 302.693 610.155C301.943 611.03 301.693 612.03 301.693 613.03L301.568 613.03Z" fill="white"/>
<path d="M294.066 572.522C294.066 567.896 295.692 564.396 298.942 561.77C302.818 558.645 309.195 557.144 318.197 557.144C327.199 557.144 333.575 558.645 337.451 561.77C340.702 564.396 342.327 567.896 342.327 572.522C342.327 577.148 340.577 580.774 337.076 583.65C333.575 586.4 327.199 587.9 318.197 587.9C309.195 587.9 302.943 586.4 298.942 583.275C295.692 580.774 294.066 577.148 294.066 572.522ZM301.568 572.522C301.568 573.648 301.943 574.648 302.568 575.398C303.319 576.273 304.569 576.898 306.319 577.398C308.695 578.023 312.571 578.274 318.197 578.274C323.823 578.274 327.574 578.023 329.574 577.398C331.7 576.773 333.075 576.148 333.7 575.273C334.45 574.398 334.701 573.398 334.701 572.397C334.701 571.397 334.325 570.272 333.7 569.522C332.95 568.647 331.7 568.022 329.949 567.521C327.574 566.896 323.698 566.521 318.197 566.521C312.696 566.521 308.82 566.771 306.819 567.396C304.694 567.896 303.319 568.647 302.693 569.522C301.943 570.397 301.693 571.272 301.693 572.397L301.568 572.522Z" fill="white"/>
<path d="M294.066 532.015C294.066 527.389 295.692 523.888 298.942 521.262C302.818 518.137 309.195 516.636 318.197 516.636C327.199 516.636 333.575 518.137 337.451 521.262C340.702 523.763 342.327 527.389 342.327 532.015C342.327 536.64 340.577 540.266 337.076 543.142C333.575 545.892 327.199 547.393 318.197 547.393C309.195 547.393 302.943 545.892 298.942 542.767C295.692 540.266 294.066 536.64 294.066 532.015ZM301.568 532.015C301.568 533.14 301.943 534.015 302.568 534.89C303.319 535.765 304.569 536.39 306.319 536.891C308.695 537.516 312.571 537.891 318.197 537.891C323.823 537.891 327.574 537.641 329.574 537.015C331.7 536.515 333.075 535.765 333.7 534.89C334.45 534.015 334.701 533.015 334.701 532.015C334.701 531.014 334.325 529.889 333.7 529.014C332.95 528.139 331.7 527.514 329.949 527.013C327.574 526.388 323.698 526.138 318.197 526.138C312.696 526.138 308.82 526.388 306.819 527.013C304.694 527.514 303.319 528.264 302.693 529.139C301.943 530.014 301.693 530.889 301.693 532.015L301.568 532.015Z" fill="white"/>
<path d="M294.066 491.507C294.066 486.881 295.692 483.38 298.942 480.755C302.818 477.629 309.195 476.129 318.197 476.129C327.199 476.129 333.575 477.629 337.451 480.755C340.702 483.255 342.327 486.881 342.327 491.507C342.327 496.133 340.577 499.758 337.076 502.634C333.575 505.51 327.199 506.885 318.197 506.885C309.195 506.885 302.943 505.385 298.942 502.259C295.692 499.633 294.066 496.133 294.066 491.507ZM301.568 491.507C301.568 492.632 301.943 493.632 302.568 494.382C303.319 495.257 304.569 495.883 306.319 496.383C308.695 497.008 312.571 497.383 318.197 497.383C323.823 497.383 327.574 497.133 329.574 496.508C331.575 495.883 333.075 495.257 333.7 494.382C334.45 493.507 334.701 492.507 334.701 491.507C334.701 490.507 334.325 489.381 333.7 488.506C332.95 487.631 331.7 487.006 329.949 486.506C327.574 485.881 323.698 485.631 318.197 485.631C312.696 485.631 308.82 485.881 306.819 486.506C304.694 487.131 303.319 487.756 302.693 488.631C301.943 489.506 301.693 490.507 301.693 491.507L301.568 491.507Z" fill="white"/>
<path d="M294.066 429.87C294.066 425.244 295.692 421.743 298.942 419.118C302.818 415.992 309.195 414.492 318.197 414.492C327.199 414.492 333.575 415.992 337.451 419.118C340.702 421.618 342.327 425.244 342.327 429.745C342.327 434.246 340.577 438.122 337.076 440.872C333.575 443.623 327.199 445.123 318.197 445.123C309.195 445.123 302.943 443.623 298.942 440.497C295.692 437.872 294.066 434.371 294.066 429.745L294.066 429.87ZM301.568 429.87C301.568 430.995 301.943 431.995 302.568 432.871C303.319 433.746 304.569 434.371 306.319 434.871C308.695 435.496 312.571 435.871 318.197 435.871C323.823 435.871 327.574 435.621 329.574 434.996C331.7 434.496 333.075 433.746 333.7 432.871C334.45 431.995 334.701 430.995 334.701 429.995C334.701 428.995 334.325 427.995 333.7 427.12C332.95 426.244 331.7 425.619 329.949 425.119C327.574 424.494 323.698 424.119 318.197 424.119C312.696 424.119 308.82 424.369 306.819 424.994C304.694 425.619 303.319 426.244 302.693 427.12C301.943 427.995 301.693 428.995 301.693 429.995L301.568 429.87Z" fill="white"/>
<path d="M294.066 389.362C294.066 384.736 295.692 381.236 298.942 378.61C302.818 375.484 309.195 373.984 318.197 373.984C327.199 373.984 333.575 375.484 337.451 378.61C340.702 381.236 342.327 384.736 342.327 389.362C342.327 393.988 340.577 397.614 337.076 400.489C333.575 403.365 327.199 404.74 318.197 404.74C309.195 404.74 302.943 403.24 298.942 400.114C295.692 397.614 294.066 393.988 294.066 389.362ZM301.568 389.362C301.568 390.487 301.943 391.363 302.568 392.238C303.319 393.113 304.569 393.738 306.319 394.238C308.695 394.863 312.571 395.113 318.197 395.113C323.823 395.113 327.574 394.863 329.574 394.238C331.7 393.738 333.075 392.988 333.7 392.113C334.45 391.238 334.701 390.237 334.701 389.237C334.701 388.237 334.325 387.112 333.7 386.237C332.95 385.361 331.7 384.736 329.949 384.236C327.574 383.611 323.698 383.361 318.197 383.361C312.696 383.361 308.82 383.611 306.819 384.236C304.694 384.861 303.319 385.486 302.693 386.362C301.943 387.237 301.693 388.237 301.693 389.237L301.568 389.362Z" fill="white"/>
<path d="M294.066 348.852C294.066 344.227 295.692 340.726 298.942 338.1C302.818 334.975 309.195 333.474 318.197 333.474C327.199 333.474 333.575 334.975 337.451 338.1C340.702 340.601 342.327 344.227 342.327 348.852C342.327 353.478 340.577 357.104 337.076 359.98C333.575 362.855 327.199 364.23 318.197 364.23C309.195 364.23 302.943 362.73 298.942 359.605C295.692 357.104 294.066 353.478 294.066 348.852ZM301.568 348.852C301.568 349.978 301.943 350.978 302.568 351.728C303.319 352.603 304.569 353.228 306.319 353.728C308.695 354.354 312.571 354.729 318.197 354.729C323.823 354.729 327.574 354.479 329.574 353.854C331.7 353.228 333.075 352.603 333.7 351.728C334.45 350.853 334.701 349.853 334.701 348.852C334.701 347.852 334.325 346.727 333.7 345.977C332.95 345.102 331.7 344.477 329.949 343.976C327.574 343.351 323.698 343.101 318.197 343.101C312.696 343.101 308.82 343.351 306.819 343.976C304.694 344.477 303.319 345.227 302.693 346.102C301.943 346.977 301.693 347.852 301.693 348.978L301.568 348.852Z" fill="white"/>
<path d="M294.066 308.345C294.066 303.719 295.692 300.218 298.942 297.592C302.818 294.467 309.195 292.966 318.197 292.966C327.199 292.966 333.575 294.467 337.451 297.592C340.702 300.218 342.327 303.719 342.327 308.345C342.327 312.971 340.577 316.596 337.076 319.472C333.575 322.222 327.199 323.723 318.197 323.723C309.195 323.723 302.943 322.222 298.942 319.097C295.692 316.596 294.066 312.971 294.066 308.345ZM301.568 308.345C301.568 309.47 301.943 310.47 302.568 311.22C303.319 312.095 304.569 312.721 306.319 313.221C308.695 313.846 312.571 314.221 318.197 314.221C323.823 314.221 327.574 313.971 329.574 313.346C331.7 312.72 333.075 312.095 333.7 311.22C334.45 310.345 334.701 309.47 334.701 308.345C334.701 307.219 334.325 306.219 333.7 305.469C332.95 304.594 331.7 303.969 329.949 303.468C327.574 302.843 323.698 302.468 318.197 302.468C312.696 302.468 308.82 302.718 306.819 303.344C304.694 303.844 303.319 304.594 302.693 305.469C301.943 306.344 301.693 307.344 301.693 308.345L301.568 308.345Z" fill="white"/>
<path d="M426.47 988.48L385.086 988.48L385.086 980.229L414.342 970.477C417.093 969.602 419.094 968.977 420.469 968.476C418.969 967.976 416.718 967.226 413.842 966.226L385.086 956.349L385.086 948.973L426.47 948.973L426.47 954.224L391.838 954.224L426.47 966.226L426.47 971.102L391.212 983.104L426.47 983.104L426.47 988.355L426.47 988.48Z" fill="white"/>
<path d="M390.962 940.846L385.086 940.846L385.086 935.72L390.962 935.72L390.962 940.846ZM426.47 940.846L396.464 940.846L396.464 935.72L426.47 935.72L426.47 940.846Z" fill="white"/>
<path d="M421.844 917.341L426.345 916.591C426.595 917.966 426.845 919.341 426.845 920.467C426.845 922.217 426.595 923.717 425.97 924.717C425.345 925.718 424.595 926.468 423.719 926.843C422.719 927.218 420.719 927.468 417.718 927.468L400.464 927.468L400.464 931.219L396.463 931.219L396.463 927.468L389.087 927.468L386.086 922.467L396.588 922.467L396.588 917.341L400.589 917.341L400.589 922.467L418.093 922.467C419.593 922.467 420.469 922.467 420.844 922.217C421.219 922.092 421.594 921.717 421.844 921.342C422.094 920.967 422.219 920.342 422.219 919.592C422.219 919.091 422.219 918.216 421.969 917.341L421.844 917.341Z" fill="white"/>
<path d="M415.468 893.711L416.093 888.71C419.594 889.21 422.219 890.71 424.22 892.835C426.22 895.086 427.095 897.836 427.095 901.087C427.095 905.213 425.72 908.464 423.095 910.964C420.469 913.465 416.593 914.715 411.592 914.715C408.341 914.715 405.591 914.215 403.09 913.089C400.714 911.964 398.839 910.339 397.589 908.213C396.338 905.963 395.713 903.587 395.713 901.087C395.713 897.836 396.589 895.211 398.214 893.085C399.839 891.085 402.215 889.71 405.215 889.085L405.966 893.961C403.965 894.461 402.465 895.336 401.465 896.461C400.464 897.711 399.964 899.087 399.964 900.837C399.964 903.338 400.965 905.463 402.715 907.088C404.59 908.714 407.466 909.464 411.467 909.464C415.468 909.464 418.343 908.714 420.219 907.213C422.094 905.713 422.969 903.588 422.969 901.212C422.969 899.212 422.344 897.586 421.094 896.211C419.844 894.836 417.968 894.086 415.468 893.711Z" fill="white"/>
<path d="M426.47 884.084L385.086 884.084L385.086 878.958L399.964 878.958C397.214 876.582 395.838 873.582 395.838 869.956C395.838 867.706 396.338 865.83 397.214 864.205C398.089 862.58 399.339 861.329 400.84 860.704C402.34 859.954 404.59 859.579 407.591 859.579L426.595 859.579L426.595 864.705L407.591 864.705C405.09 864.705 403.215 865.205 402.09 866.33C400.965 867.456 400.339 868.956 400.339 871.081C400.339 872.582 400.714 873.957 401.465 875.332C402.215 876.707 403.34 877.583 404.59 878.208C405.966 878.833 407.716 879.083 410.092 879.083L426.47 879.083L426.47 884.209L426.47 884.084Z" fill="white"/>
<path d="M426.47 835.449L385.086 835.449L385.086 827.198L414.342 817.446C417.093 816.57 419.094 815.82 420.469 815.445C418.969 814.945 416.718 814.195 413.842 813.195L385.086 803.318L385.086 795.941L426.47 795.941L426.47 801.192L391.838 801.192L426.47 813.195L426.47 818.071L391.212 830.073L426.47 830.073L426.47 835.324L426.47 835.449Z" fill="white"/>
<path d="M411.467 789.441C405.966 789.441 401.84 787.941 399.089 784.815C396.839 782.19 395.713 779.064 395.713 775.438C395.713 771.313 397.089 767.937 399.714 765.311C402.465 762.686 406.091 761.436 410.842 761.436C414.718 761.436 417.718 762.061 419.969 763.186C422.219 764.311 423.845 766.062 425.095 768.187C426.345 770.438 426.97 772.813 426.97 775.438C426.97 779.689 425.595 783.065 422.969 785.566C420.344 788.191 416.343 789.441 411.342 789.441L411.467 789.441ZM411.467 784.19C415.343 784.19 418.218 783.315 420.094 781.69C421.969 780.064 422.969 777.939 422.969 775.314C422.969 772.688 421.969 770.688 420.094 769.062C418.218 767.437 415.218 766.562 411.342 766.562C407.591 766.562 404.84 767.437 402.965 769.062C401.09 770.688 400.089 772.813 400.089 775.314C400.089 777.814 401.09 779.939 402.965 781.69C404.84 783.315 407.716 784.19 411.592 784.19L411.467 784.19Z" fill="white"/>
<path d="M426.47 755.559L396.464 755.559L396.464 751.058L400.965 751.058C398.839 749.932 397.464 748.807 396.714 747.807C396.088 746.807 395.713 745.682 395.713 744.557C395.713 742.806 396.213 741.056 397.339 739.305L402.09 741.056C401.34 742.306 400.965 743.556 400.965 744.806C400.965 745.932 401.34 746.932 401.965 747.807C402.59 748.682 403.59 749.307 404.715 749.682C406.466 750.308 408.466 750.558 410.592 750.558L426.345 750.558L426.345 755.559L426.47 755.559Z" fill="white"/>
<path d="M390.962 735.805L385.086 735.805L385.086 730.679L390.962 730.679L390.962 735.805ZM426.47 735.805L396.464 735.805L396.464 730.679L426.47 730.679L426.47 735.805Z" fill="white"/>
<path d="M417.468 725.303L416.718 720.302C418.719 720.052 420.219 719.301 421.344 717.926C422.345 716.676 422.97 714.8 422.97 712.55C422.97 710.3 422.469 708.549 421.594 707.424C420.719 706.299 419.594 705.799 418.219 705.799C417.093 705.799 416.218 706.299 415.468 707.299C414.968 708.049 414.468 709.674 413.718 712.55C412.717 716.301 411.967 718.801 411.217 720.302C410.592 721.802 409.592 722.802 408.341 723.552C407.091 724.302 405.841 724.677 404.341 724.677C402.965 724.677 401.715 724.302 400.59 723.802C399.464 723.177 398.464 722.302 397.714 721.302C397.089 720.552 396.589 719.426 396.214 718.051C395.838 716.676 395.588 715.176 395.588 713.675C395.588 711.3 395.963 709.299 396.589 707.549C397.214 705.799 398.214 704.423 399.339 703.548C400.465 702.673 402.09 702.173 403.965 701.798L404.59 706.799C403.09 707.049 401.84 707.674 400.965 708.799C400.089 709.925 399.589 711.425 399.589 713.425C399.589 715.801 399.964 717.426 400.715 718.426C401.465 719.426 402.34 719.927 403.465 719.927C404.09 719.927 404.715 719.677 405.216 719.301C405.716 718.926 406.216 718.301 406.591 717.301C406.716 716.801 407.216 715.301 407.841 712.8C408.842 709.174 409.592 706.674 410.217 705.299C410.842 703.923 411.717 702.798 412.842 701.923C413.968 701.173 415.468 700.673 417.218 700.673C418.969 700.673 420.469 701.173 421.969 702.173C423.47 703.173 424.595 704.549 425.47 706.424C426.345 708.299 426.72 710.425 426.72 712.8C426.72 716.676 425.845 719.677 424.345 721.677C422.72 723.677 420.344 725.053 417.093 725.553L417.468 725.303Z" fill="white"/>
<defs>
<linearGradient id="paint0_linear_96_14281" x1="44.7383" y1="1078.51" x2="737.261" y2="19.0273" gradientUnits="userSpaceOnUse">
<stop stop-color="#212026"/>
<stop offset="0.376481" stop-color="#646464"/>
<stop offset="0.666667" stop-color="#888888"/>
<stop offset="1" stop-color="#3A3A3B"/>
</linearGradient>
</defs>
</svg>
