<svg width="670" height="670" viewBox="0 0 670 670" fill="none" xmlns="http://www.w3.org/2000/svg">
<path d="M334.571 601.373C481.921 601.373 601.371 481.923 601.371 334.573C601.371 187.224 481.921 67.7734 334.571 67.7734C187.221 67.7734 67.771 187.224 67.771 334.573C67.771 481.923 187.221 601.373 334.571 601.373Z" fill="white"/>
<path d="M501.862 501.862C594.252 409.471 594.252 259.677 501.862 167.287C409.472 74.8967 259.678 74.8967 167.287 167.287C74.897 259.677 74.8971 409.471 167.287 501.862C259.678 594.252 409.472 594.252 501.862 501.862Z" fill="#4DB35E"/>
<path d="M307.971 477.403L164.291 381.003L204.641 320.853L292.321 379.733L434.501 197.393L491.631 241.893L307.971 477.403Z" fill="white"/>
</svg>
