<?xml version="1.0" encoding="UTF-8"?>
<svg id="Layer_2" data-name="Layer 2" xmlns="http://www.w3.org/2000/svg" viewBox="0 0 43.71 44.29">
  <g id="Layer_1-2" data-name="Layer 1">
    <g>
      <path fill="white" d="M32.81,17.5c.94,1.55,1.43,3.34,1.43,5.35,0,3.21-1.12,5.83-3.36,7.82-2.24,1.99-5.25,3.01-8.99,3.01s-6.75-1.02-8.99-3.01c-2.24-1.99-3.36-4.61-3.36-7.82,0-2.01.46-3.8,1.4-5.35.94-1.58,2.32-2.78,4.1-3.64t-.05-.03l-8.97-5.14-.81-.46c-.43.43-.82.92-1.17,1.4C1.32,13.27,0,17.63,0,22.72c0,4.15.92,7.87,2.78,11.16,1.86,3.29,4.43,5.83,7.77,7.67,3.31,1.83,7.08,2.75,11.33,2.75s8-.92,11.31-2.75c3.29-1.83,5.88-4.38,7.72-7.67,1.86-3.29,2.8-7,2.8-11.16,0-5.09-1.35-9.45-4.02-13.09-.33-.43-.66-.87-1.02-1.27l-9.73,5.63c1.68.84,2.98,2.01,3.87,3.51Z"/>
      <path fill="white" d="M27.62.22s.05,0,.07.02l8.84,5.07.89.52-.27.15-9.41,5.44-.12.07V.22Z"/>
      <polygon fill="white" points="16.83 .22 16.83 11.5 7.02 5.88 16.73 .27 16.83 .22"/>
      <path fill="white" d="M27.46,0l.08.05s-.05-.03-.08-.03v-.03Z"/>
    </g>
  </g>
</svg>
