<svg width="749" height="750" viewBox="0 0 749 750" fill="none" xmlns="http://www.w3.org/2000/svg">
<path d="M648.5 0H100C44.7715 0 0 44.7715 0 100V650C0 705.228 44.7715 750 100 750H648.5C703.728 750 748.5 705.228 748.5 650V100C748.5 44.7715 703.728 0 648.5 0Z" fill="#A0A8C7"/>
<g style="mix-blend-mode:overlay">
<path d="M748.5 100V263.95C721.4 275.9 691.5 282.5 660 282.5C538.5 282.5 440 184 440 62.5C440 40.8 443.15 19.8 449.05 0H648.5C703.75 0 748.5 44.75 748.5 100Z" fill="#666666"/>
</g>
<g style="mix-blend-mode:overlay">
<path d="M377.5 197.5C403.734 197.5 425 176.234 425 150C425 123.766 403.734 102.5 377.5 102.5C351.266 102.5 330 123.766 330 150C330 176.234 351.266 197.5 377.5 197.5Z" fill="#666666"/>
</g>
<g style="mix-blend-mode:overlay">
<path d="M195 332.5C122.7 332.5 55.5 354.85 0 393.05V546.5C42.2 483.8 113.85 442.5 195 442.5C324.6 442.5 430 547.9 430 677.5C430 702.8 426 727.15 418.55 750H532.3C537.35 726.6 540 702.35 540 677.5C540 487.25 385.25 332.5 195 332.5Z" fill="#666666"/>
</g>
<path d="M380.231 144.014C347.873 144.014 316.783 150.724 287.629 163.801L276.254 145.585L243 208.471L313.936 205.915L302.875 188.199C327.317 177.82 353.283 172.552 380.231 172.552C490.129 172.552 579.529 262.206 579.529 372.417C579.529 395.929 575.486 418.942 567.514 440.827C564.809 448.237 568.61 456.431 575.998 459.129C577.607 459.714 579.258 460 580.881 460C586.689 460 592.142 456.417 594.248 450.621C603.373 425.595 608 399.284 608 372.417C608 246.473 505.831 144 380.231 144V144.014Z" fill="white"/>
<path d="M379.769 600.986C412.127 600.986 443.217 594.276 472.371 581.199L483.746 599.415L517 536.53L446.064 539.085L457.125 556.802C432.683 567.18 406.717 572.448 379.769 572.448C269.871 572.448 180.471 482.796 180.471 372.586C180.471 349.073 184.514 326.061 192.486 304.176C195.191 296.767 191.39 288.572 184.002 285.874C176.613 283.162 168.442 286.973 165.752 294.383C156.627 319.408 152 345.719 152 372.586C152 498.542 254.169 601 379.769 601V600.986Z" fill="white"/>
<path d="M387.344 414.214C373.337 416.178 357.905 408.907 348.9 396.157C344.368 389.739 335.491 388.202 329.036 392.727C322.61 397.253 321.071 406.132 325.602 412.564C335.562 426.665 350.04 436.512 365.742 440.71V450.77C365.742 458.625 372.126 465 379.992 465C387.857 465 394.241 458.625 394.241 450.77V441.891C413.877 438.22 434.054 425.228 436.562 406.217C440.879 373.475 412.096 365.392 402.62 362.731C394.469 360.44 387.587 358.79 381.673 357.381C366.241 353.681 361.624 352.401 357.877 347.662C356.338 345.727 355.796 343.607 356.238 341.358C356.879 338.128 359.402 335.069 363.149 332.949C366.982 330.8 372.867 330.046 379.279 330.672C379.522 330.672 379.735 330.743 379.978 330.743C380.049 330.743 380.12 330.729 380.191 330.729C391.391 332.038 404.016 337.644 410.243 347.89C414.319 354.606 423.082 356.755 429.822 352.671C436.548 348.601 438.699 339.85 434.61 333.119C425.747 318.52 410.357 308.986 394.227 304.717V294.23C394.227 286.375 387.843 280 379.978 280C372.112 280 365.728 286.375 365.728 294.23V302.839C359.63 303.721 353.972 305.443 349.17 308.146C338.141 314.35 330.532 324.439 328.281 335.837C326.215 346.31 328.78 356.755 335.52 365.278C345.551 377.957 357.92 380.931 375.033 385.029C380.633 386.367 387.174 387.946 394.911 390.109C409.403 394.179 409.018 397.139 408.305 402.489C407.906 405.548 398.773 412.606 387.33 414.2L387.344 414.214Z" fill="white"/>
</svg>
