<svg width="827" height="1672" viewBox="0 0 827 1672" fill="none" xmlns="http://www.w3.org/2000/svg">
<path d="M45 344.169L45 1325.49C45 1352.28 66.719 1374 93.5109 1374L733.28 1374C760.072 1374 781.791 1352.28 781.791 1325.49L781.791 344.169C781.791 317.378 760.072 295.659 733.28 295.659L93.5108 295.659C66.719 295.659 45 317.378 45 344.169Z" fill="url(#paint0_linear_96_14333)"/>
<path d="M103.637 545.833L103.637 372.549C103.637 360.171 113.639 350.169 126.017 350.169L206.41 350.169C218.788 350.169 228.79 360.171 228.79 372.549L228.79 545.833C228.79 558.211 218.788 568.213 206.41 568.213L126.017 568.213C113.639 568.213 103.637 558.211 103.637 545.833Z" fill="white"/>
<path d="M173.403 514.578L176.153 505.951C180.905 507.327 184.53 509.452 186.781 512.578C189.156 515.578 190.282 519.454 190.282 524.205C190.282 529.956 188.281 534.832 184.28 538.583C180.279 542.334 174.903 544.209 168.027 544.209C160.775 544.209 155.024 542.334 151.023 538.583C147.022 534.832 145.021 529.831 145.021 523.705C145.021 518.329 146.647 513.953 149.773 510.702C151.648 508.702 154.274 507.202 157.774 506.201L159.9 514.953C157.649 515.453 155.774 516.578 154.524 518.204C153.148 519.829 152.523 521.83 152.523 524.205C152.523 527.456 153.648 530.081 156.024 532.082C158.399 534.082 162.15 535.082 167.402 535.082C172.903 535.082 176.904 534.082 179.279 532.082C181.655 530.081 182.78 527.456 182.78 524.33C182.78 521.955 182.03 519.954 180.529 518.204C179.029 516.578 176.654 515.328 173.528 514.578L173.403 514.578Z" fill="#393D6A"/>
<path d="M189.531 460.318L189.531 469.944L179.529 473.82L179.529 491.324L189.531 494.949L189.531 504.326L145.771 487.323L145.771 477.946L189.531 460.442L189.531 460.318ZM172.277 476.571L156.024 482.572L172.277 488.448L172.277 476.446L172.277 476.571Z" fill="#393D6A"/>
<path d="M189.531 455.441L145.771 455.441L145.771 436.813C145.771 432.062 146.147 428.686 146.897 426.56C147.647 424.435 149.147 422.81 151.148 421.435C153.148 420.184 155.399 419.559 158.024 419.559C161.275 419.559 164.026 420.559 166.151 422.435C168.277 424.31 169.652 427.186 170.152 431.061C171.277 429.186 172.527 427.561 173.778 426.311C175.153 425.06 177.529 423.435 180.904 421.309L189.406 415.933L189.406 426.56L179.904 432.937C176.528 435.187 174.278 436.813 173.403 437.563C172.527 438.313 171.902 439.313 171.652 440.188C171.277 441.189 171.152 442.564 171.152 444.689L171.152 446.44L189.406 446.44L189.406 455.316L189.531 455.441ZM164.276 446.565L164.276 440.063C164.276 435.812 164.151 433.187 163.776 432.062C163.4 431.061 162.775 430.186 161.9 429.561C161.025 428.936 159.9 428.686 158.649 428.686C157.149 428.686 156.024 429.061 155.024 429.811C154.148 430.561 153.523 431.687 153.273 433.187C153.273 433.937 153.148 436.062 153.148 439.688L153.148 446.565L164.276 446.565Z" fill="#393D6A"/>
<path d="M145.771 411.181L145.771 395.053C145.771 391.428 146.022 388.677 146.647 386.677C147.397 384.051 148.772 381.926 150.648 380.05C152.523 378.3 154.899 376.8 157.774 375.925C160.525 374.924 164.026 374.424 168.152 374.424C171.777 374.424 174.903 374.924 177.529 375.799C180.654 376.925 183.28 378.425 185.28 380.55C186.781 382.051 187.906 384.176 188.781 386.802C189.406 388.802 189.656 391.428 189.656 394.678L189.656 411.307L145.897 411.307L145.771 411.181ZM153.148 402.305L182.155 402.305L182.155 395.679C182.155 393.178 182.03 391.428 181.78 390.302C181.404 388.927 180.779 387.677 179.904 386.677C179.029 385.676 177.654 384.926 175.653 384.301C173.653 383.676 171.027 383.426 167.651 383.426C164.276 383.426 161.65 383.676 159.9 384.301C158.149 384.926 156.649 385.801 155.649 386.802C154.648 387.927 153.898 389.302 153.648 390.928C153.398 392.178 153.273 394.553 153.273 398.179L153.273 402.18L153.148 402.305Z" fill="#393D6A"/>
<path d="M592.623 762.753C592.623 758.752 593.998 755.627 596.874 753.376C600.25 750.751 605.876 749.375 613.753 749.375C621.63 749.375 627.256 750.751 630.632 753.501C633.507 755.752 634.883 758.877 634.883 762.878C634.883 766.879 633.382 770.13 630.257 772.63C627.131 775.131 621.63 776.381 613.753 776.381C605.876 776.381 600.375 775.005 596.999 772.38C594.123 770.13 592.748 767.004 592.748 763.003L592.623 762.753ZM599.25 762.753C599.25 763.753 599.625 764.628 600.125 765.379C600.75 766.129 601.875 766.754 603.375 767.129C605.376 767.629 608.877 768.004 613.753 768.004C618.629 768.004 621.88 767.754 623.755 767.254C625.631 766.754 626.756 766.129 627.381 765.379C628.006 764.628 628.256 763.753 628.256 762.878C628.256 762.003 627.881 761.128 627.381 760.253C626.756 759.502 625.631 758.877 624.13 758.502C622.13 758.002 618.629 757.752 613.753 757.752C608.877 757.752 605.626 758.002 603.751 758.502C602 759.002 600.75 759.628 600.125 760.378C599.5 761.128 599.25 762.003 599.25 763.003L599.25 762.753Z" fill="white"/>
<path d="M623.505 744.25L622.63 736.373C624.38 736.123 625.88 735.498 626.881 734.373C627.881 733.248 628.506 731.998 628.506 730.497C628.506 728.872 627.881 727.497 626.506 726.246C625.13 725.121 623.13 724.496 620.379 724.496C617.879 724.496 615.878 725.121 614.628 726.246C613.378 727.371 612.752 728.872 612.752 730.622C612.752 732.873 613.753 734.998 615.753 736.749L614.878 743.125L593.373 738.999L593.373 718.12L600.75 718.12L600.75 733.123L607.751 734.373C606.876 732.623 606.376 730.747 606.376 728.997C606.376 725.496 607.626 722.496 610.252 720.12C612.878 717.62 616.128 716.494 620.254 716.494C623.63 716.494 626.756 717.495 629.381 719.495C633.007 722.121 634.882 725.871 634.882 730.747C634.882 734.498 633.882 737.624 631.757 740.124C629.756 742.5 627.006 744 623.505 744.5L623.505 744.25Z" fill="white"/>
<path d="M634.883 698.615L592.123 688.363L592.123 682.362L634.883 692.739L634.883 698.615Z" fill="white"/>
<path d="M626.756 637.229L634.132 637.229L634.132 664.984C631.382 664.609 628.756 663.734 626.256 662.234C623.755 660.734 620.504 657.733 616.378 653.357C613.003 649.731 610.752 647.606 609.627 646.731C608.001 645.605 606.376 645.105 604.751 645.105C603 645.105 601.625 645.606 600.625 646.481C599.624 647.481 599.249 648.731 599.249 650.356C599.249 651.982 599.75 653.357 600.75 654.232C601.75 655.232 603.375 655.733 605.751 655.983L605.001 663.859C600.625 663.359 597.499 661.859 595.624 659.483C593.748 656.983 592.748 653.857 592.748 650.232C592.748 646.106 593.873 642.98 595.999 640.605C598.249 638.229 601 637.104 604.251 637.104C606.126 637.104 607.876 637.479 609.502 638.104C611.127 638.729 613.003 639.854 614.753 641.23C616.003 642.23 617.754 643.855 620.004 646.481C622.255 648.981 623.88 650.606 624.63 651.232C625.38 651.857 626.131 652.482 626.881 652.857L626.881 637.104L626.756 637.229Z" fill="white"/>
<path d="M592.623 618.474C592.623 614.473 593.998 611.347 596.874 609.097C600.25 606.471 605.876 605.096 613.753 605.096C621.63 605.096 627.256 606.471 630.632 609.222C633.507 611.472 634.883 614.598 634.883 618.599C634.883 622.6 633.382 625.85 630.257 628.351C627.131 630.851 621.63 632.102 613.753 632.102C605.876 632.102 600.375 630.726 596.999 627.976C594.123 625.725 592.748 622.6 592.748 618.599L592.623 618.474ZM599.25 618.474C599.25 619.474 599.625 620.224 600.125 621.099C600.75 621.85 601.875 622.475 603.375 622.85C605.376 623.35 608.877 623.6 613.753 623.6C618.629 623.6 621.88 623.35 623.755 622.85C625.631 622.35 626.756 621.724 627.381 620.974C628.006 620.224 628.256 619.349 628.256 618.474C628.256 617.599 627.881 616.599 627.381 615.973C626.756 615.223 625.631 614.598 624.13 614.223C622.13 613.723 618.629 613.473 613.753 613.473C608.877 613.473 605.626 613.723 603.751 614.223C602 614.723 600.75 615.348 600.125 616.098C599.5 616.849 599.25 617.724 599.25 618.599L599.25 618.474Z" fill="white"/>
<path d="M592.748 1283.61L592.748 1268.35C592.748 1264.98 592.998 1262.23 593.498 1260.48C594.249 1258.1 595.499 1255.97 597.249 1254.22C599.125 1252.47 601.375 1251.22 604.001 1250.22C606.626 1249.35 609.877 1248.85 613.753 1248.85C617.129 1248.85 620.129 1249.22 622.63 1250.1C625.631 1251.1 628.006 1252.6 629.881 1254.47C631.257 1255.97 632.382 1257.85 633.132 1260.35C633.757 1262.23 634.007 1264.6 634.007 1267.73L634.007 1283.48L592.623 1283.48L592.748 1283.61ZM599.75 1275.23L627.131 1275.23L627.131 1268.98C627.131 1266.6 627.131 1264.98 626.756 1263.98C626.381 1262.6 625.88 1261.48 625.005 1260.6C624.13 1259.73 622.88 1258.98 621.004 1258.48C619.129 1257.98 616.628 1257.6 613.378 1257.6C610.127 1257.6 607.752 1257.85 606.001 1258.48C604.251 1258.98 603 1259.85 602 1260.85C601 1261.85 600.375 1263.1 600 1264.73C599.75 1265.85 599.625 1268.23 599.625 1271.6L599.625 1275.35L599.75 1275.23Z" fill="white"/>
<path d="M613.378 1236.1L612.127 1243.35C609.252 1242.47 607.126 1241.1 605.751 1239.22C604.376 1237.22 603.625 1234.35 603.625 1230.47C603.625 1226.97 604 1224.34 604.876 1222.59C605.751 1220.84 606.751 1219.59 608.001 1218.97C609.252 1218.22 611.627 1217.97 615.128 1217.97L624.38 1217.97C627.006 1217.97 629.006 1217.97 630.257 1217.72C631.507 1217.47 632.882 1216.97 634.257 1216.34L634.257 1224.22C634.257 1224.22 633.007 1224.72 631.882 1224.97C631.382 1224.97 631.132 1225.22 630.882 1225.22C632.257 1226.59 633.132 1227.97 633.882 1229.59C634.507 1231.1 634.883 1232.72 634.883 1234.47C634.883 1237.6 634.007 1239.97 632.382 1241.72C630.757 1243.47 628.631 1244.35 626.005 1244.35C624.38 1244.35 622.755 1243.97 621.504 1243.1C620.129 1242.35 619.129 1241.22 618.504 1239.72C617.754 1238.22 617.128 1236.1 616.628 1233.47C615.878 1229.72 615.253 1227.22 614.628 1225.72L613.878 1225.72C612.377 1225.72 611.252 1226.09 610.627 1226.84C610.002 1227.59 609.627 1228.97 609.627 1231.1C609.627 1232.47 609.877 1233.6 610.502 1234.47C611.002 1235.22 612.002 1235.85 613.378 1236.35L613.378 1236.1ZM619.754 1225.59C620.129 1226.59 620.504 1228.22 621.004 1230.34C621.505 1232.6 621.88 1233.97 622.38 1234.6C623.13 1235.6 624.005 1236.1 625.13 1236.1C626.256 1236.1 627.256 1235.72 628.006 1234.85C628.756 1233.97 629.256 1232.97 629.256 1231.72C629.256 1230.34 628.756 1228.97 627.881 1227.59C627.131 1226.59 626.256 1226.09 625.255 1225.72C624.63 1225.47 623.255 1225.47 621.379 1225.47L619.754 1225.47L619.754 1225.59Z" fill="white"/>
<path d="M604.251 1196.21L610.627 1196.21L610.627 1201.59L622.63 1201.59C625.13 1201.59 626.506 1201.59 626.881 1201.46C627.256 1201.46 627.631 1201.09 627.881 1200.71C628.131 1200.34 628.256 1199.96 628.256 1199.34C628.256 1198.59 628.006 1197.59 627.506 1196.21L633.632 1195.46C634.382 1197.34 634.758 1199.46 634.758 1201.71C634.758 1203.21 634.507 1204.47 634.007 1205.59C633.507 1206.72 632.882 1207.59 632.132 1208.09C631.382 1208.59 630.381 1208.97 629.006 1209.22C628.131 1209.34 626.256 1209.47 623.38 1209.47L610.377 1209.47L610.377 1213.09L604.001 1213.09L604.001 1209.47L597.999 1209.47L593.373 1201.59L604.001 1201.59L604.001 1196.21L604.251 1196.21Z" fill="white"/>
<path d="M624.63 1172.96L626.005 1165.08C628.881 1166.08 631.132 1167.71 632.632 1169.83C634.132 1172.08 634.882 1174.83 634.882 1178.08C634.882 1183.34 633.132 1187.09 629.756 1189.71C627.006 1191.71 623.63 1192.71 619.379 1192.71C614.378 1192.71 610.502 1191.46 607.751 1188.84C605.001 1186.21 603.5 1182.96 603.5 1178.96C603.5 1174.46 605.001 1170.96 607.876 1168.46C610.877 1165.83 615.378 1164.71 621.379 1164.83L621.379 1184.71C623.755 1184.71 625.505 1183.96 626.881 1182.84C628.256 1181.59 628.881 1180.09 628.881 1178.21C628.881 1176.96 628.506 1175.96 627.881 1175.08C627.256 1174.21 626.13 1173.58 624.63 1173.08L624.63 1172.96ZM616.628 1172.58C614.378 1172.58 612.627 1173.21 611.377 1174.33C610.127 1175.46 609.627 1176.83 609.627 1178.46C609.627 1180.21 610.252 1181.59 611.502 1182.71C612.753 1183.84 614.503 1184.34 616.628 1184.34L616.628 1172.46L616.628 1172.58Z" fill="white"/>
<path d="M189.533 1283.48L148.148 1283.48L148.148 1267.98C148.148 1264.85 148.524 1262.23 149.399 1260.35C150.274 1258.48 151.524 1256.98 153.275 1255.85C155.025 1254.72 156.9 1254.22 158.776 1254.22C160.526 1254.22 162.152 1254.72 163.777 1255.72C165.402 1256.73 166.653 1258.1 167.528 1260.1C168.278 1257.6 169.528 1255.72 171.279 1254.35C173.029 1252.97 175.155 1252.35 177.53 1252.35C179.53 1252.35 181.281 1252.72 182.906 1253.6C184.532 1254.47 185.907 1255.47 186.782 1256.6C187.657 1257.85 188.408 1259.35 188.783 1261.1C189.283 1262.98 189.533 1265.1 189.533 1267.85L189.533 1283.61L189.533 1283.48ZM165.527 1278.1L165.527 1269.23C165.527 1266.85 165.402 1265.1 165.027 1263.98C164.652 1262.6 163.902 1261.48 163.027 1260.85C162.026 1260.1 160.901 1259.73 159.401 1259.73C158.026 1259.73 156.775 1260.1 155.775 1260.73C154.775 1261.35 154.025 1262.35 153.65 1263.6C153.275 1264.85 153.025 1266.98 153.025 1269.85L153.025 1278.1L165.527 1278.1ZM184.657 1278.1L184.657 1267.85C184.657 1266.1 184.657 1264.85 184.407 1264.1C184.157 1262.85 183.781 1261.73 183.281 1260.98C182.781 1260.1 181.906 1259.48 181.031 1258.85C180.031 1258.35 178.905 1258.1 177.53 1258.1C176.03 1258.1 174.654 1258.48 173.529 1259.23C172.404 1259.98 171.654 1261.1 171.154 1262.48C170.653 1263.85 170.403 1265.98 170.403 1268.6L170.403 1278.1L184.657 1278.1Z" fill="white"/>
<path d="M185.907 1226.22C187.532 1228.09 188.658 1229.84 189.283 1231.59C189.908 1233.34 190.283 1235.22 190.283 1237.22C190.283 1240.47 189.533 1243.1 187.907 1244.85C186.282 1246.6 184.282 1247.47 181.781 1247.47C180.281 1247.47 178.905 1247.1 177.78 1246.47C176.53 1245.85 175.53 1244.97 174.905 1243.85C174.154 1242.72 173.654 1241.47 173.279 1240.22C173.029 1239.22 172.779 1237.72 172.529 1235.72C172.029 1231.59 171.404 1228.59 170.779 1226.72C170.028 1226.72 169.653 1226.72 169.403 1226.72C167.278 1226.72 165.902 1227.22 165.027 1228.22C163.902 1229.47 163.277 1231.47 163.277 1233.97C163.277 1236.35 163.652 1238.1 164.527 1239.22C165.402 1240.35 166.903 1241.22 168.903 1241.72L168.278 1246.72C166.153 1246.22 164.402 1245.6 163.152 1244.47C161.902 1243.47 160.776 1241.97 160.151 1239.97C159.401 1237.97 159.026 1235.72 159.026 1233.22C159.026 1230.72 159.276 1228.59 159.901 1226.97C160.526 1225.34 161.276 1224.22 162.152 1223.47C163.027 1222.72 164.152 1222.22 165.652 1221.84C166.528 1221.72 168.028 1221.59 170.278 1221.59L177.03 1221.59C181.781 1221.59 184.782 1221.59 186.032 1221.22C187.282 1220.97 188.408 1220.59 189.658 1219.97L189.658 1225.22C188.658 1225.72 187.407 1226.09 185.907 1226.22ZM174.529 1226.59C175.28 1228.47 175.905 1231.22 176.405 1234.85C176.655 1236.97 177.03 1238.47 177.405 1239.22C177.78 1240.1 178.28 1240.72 179.03 1241.22C179.781 1241.72 180.531 1241.97 181.406 1241.97C182.781 1241.97 183.907 1241.47 184.782 1240.47C185.657 1239.47 186.157 1237.97 186.157 1235.97C186.157 1233.97 185.782 1232.22 184.907 1230.72C184.032 1229.22 182.906 1228.09 181.406 1227.34C180.281 1226.84 178.53 1226.47 176.28 1226.47L174.404 1226.47L174.529 1226.59Z" fill="white"/>
<path d="M189.533 1214.09L159.526 1214.09L159.526 1209.47L163.777 1209.47C160.526 1207.22 158.776 1204.09 158.776 1199.96C158.776 1198.21 159.151 1196.46 159.776 1194.96C160.401 1193.46 161.276 1192.34 162.277 1191.59C163.277 1190.84 164.527 1190.34 166.028 1189.96C166.903 1189.84 168.653 1189.71 171.029 1189.71L189.408 1189.71L189.408 1194.84L171.154 1194.84C169.028 1194.84 167.528 1195.09 166.528 1195.46C165.527 1195.84 164.652 1196.59 164.027 1197.59C163.402 1198.59 163.152 1199.71 163.152 1201.09C163.152 1203.21 163.902 1205.09 165.152 1206.72C166.528 1208.22 169.153 1209.09 172.904 1209.09L189.283 1209.09L189.283 1214.22L189.533 1214.09Z" fill="white"/>
<path d="M189.533 1182.46L148.148 1182.46L148.148 1177.46L171.779 1177.46L159.526 1165.46L159.526 1158.83L170.653 1170.33L189.533 1157.71L189.533 1163.96L174.154 1173.83L177.53 1177.46L189.408 1177.46L189.408 1182.46L189.533 1182.46Z" fill="white"/>
<path d="M339.066 1274.35C339.066 1269.73 340.692 1266.23 343.942 1263.6C347.818 1260.48 354.195 1258.98 363.197 1258.98C372.199 1258.98 378.575 1260.48 382.451 1263.6C385.702 1266.1 387.327 1269.73 387.327 1274.35C387.327 1278.98 385.577 1282.61 382.076 1285.48C378.575 1288.23 372.199 1289.73 363.197 1289.73C354.195 1289.73 347.943 1288.23 343.942 1285.11C340.692 1282.48 339.066 1278.98 339.066 1274.35ZM346.568 1274.35C346.568 1275.48 346.943 1276.48 347.568 1277.35C348.319 1278.23 349.569 1278.86 351.319 1279.36C353.695 1279.98 357.571 1280.36 363.197 1280.36C368.823 1280.36 372.574 1280.11 374.574 1279.48C376.575 1278.86 378.075 1278.23 378.7 1277.35C379.45 1276.48 379.701 1275.48 379.701 1274.48C379.701 1273.48 379.325 1272.35 378.7 1271.6C377.95 1270.73 376.7 1270.1 374.949 1269.6C372.574 1268.98 368.698 1268.73 363.197 1268.73C357.696 1268.73 353.82 1268.98 351.819 1269.6C349.694 1270.1 348.319 1270.85 347.693 1271.73C346.943 1272.6 346.693 1273.6 346.693 1274.6L346.568 1274.35Z" fill="white"/>
<path d="M339.066 1233.85C339.066 1229.22 340.692 1225.72 343.942 1223.09C347.818 1219.97 354.195 1218.47 363.197 1218.47C372.199 1218.47 378.575 1219.97 382.451 1223.09C385.702 1225.72 387.327 1229.22 387.327 1233.85C387.327 1238.47 385.577 1242.22 382.076 1244.97C378.575 1247.72 372.199 1249.22 363.197 1249.22C354.195 1249.22 347.943 1247.72 343.942 1244.6C340.692 1241.97 339.066 1238.47 339.066 1233.85ZM346.568 1233.85C346.568 1234.97 346.943 1235.97 347.568 1236.72C348.319 1237.6 349.569 1238.22 351.319 1238.72C353.695 1239.35 357.571 1239.72 363.197 1239.72C368.823 1239.72 372.574 1239.47 374.574 1238.85C376.7 1238.35 378.075 1237.6 378.7 1236.72C379.45 1235.85 379.701 1234.85 379.701 1233.85C379.701 1232.85 379.325 1231.72 378.7 1230.97C377.95 1230.1 376.7 1229.47 374.949 1228.97C372.574 1228.35 368.698 1227.97 363.197 1227.97C357.696 1227.97 353.82 1228.22 351.819 1228.85C349.694 1229.47 348.319 1230.1 347.693 1230.97C346.943 1231.85 346.693 1232.85 346.693 1233.85L346.568 1233.85Z" fill="white"/>
<path d="M339.066 1193.34C339.066 1188.71 340.692 1185.21 343.942 1182.59C347.818 1179.46 354.195 1177.96 363.197 1177.96C372.199 1177.96 378.575 1179.46 382.451 1182.59C385.702 1185.21 387.327 1188.71 387.327 1193.34C387.327 1197.96 385.577 1201.59 382.076 1204.47C378.575 1207.34 372.199 1208.72 363.197 1208.72C354.195 1208.72 347.943 1207.22 343.942 1204.09C340.692 1201.59 339.066 1197.96 339.066 1193.34ZM346.568 1193.34C346.568 1194.46 346.943 1195.34 347.568 1196.21C348.319 1197.09 349.569 1197.71 351.319 1198.21C353.695 1198.84 357.571 1199.09 363.197 1199.09C368.823 1199.09 372.574 1198.84 374.574 1198.21C376.7 1197.71 378.075 1196.96 378.7 1196.09C379.45 1195.21 379.701 1194.34 379.701 1193.21C379.701 1192.09 379.325 1191.09 378.7 1190.21C377.95 1189.34 376.7 1188.71 374.949 1188.21C372.574 1187.59 368.698 1187.21 363.197 1187.21C357.696 1187.21 353.82 1187.46 351.819 1188.09C349.819 1188.71 348.319 1189.34 347.693 1190.21C346.943 1191.09 346.693 1192.09 346.693 1193.09L346.568 1193.34Z" fill="white"/>
<path d="M339.066 1152.83C339.066 1148.21 340.692 1144.7 343.942 1142.08C347.818 1138.95 354.195 1137.45 363.197 1137.45C372.199 1137.45 378.575 1138.95 382.451 1142.08C385.702 1144.58 387.327 1148.21 387.327 1152.83C387.327 1157.46 385.577 1161.21 382.076 1163.96C378.575 1166.83 372.199 1168.21 363.197 1168.21C354.195 1168.21 347.943 1166.71 343.942 1163.58C340.692 1161.08 339.066 1157.46 339.066 1152.83ZM346.568 1152.83C346.568 1153.96 346.943 1154.96 347.568 1155.83C348.319 1156.71 349.569 1157.33 351.319 1157.83C353.695 1158.46 357.571 1158.83 363.197 1158.83C368.823 1158.83 372.574 1158.58 374.574 1157.96C376.7 1157.33 378.075 1156.71 378.7 1155.83C379.45 1154.96 379.701 1153.96 379.701 1152.96C379.701 1151.96 379.325 1150.83 378.7 1150.08C377.95 1149.21 376.7 1148.58 374.949 1148.08C372.574 1147.45 368.698 1147.2 363.197 1147.2C357.696 1147.2 353.82 1147.45 351.819 1148.08C349.694 1148.58 348.319 1149.33 347.693 1150.21C346.943 1151.08 346.693 1151.96 346.693 1153.08L346.568 1152.83Z" fill="white"/>
<path d="M339.066 1091.19C339.066 1086.57 340.692 1083.07 343.942 1080.44C347.818 1077.31 354.195 1075.81 363.197 1075.81C372.199 1075.81 378.575 1077.31 382.451 1080.44C385.702 1083.07 387.327 1086.57 387.327 1091.19C387.327 1095.82 385.577 1099.44 382.076 1102.32C378.575 1105.19 372.199 1106.57 363.197 1106.57C354.195 1106.57 347.943 1105.07 343.942 1101.94C340.692 1099.32 339.066 1095.82 339.066 1091.19ZM346.568 1091.19C346.568 1092.32 346.943 1093.32 347.568 1094.07C348.319 1094.94 349.569 1095.57 351.319 1096.07C353.695 1096.69 357.571 1097.07 363.197 1097.07C368.823 1097.07 372.574 1096.82 374.574 1096.19C376.7 1095.69 378.075 1094.94 378.7 1094.07C379.45 1093.19 379.701 1092.19 379.701 1091.19C379.701 1090.19 379.325 1089.07 378.7 1088.19C377.95 1087.32 376.7 1086.69 374.949 1086.19C372.574 1085.57 368.698 1085.32 363.197 1085.32C357.696 1085.32 353.82 1085.57 351.819 1086.19C349.819 1086.82 348.319 1087.44 347.693 1088.32C346.943 1089.19 346.693 1090.19 346.693 1091.19L346.568 1091.19Z" fill="white"/>
<path d="M339.066 1050.68C339.066 1046.06 340.692 1042.56 343.942 1039.93C347.818 1036.81 354.195 1035.31 363.197 1035.31C372.199 1035.31 378.575 1036.81 382.451 1039.93C385.702 1042.56 387.327 1046.06 387.327 1050.68C387.327 1055.31 385.577 1058.94 382.076 1061.81C378.575 1064.69 372.199 1066.06 363.197 1066.06C354.195 1066.06 347.943 1064.56 343.942 1061.44C340.692 1058.81 339.066 1055.31 339.066 1050.68ZM346.568 1050.68C346.568 1051.81 346.943 1052.81 347.568 1053.56C348.319 1054.44 349.569 1055.06 351.319 1055.56C353.695 1056.19 357.571 1056.56 363.197 1056.56C368.823 1056.56 372.574 1056.31 374.574 1055.69C376.7 1055.19 378.075 1054.44 378.7 1053.56C379.45 1052.68 379.701 1051.68 379.701 1050.68C379.701 1049.68 379.325 1048.56 378.7 1047.68C377.95 1046.81 376.7 1046.18 374.949 1045.68C372.574 1045.06 368.698 1044.81 363.197 1044.81C357.696 1044.81 353.82 1045.06 351.819 1045.68C349.694 1046.18 348.319 1046.93 347.693 1047.81C346.943 1048.68 346.693 1049.68 346.693 1050.68L346.568 1050.68Z" fill="white"/>
<path d="M339.066 1010.18C339.066 1005.55 340.692 1002.05 343.942 999.424C347.818 996.299 354.195 994.799 363.197 994.799C372.199 994.799 378.575 996.424 382.451 999.424C385.702 1001.92 387.327 1005.55 387.327 1010.05C387.327 1014.55 385.577 1018.43 382.076 1021.18C378.575 1023.93 372.199 1025.43 363.197 1025.43C354.195 1025.43 347.943 1023.93 343.942 1020.8C340.692 1018.3 339.066 1014.68 339.066 1010.05L339.066 1010.18ZM346.568 1010.18C346.568 1011.3 346.943 1012.3 347.568 1013.05C348.319 1013.93 349.569 1014.55 351.319 1015.05C353.695 1015.68 357.571 1015.93 363.197 1015.93C368.823 1015.93 372.574 1015.68 374.574 1015.05C376.7 1014.43 378.075 1013.8 378.7 1012.93C379.45 1012.05 379.701 1011.05 379.701 1010.05C379.701 1009.05 379.325 1007.93 378.7 1007.18C377.95 1006.3 376.7 1005.68 374.949 1005.18C372.574 1004.55 368.698 1004.18 363.197 1004.18C357.696 1004.18 353.82 1004.43 351.819 1005.05C349.694 1005.55 348.319 1006.3 347.693 1007.18C346.943 1008.05 346.693 1009.05 346.693 1010.05L346.568 1010.18Z" fill="white"/>
<path d="M339.066 969.669C339.066 965.043 340.692 961.542 343.942 958.917C347.818 955.791 354.195 954.291 363.197 954.291C372.199 954.291 378.575 955.791 382.451 958.917C385.702 961.542 387.327 965.043 387.327 969.669C387.327 974.295 385.577 977.92 382.076 980.796C378.575 983.671 372.199 985.047 363.197 985.047C354.195 985.047 347.943 983.546 343.942 980.421C340.692 977.92 339.066 974.295 339.066 969.669ZM346.568 969.669C346.568 970.794 346.943 971.794 347.568 972.544C348.319 973.42 349.569 974.045 351.319 974.545C353.695 975.17 357.571 975.42 363.197 975.42C368.823 975.42 372.574 975.17 374.574 974.545C376.7 974.045 378.075 973.294 378.7 972.419C379.45 971.544 379.701 970.544 379.701 969.544C379.701 968.544 379.325 967.418 378.7 966.543C377.95 965.668 376.7 965.043 374.949 964.543C372.574 963.918 368.698 963.543 363.197 963.543C357.696 963.543 353.82 963.793 351.819 964.418C349.819 965.043 348.319 965.668 347.693 966.543C346.943 967.418 346.693 968.419 346.693 969.419L346.568 969.669Z" fill="white"/>
<path d="M339.066 908.03C339.066 903.404 340.692 899.904 343.942 897.278C347.818 894.152 354.195 892.652 363.197 892.652C372.199 892.652 378.575 894.152 382.451 897.278C385.702 899.904 387.327 903.404 387.327 908.03C387.327 912.656 385.577 916.407 382.076 919.157C378.575 922.033 372.199 923.408 363.197 923.408C354.195 923.408 347.943 921.908 343.942 918.782C340.692 916.282 339.066 912.656 339.066 908.03ZM346.568 908.03C346.568 909.155 346.943 910.155 347.568 911.031C348.319 911.906 349.569 912.531 351.319 913.031C353.695 913.656 357.571 913.906 363.197 913.906C368.823 913.906 372.574 913.656 374.574 913.031C376.7 912.531 378.075 911.781 378.7 910.906C379.45 910.031 379.701 909.03 379.701 908.03C379.701 907.03 379.325 906.03 378.7 905.155C377.95 904.279 376.7 903.654 374.949 903.154C372.574 902.529 368.698 902.154 363.197 902.154C357.696 902.154 353.82 902.404 351.819 903.029C349.694 903.529 348.319 904.279 347.693 905.155C346.943 906.03 346.693 907.03 346.693 908.03L346.568 908.03Z" fill="white"/>
<path d="M339.066 867.522C339.066 862.896 340.692 859.396 343.942 856.77C347.818 853.645 354.195 852.144 363.197 852.144C372.199 852.144 378.575 853.645 382.451 856.77C385.702 859.396 387.327 862.896 387.327 867.522C387.327 872.148 385.577 875.774 382.076 878.65C378.575 881.4 372.199 882.9 363.197 882.9C354.195 882.9 347.943 881.4 343.942 878.275C340.692 875.774 339.066 872.148 339.066 867.522ZM346.568 867.522C346.568 868.648 346.943 869.648 347.568 870.398C348.319 871.273 349.569 871.898 351.319 872.398C353.695 873.023 357.571 873.274 363.197 873.274C368.823 873.274 372.574 873.023 374.574 872.398C376.7 871.773 378.075 871.148 378.7 870.273C379.45 869.398 379.701 868.398 379.701 867.397C379.701 866.397 379.325 865.272 378.7 864.522C377.95 863.647 376.7 863.022 374.949 862.521C372.574 861.896 368.698 861.521 363.197 861.521C357.696 861.521 353.82 861.771 351.819 862.396C349.694 862.896 348.319 863.647 347.693 864.522C346.943 865.397 346.693 866.272 346.693 867.397L346.568 867.522Z" fill="white"/>
<path d="M339.066 827.015C339.066 822.389 340.692 818.888 343.942 816.262C347.818 813.137 354.195 811.636 363.197 811.636C372.199 811.636 378.575 813.137 382.451 816.262C385.702 818.763 387.327 822.389 387.327 827.015C387.327 831.64 385.577 835.266 382.076 838.142C378.575 840.892 372.199 842.393 363.197 842.393C354.195 842.393 347.943 840.892 343.942 837.767C340.692 835.266 339.066 831.64 339.066 827.015ZM346.568 827.015C346.568 828.14 346.943 829.015 347.568 829.89C348.319 830.765 349.569 831.39 351.319 831.891C353.695 832.516 357.571 832.891 363.197 832.891C368.823 832.891 372.574 832.641 374.574 832.015C376.7 831.515 378.075 830.765 378.7 829.89C379.45 829.015 379.701 828.015 379.701 827.015C379.701 826.014 379.325 824.889 378.7 824.014C377.95 823.139 376.7 822.514 374.949 822.013C372.574 821.388 368.698 821.138 363.197 821.138C357.696 821.138 353.82 821.388 351.819 822.013C349.694 822.514 348.319 823.264 347.693 824.139C346.943 825.014 346.693 825.889 346.693 827.015L346.568 827.015Z" fill="white"/>
<path d="M339.066 786.507C339.066 781.881 340.692 778.38 343.942 775.755C347.818 772.629 354.195 771.129 363.197 771.129C372.199 771.129 378.575 772.629 382.451 775.755C385.702 778.255 387.327 781.881 387.327 786.507C387.327 791.133 385.577 794.758 382.076 797.634C378.575 800.51 372.199 801.885 363.197 801.885C354.195 801.885 347.943 800.385 343.942 797.259C340.692 794.633 339.066 791.133 339.066 786.507ZM346.568 786.507C346.568 787.632 346.943 788.632 347.568 789.382C348.319 790.257 349.569 790.883 351.319 791.383C353.695 792.008 357.571 792.383 363.197 792.383C368.823 792.383 372.574 792.133 374.574 791.508C376.575 790.883 378.075 790.257 378.7 789.382C379.45 788.507 379.701 787.507 379.701 786.507C379.701 785.507 379.325 784.381 378.7 783.506C377.95 782.631 376.7 782.006 374.949 781.506C372.574 780.881 368.698 780.631 363.197 780.631C357.696 780.631 353.82 780.881 351.819 781.506C349.694 782.131 348.319 782.756 347.693 783.631C346.943 784.506 346.693 785.507 346.693 786.507L346.568 786.507Z" fill="white"/>
<path d="M339.066 724.87C339.066 720.244 340.692 716.743 343.942 714.118C347.818 710.992 354.195 709.492 363.197 709.492C372.199 709.492 378.575 710.992 382.451 714.118C385.702 716.618 387.327 720.244 387.327 724.745C387.327 729.246 385.577 733.122 382.076 735.872C378.575 738.623 372.199 740.123 363.197 740.123C354.195 740.123 347.943 738.623 343.942 735.497C340.692 732.872 339.066 729.371 339.066 724.745L339.066 724.87ZM346.568 724.87C346.568 725.995 346.943 726.995 347.568 727.871C348.319 728.746 349.569 729.371 351.319 729.871C353.695 730.496 357.571 730.871 363.197 730.871C368.823 730.871 372.574 730.621 374.574 729.996C376.7 729.496 378.075 728.746 378.7 727.871C379.45 726.995 379.701 725.995 379.701 724.995C379.701 723.995 379.325 722.995 378.7 722.12C377.95 721.244 376.7 720.619 374.949 720.119C372.574 719.494 368.698 719.119 363.197 719.119C357.696 719.119 353.82 719.369 351.819 719.994C349.694 720.619 348.319 721.244 347.693 722.12C346.943 722.995 346.693 723.995 346.693 724.995L346.568 724.87Z" fill="white"/>
<path d="M339.066 684.362C339.066 679.736 340.692 676.236 343.942 673.61C347.818 670.484 354.195 668.984 363.197 668.984C372.199 668.984 378.575 670.484 382.451 673.61C385.702 676.236 387.327 679.736 387.327 684.362C387.327 688.988 385.577 692.614 382.076 695.489C378.575 698.365 372.199 699.74 363.197 699.74C354.195 699.74 347.943 698.24 343.942 695.114C340.692 692.614 339.066 688.988 339.066 684.362ZM346.568 684.362C346.568 685.487 346.943 686.363 347.568 687.238C348.319 688.113 349.569 688.738 351.319 689.238C353.695 689.863 357.571 690.113 363.197 690.113C368.823 690.113 372.574 689.863 374.574 689.238C376.7 688.738 378.075 687.988 378.7 687.113C379.45 686.238 379.701 685.237 379.701 684.237C379.701 683.237 379.325 682.112 378.7 681.237C377.95 680.361 376.7 679.736 374.949 679.236C372.574 678.611 368.698 678.361 363.197 678.361C357.696 678.361 353.82 678.611 351.819 679.236C349.694 679.861 348.319 680.486 347.693 681.362C346.943 682.237 346.693 683.237 346.693 684.237L346.568 684.362Z" fill="white"/>
<path d="M339.066 643.852C339.066 639.227 340.692 635.726 343.942 633.1C347.818 629.975 354.195 628.474 363.197 628.474C372.199 628.474 378.575 629.975 382.451 633.1C385.702 635.601 387.327 639.227 387.327 643.852C387.327 648.478 385.577 652.104 382.076 654.98C378.575 657.855 372.199 659.23 363.197 659.23C354.195 659.23 347.943 657.73 343.942 654.605C340.692 652.104 339.066 648.478 339.066 643.852ZM346.568 643.852C346.568 644.978 346.943 645.978 347.568 646.728C348.319 647.603 349.569 648.228 351.319 648.728C353.695 649.354 357.571 649.729 363.197 649.729C368.823 649.729 372.574 649.479 374.574 648.854C376.7 648.228 378.075 647.603 378.7 646.728C379.45 645.853 379.701 644.853 379.701 643.852C379.701 642.852 379.325 641.727 378.7 640.977C377.95 640.102 376.7 639.477 374.949 638.976C372.574 638.351 368.698 638.101 363.197 638.101C357.696 638.101 353.82 638.351 351.819 638.976C349.694 639.477 348.319 640.227 347.693 641.102C346.943 641.977 346.693 642.852 346.693 643.978L346.568 643.852Z" fill="white"/>
<path d="M339.066 603.345C339.066 598.719 340.692 595.218 343.942 592.592C347.818 589.467 354.195 587.966 363.197 587.966C372.199 587.966 378.575 589.467 382.451 592.592C385.702 595.218 387.327 598.719 387.327 603.345C387.327 607.971 385.577 611.596 382.076 614.472C378.575 617.222 372.199 618.723 363.197 618.723C354.195 618.723 347.943 617.222 343.942 614.097C340.692 611.596 339.066 607.971 339.066 603.345ZM346.568 603.345C346.568 604.47 346.943 605.47 347.568 606.22C348.319 607.095 349.569 607.721 351.319 608.221C353.695 608.846 357.571 609.221 363.197 609.221C368.823 609.221 372.574 608.971 374.574 608.346C376.7 607.72 378.075 607.095 378.7 606.22C379.45 605.345 379.701 604.47 379.701 603.345C379.701 602.219 379.325 601.219 378.7 600.469C377.95 599.594 376.7 598.969 374.949 598.468C372.574 597.843 368.698 597.468 363.197 597.468C357.696 597.468 353.82 597.718 351.819 598.344C349.694 598.844 348.319 599.594 347.693 600.469C346.943 601.344 346.693 602.344 346.693 603.345L346.568 603.345Z" fill="white"/>
<path d="M471.47 1283.48L430.086 1283.48L430.086 1275.23L459.342 1265.48C462.093 1264.6 464.094 1263.98 465.469 1263.48C463.969 1262.98 461.718 1262.23 458.842 1261.23L430.086 1251.35L430.086 1243.97L471.47 1243.97L471.47 1249.22L436.838 1249.22L471.47 1261.23L471.47 1266.1L436.212 1278.1L471.47 1278.1L471.47 1283.36L471.47 1283.48Z" fill="white"/>
<path d="M435.962 1235.85L430.086 1235.85L430.086 1230.72L435.962 1230.72L435.962 1235.85ZM471.47 1235.85L441.464 1235.85L441.464 1230.72L471.47 1230.72L471.47 1235.85Z" fill="white"/>
<path d="M466.844 1212.34L471.345 1211.59C471.595 1212.97 471.845 1214.34 471.845 1215.47C471.845 1217.22 471.595 1218.72 470.97 1219.72C470.345 1220.72 469.595 1221.47 468.719 1221.84C467.719 1222.22 465.719 1222.47 462.718 1222.47L445.464 1222.47L445.464 1226.22L441.463 1226.22L441.463 1222.47L434.087 1222.47L431.086 1217.47L441.588 1217.47L441.588 1212.34L445.589 1212.34L445.589 1217.47L463.093 1217.47C464.593 1217.47 465.469 1217.47 465.844 1217.22C466.219 1217.09 466.594 1216.72 466.844 1216.34C467.094 1215.97 467.219 1215.34 467.219 1214.59C467.219 1214.09 467.219 1213.22 466.969 1212.34L466.844 1212.34Z" fill="white"/>
<path d="M460.468 1188.71L461.093 1183.71C464.594 1184.21 467.219 1185.71 469.22 1187.84C471.22 1190.09 472.095 1192.84 472.095 1196.09C472.095 1200.21 470.72 1203.46 468.095 1205.96C465.469 1208.46 461.593 1209.71 456.592 1209.71C453.341 1209.71 450.591 1209.21 448.09 1208.09C445.714 1206.96 443.839 1205.34 442.589 1203.21C441.338 1200.96 440.713 1198.59 440.713 1196.09C440.713 1192.84 441.589 1190.21 443.214 1188.09C444.839 1186.08 447.215 1184.71 450.215 1184.08L450.966 1188.96C448.965 1189.46 447.465 1190.34 446.465 1191.46C445.464 1192.71 444.964 1194.09 444.964 1195.84C444.964 1198.34 445.965 1200.46 447.715 1202.09C449.59 1203.71 452.466 1204.46 456.467 1204.46C460.468 1204.46 463.343 1203.71 465.219 1202.21C467.094 1200.71 467.969 1198.59 467.969 1196.21C467.969 1194.21 467.344 1192.59 466.094 1191.21C464.844 1189.84 462.968 1189.09 460.468 1188.71Z" fill="white"/>
<path d="M471.47 1179.08L430.086 1179.08L430.086 1173.96L444.964 1173.96C442.214 1171.58 440.838 1168.58 440.838 1164.96C440.838 1162.71 441.338 1160.83 442.214 1159.2C443.089 1157.58 444.339 1156.33 445.84 1155.7C447.34 1154.95 449.59 1154.58 452.591 1154.58L471.595 1154.58L471.595 1159.71L452.591 1159.71C450.09 1159.71 448.215 1160.21 447.09 1161.33C445.965 1162.46 445.339 1163.96 445.339 1166.08C445.339 1167.58 445.714 1168.96 446.465 1170.33C447.215 1171.71 448.34 1172.58 449.59 1173.21C450.966 1173.83 452.716 1174.08 455.092 1174.08L471.47 1174.08L471.47 1179.21L471.47 1179.08Z" fill="white"/>
<path d="M471.47 1130.45L430.086 1130.45L430.086 1122.2L459.342 1112.45C462.093 1111.57 464.094 1110.82 465.469 1110.45C463.969 1109.95 461.718 1109.19 458.842 1108.19L430.086 1098.32L430.086 1090.94L471.47 1090.94L471.47 1096.19L436.838 1096.19L471.47 1108.19L471.47 1113.07L436.212 1125.07L471.47 1125.07L471.47 1130.32L471.47 1130.45Z" fill="white"/>
<path d="M456.467 1084.44C450.966 1084.44 446.84 1082.94 444.089 1079.82C441.839 1077.19 440.713 1074.06 440.713 1070.44C440.713 1066.31 442.089 1062.94 444.714 1060.31C447.465 1057.69 451.091 1056.44 455.842 1056.44C459.718 1056.44 462.718 1057.06 464.969 1058.19C467.219 1059.31 468.845 1061.06 470.095 1063.19C471.345 1065.44 471.97 1067.81 471.97 1070.44C471.97 1074.69 470.595 1078.07 467.969 1080.57C465.344 1083.19 461.343 1084.44 456.342 1084.44L456.467 1084.44ZM456.467 1079.19C460.343 1079.19 463.218 1078.32 465.094 1076.69C466.969 1075.06 467.969 1072.94 467.969 1070.31C467.969 1067.69 466.969 1065.69 465.094 1064.06C463.218 1062.44 460.218 1061.56 456.342 1061.56C452.591 1061.56 449.84 1062.44 447.965 1064.06C446.09 1065.69 445.089 1067.81 445.089 1070.31C445.089 1072.81 446.09 1074.94 447.965 1076.69C449.84 1078.32 452.716 1079.19 456.592 1079.19L456.467 1079.19Z" fill="white"/>
<path d="M471.47 1050.56L441.464 1050.56L441.464 1046.06L445.965 1046.06C443.839 1044.93 442.464 1043.81 441.714 1042.81C441.088 1041.81 440.713 1040.68 440.713 1039.56C440.713 1037.81 441.213 1036.06 442.339 1034.31L447.09 1036.06C446.34 1037.31 445.965 1038.56 445.965 1039.81C445.965 1040.93 446.34 1041.93 446.965 1042.81C447.59 1043.68 448.59 1044.31 449.715 1044.68C451.466 1045.31 453.466 1045.56 455.592 1045.56L471.345 1045.56L471.345 1050.56L471.47 1050.56Z" fill="white"/>
<path d="M435.962 1030.8L430.086 1030.8L430.086 1025.68L435.962 1025.68L435.962 1030.8ZM471.47 1030.8L441.464 1030.8L441.464 1025.68L471.47 1025.68L471.47 1030.8Z" fill="white"/>
<path d="M462.468 1020.3L461.718 1015.3C463.719 1015.05 465.219 1014.3 466.344 1012.93C467.345 1011.68 467.97 1009.8 467.97 1007.55C467.97 1005.3 467.469 1003.55 466.594 1002.42C465.719 1001.3 464.594 1000.8 463.219 1000.8C462.093 1000.8 461.218 1001.3 460.468 1002.3C459.968 1003.05 459.468 1004.67 458.718 1007.55C457.717 1011.3 456.967 1013.8 456.217 1015.3C455.592 1016.8 454.592 1017.8 453.341 1018.55C452.091 1019.3 450.841 1019.68 449.341 1019.68C447.965 1019.68 446.715 1019.3 445.59 1018.8C444.464 1018.18 443.464 1017.3 442.714 1016.3C442.089 1015.55 441.589 1014.43 441.214 1013.05C440.838 1011.68 440.588 1010.18 440.588 1008.68C440.588 1006.3 440.963 1004.3 441.589 1002.55C442.214 1000.8 443.214 999.423 444.339 998.548C445.465 997.673 447.09 997.173 448.965 996.798L449.59 1001.8C448.09 1002.05 446.84 1002.67 445.965 1003.8C445.089 1004.92 444.589 1006.42 444.589 1008.43C444.589 1010.8 444.964 1012.43 445.715 1013.43C446.465 1014.43 447.34 1014.93 448.465 1014.93C449.09 1014.93 449.715 1014.68 450.216 1014.3C450.716 1013.93 451.216 1013.3 451.591 1012.3C451.716 1011.8 452.216 1010.3 452.841 1007.8C453.842 1004.17 454.592 1001.67 455.217 1000.3C455.842 998.923 456.717 997.798 457.842 996.923C458.968 996.173 460.468 995.673 462.218 995.673C463.969 995.673 465.469 996.173 466.969 997.173C468.47 998.173 469.595 999.549 470.47 1001.42C471.345 1003.3 471.72 1005.42 471.72 1007.8C471.72 1011.68 470.845 1014.68 469.345 1016.68C467.72 1018.68 465.344 1020.05 462.093 1020.55L462.468 1020.3Z" fill="white"/>
<path d="M782.75 1325.83L782.75 344.51C782.75 317.718 761.031 296 734.239 296L94.47 296C67.6782 296 45.959 317.718 45.959 344.51L45.959 1325.83C45.959 1352.62 67.6781 1374.34 94.47 1374.34L734.239 1374.34C761.031 1374.34 782.75 1352.62 782.75 1325.83Z" fill="url(#paint1_linear_96_14333)"/>
<path d="M724.113 1124.16L724.113 1297.45C724.113 1309.83 714.111 1319.83 701.733 1319.83L621.34 1319.83C608.962 1319.83 598.96 1309.83 598.96 1297.45L598.96 1124.16C598.96 1111.79 608.962 1101.79 621.34 1101.79L701.733 1101.79C714.111 1101.79 724.113 1111.79 724.113 1124.16Z" fill="white"/>
<path opacity="0.24" d="M44.0836 660.199L44.0836 507.043L783 684.704L783 837.859L44.0836 660.199Z" fill="#F0F5FB"/>
<path opacity="0.24" d="M44.0836 907.622L44.0836 854.236L783 1032.02L783 1085.41L44.0836 907.622Z" fill="#F0F5FB"/>
<path d="M654.347 1155.42L651.597 1164.05C646.845 1162.67 643.22 1160.55 640.969 1157.42C638.594 1154.42 637.468 1150.55 637.468 1145.79C637.468 1140.04 639.469 1135.17 643.47 1131.42C647.471 1127.67 652.847 1125.79 659.723 1125.79C666.975 1125.79 672.726 1127.67 676.727 1131.42C680.728 1135.17 682.729 1140.17 682.729 1146.3C682.729 1151.67 681.103 1156.05 677.977 1159.3C676.102 1161.3 673.476 1162.8 669.976 1163.8L667.85 1155.05C670.101 1154.55 671.976 1153.42 673.226 1151.8C674.602 1150.17 675.227 1148.17 675.227 1145.79C675.227 1142.54 674.102 1139.92 671.726 1137.92C669.351 1135.92 665.6 1134.92 660.348 1134.92C654.847 1134.92 650.846 1135.92 648.471 1137.92C646.095 1139.92 644.97 1142.54 644.97 1145.67C644.97 1148.05 645.72 1150.05 647.221 1151.8C648.721 1153.42 651.096 1154.67 654.222 1155.42L654.347 1155.42Z" fill="#393D6A"/>
<path d="M638.219 1209.68L638.219 1200.06L648.221 1196.18L648.221 1178.68L638.219 1175.05L638.219 1165.67L681.979 1182.68L681.979 1192.05L638.219 1209.56L638.219 1209.68ZM655.473 1193.43L671.726 1187.43L655.473 1181.55L655.473 1193.55L655.473 1193.43Z" fill="#393D6A"/>
<path d="M638.219 1214.56L681.979 1214.56L681.979 1233.19C681.979 1237.94 681.603 1241.31 680.853 1243.44C680.103 1245.56 678.603 1247.19 676.602 1248.57C674.602 1249.82 672.351 1250.44 669.726 1250.44C666.475 1250.44 663.724 1249.44 661.599 1247.57C659.473 1245.69 658.098 1242.81 657.598 1238.94C656.473 1240.81 655.223 1242.44 653.972 1243.69C652.597 1244.94 650.221 1246.57 646.846 1248.69L638.344 1254.07L638.344 1243.44L647.846 1237.06C651.222 1234.81 653.472 1233.19 654.347 1232.44C655.222 1231.69 655.848 1230.69 656.098 1229.81C656.473 1228.81 656.598 1227.44 656.598 1225.31L656.598 1223.56L638.344 1223.56L638.344 1214.68L638.219 1214.56ZM663.474 1223.44L663.474 1229.94C663.474 1234.19 663.599 1236.81 663.974 1237.94C664.35 1238.94 664.975 1239.81 665.85 1240.44C666.725 1241.06 667.85 1241.31 669.101 1241.31C670.601 1241.31 671.726 1240.94 672.726 1240.19C673.602 1239.44 674.227 1238.31 674.477 1236.81C674.477 1236.06 674.602 1233.94 674.602 1230.31L674.602 1223.44L663.474 1223.44Z" fill="#393D6A"/>
<path d="M681.979 1258.82L681.979 1274.95C681.979 1278.57 681.728 1281.32 681.103 1283.32C680.353 1285.95 678.978 1288.07 677.102 1289.95C675.227 1291.7 672.851 1293.2 669.976 1294.08C667.225 1295.08 663.724 1295.58 659.598 1295.58C655.973 1295.58 652.847 1295.08 650.221 1294.2C647.096 1293.08 644.47 1291.58 642.47 1289.45C640.969 1287.95 639.844 1285.82 638.969 1283.2C638.344 1281.2 638.094 1278.57 638.094 1275.32L638.094 1258.69L681.853 1258.69L681.979 1258.82ZM674.602 1267.7L645.595 1267.7L645.595 1274.32C645.595 1276.82 645.72 1278.57 645.97 1279.7C646.346 1281.07 646.971 1282.32 647.846 1283.32C648.721 1284.32 650.096 1285.07 652.097 1285.7C654.097 1286.32 656.723 1286.57 660.099 1286.57C663.474 1286.57 666.1 1286.32 667.85 1285.7C669.601 1285.07 671.101 1284.2 672.101 1283.2C673.102 1282.07 673.852 1280.7 674.102 1279.07C674.352 1277.82 674.477 1275.45 674.477 1271.82L674.477 1267.82L674.602 1267.7Z" fill="#393D6A"/>
<path d="M235.127 907.247C235.127 911.248 233.752 914.373 230.876 916.624C227.5 919.249 221.874 920.625 213.997 920.625C206.12 920.625 200.494 919.249 197.118 916.499C194.243 914.248 192.867 911.123 192.867 907.122C192.867 903.121 194.368 899.87 197.493 897.37C200.619 894.869 206.12 893.619 213.997 893.619C221.874 893.619 227.375 894.995 230.751 897.62C233.627 899.87 235.002 902.996 235.002 906.997L235.127 907.247ZM228.5 907.247C228.5 906.247 228.125 905.372 227.625 904.621C227 903.871 225.875 903.246 224.375 902.871C222.374 902.371 218.873 901.996 213.997 901.996C209.121 901.996 205.87 902.246 203.995 902.746C202.119 903.246 200.994 903.871 200.369 904.621C199.744 905.372 199.494 906.247 199.494 907.122C199.494 907.997 199.869 908.872 200.369 909.747C200.994 910.498 202.119 911.123 203.62 911.498C205.62 911.998 209.121 912.248 213.997 912.248C218.873 912.248 222.124 911.998 223.999 911.498C225.75 910.998 227 910.372 227.625 909.622C228.25 908.872 228.5 907.997 228.5 906.997L228.5 907.247Z" fill="white"/>
<path d="M204.245 925.75L205.12 933.627C203.37 933.877 201.87 934.502 200.869 935.627C199.869 936.752 199.244 938.002 199.244 939.503C199.244 941.128 199.869 942.503 201.244 943.754C202.62 944.879 204.62 945.504 207.371 945.504C209.871 945.504 211.872 944.879 213.122 943.754C214.372 942.629 214.998 941.128 214.998 939.378C214.998 937.127 213.997 935.002 211.997 933.251L212.872 926.875L234.377 931.001L234.377 951.88L227 951.88L227 936.877L219.999 935.627C220.874 937.377 221.374 939.253 221.374 941.003C221.374 944.504 220.124 947.504 217.498 949.88C214.872 952.38 211.622 953.506 207.496 953.506C204.12 953.506 200.994 952.505 198.369 950.505C194.743 947.879 192.868 944.129 192.868 939.253C192.868 935.502 193.868 932.376 195.993 929.876C197.994 927.5 200.744 926 204.245 925.5L204.245 925.75Z" fill="white"/>
<path d="M192.867 971.385L235.627 981.637L235.627 987.638L192.867 977.261L192.867 971.385Z" fill="white"/>
<path d="M200.994 1032.77L193.618 1032.77L193.618 1005.02C196.368 1005.39 198.994 1006.27 201.494 1007.77C203.995 1009.27 207.246 1012.27 211.372 1016.64C214.747 1020.27 216.998 1022.39 218.123 1023.27C219.749 1024.39 221.374 1024.89 222.999 1024.89C224.75 1024.89 226.125 1024.39 227.125 1023.52C228.126 1022.52 228.501 1021.27 228.501 1019.64C228.501 1018.02 228 1016.64 227 1015.77C226 1014.77 224.375 1014.27 221.999 1014.02L222.749 1006.14C227.125 1006.64 230.251 1008.14 232.126 1010.52C234.002 1013.02 235.002 1016.14 235.002 1019.77C235.002 1023.89 233.877 1027.02 231.751 1029.4C229.501 1031.77 226.75 1032.9 223.499 1032.9C221.624 1032.9 219.874 1032.52 218.248 1031.9C216.623 1031.27 214.747 1030.15 212.997 1028.77C211.747 1027.77 209.996 1026.14 207.746 1023.52C205.495 1021.02 203.87 1019.39 203.12 1018.77C202.37 1018.14 201.619 1017.52 200.869 1017.14L200.869 1032.9L200.994 1032.77Z" fill="white"/>
<path d="M235.127 1051.53C235.127 1055.53 233.752 1058.65 230.876 1060.9C227.5 1063.53 221.874 1064.9 213.997 1064.9C206.12 1064.9 200.494 1063.53 197.118 1060.78C194.243 1058.53 192.867 1055.4 192.867 1051.4C192.867 1047.4 194.368 1044.15 197.493 1041.65C200.619 1039.15 206.12 1037.9 213.997 1037.9C221.874 1037.9 227.375 1039.27 230.751 1042.02C233.627 1044.27 235.002 1047.4 235.002 1051.4L235.127 1051.53ZM228.5 1051.53C228.5 1050.53 228.125 1049.78 227.625 1048.9C227 1048.15 225.875 1047.53 224.375 1047.15C222.374 1046.65 218.873 1046.4 213.997 1046.4C209.121 1046.4 205.87 1046.65 203.995 1047.15C202.119 1047.65 200.994 1048.28 200.369 1049.03C199.744 1049.78 199.494 1050.65 199.494 1051.53C199.494 1052.4 199.869 1053.4 200.369 1054.03C200.994 1054.78 202.119 1055.4 203.62 1055.78C205.62 1056.28 209.121 1056.53 213.997 1056.53C218.873 1056.53 222.124 1056.28 223.999 1055.78C225.75 1055.28 227 1054.65 227.625 1053.9C228.25 1053.15 228.5 1052.28 228.5 1051.4L228.5 1051.53Z" fill="white"/>
<path d="M235.002 386.393L235.002 401.646C235.002 405.021 234.752 407.772 234.252 409.522C233.501 411.898 232.251 414.023 230.501 415.774C228.625 417.524 226.375 418.774 223.749 419.774C221.124 420.65 217.873 421.15 213.997 421.15C210.621 421.15 207.621 420.774 205.12 419.899C202.119 418.899 199.744 417.399 197.869 415.523C196.493 414.023 195.368 412.148 194.618 409.647C193.993 407.772 193.743 405.396 193.743 402.271L193.743 386.518L235.127 386.518L235.002 386.393ZM228 394.769L200.619 394.769L200.619 401.021C200.619 403.396 200.619 405.021 200.994 406.021C201.369 407.397 201.87 408.522 202.745 409.397C203.62 410.272 204.87 411.023 206.746 411.523C208.621 412.023 211.121 412.398 214.372 412.398C217.623 412.398 219.998 412.148 221.749 411.523C223.499 411.023 224.75 410.147 225.75 409.147C226.75 408.147 227.375 406.897 227.75 405.271C228 404.146 228.125 401.771 228.125 398.395L228.125 394.644L228 394.769Z" fill="white"/>
<path d="M214.372 433.902L215.623 426.651C218.498 427.526 220.624 428.901 221.999 430.776C223.374 432.777 224.125 435.652 224.125 439.528C224.125 443.029 223.75 445.654 222.874 447.405C221.999 449.155 220.999 450.405 219.749 451.03C218.498 451.781 216.123 452.031 212.622 452.031L203.37 452.031C200.744 452.031 198.744 452.031 197.493 452.281C196.243 452.531 194.868 453.031 193.493 453.656L193.493 445.779C193.493 445.779 194.743 445.279 195.868 445.029C196.368 445.029 196.618 444.779 196.868 444.779C195.493 443.404 194.618 442.029 193.868 440.403C193.243 438.903 192.867 437.278 192.867 435.527C192.867 432.402 193.743 430.026 195.368 428.276C196.993 426.526 199.119 425.65 201.745 425.65C203.37 425.65 204.995 426.025 206.246 426.901C207.621 427.651 208.621 428.776 209.246 430.276C209.996 431.777 210.622 433.902 211.122 436.528C211.872 440.278 212.497 442.779 213.122 444.279L213.872 444.279C215.373 444.279 216.498 443.904 217.123 443.154C217.748 442.404 218.123 441.028 218.123 438.903C218.123 437.528 217.873 436.402 217.248 435.527C216.748 434.777 215.748 434.152 214.372 433.652L214.372 433.902ZM207.996 444.404C207.621 443.404 207.246 441.779 206.746 439.653C206.245 437.403 205.87 436.027 205.37 435.402C204.62 434.402 203.745 433.902 202.62 433.902C201.494 433.902 200.494 434.277 199.744 435.152C198.994 436.027 198.494 437.028 198.494 438.278C198.494 439.653 198.994 441.028 199.869 442.404C200.619 443.404 201.494 443.904 202.495 444.279C203.12 444.529 204.495 444.529 206.371 444.529L207.996 444.529L207.996 444.404Z" fill="white"/>
<path d="M223.499 473.785L217.123 473.785L217.123 468.409L205.12 468.409C202.62 468.409 201.244 468.408 200.869 468.533C200.494 468.533 200.119 468.909 199.869 469.284C199.619 469.659 199.494 470.034 199.494 470.659C199.494 471.409 199.744 472.409 200.244 473.785L194.118 474.535C193.368 472.659 192.992 470.534 192.992 468.284C192.992 466.783 193.243 465.533 193.743 464.408C194.243 463.282 194.868 462.407 195.618 461.907C196.368 461.407 197.369 461.032 198.744 460.782C199.619 460.657 201.494 460.532 204.37 460.532L217.373 460.532L217.373 456.906L223.749 456.906L223.749 460.532L229.751 460.532L234.377 468.409L223.749 468.409L223.749 473.785L223.499 473.785Z" fill="white"/>
<path d="M203.12 497.039L201.745 504.916C198.869 503.916 196.618 502.29 195.118 500.165C193.618 497.914 192.868 495.164 192.868 491.913C192.868 486.662 194.618 482.911 197.994 480.286C200.744 478.285 204.12 477.285 208.371 477.285C213.372 477.285 217.248 478.536 219.999 481.161C222.749 483.787 224.25 487.037 224.25 491.038C224.25 495.539 222.749 499.04 219.874 501.54C216.873 504.166 212.372 505.291 206.371 505.166L206.371 485.287C203.995 485.287 202.245 486.037 200.869 487.162C199.494 488.412 198.869 489.913 198.869 491.788C198.869 493.038 199.244 494.039 199.869 494.914C200.494 495.789 201.62 496.414 203.12 496.914L203.12 497.039ZM211.122 497.414C213.372 497.414 215.123 496.789 216.373 495.664C217.623 494.539 218.123 493.163 218.123 491.538C218.123 489.788 217.498 488.412 216.248 487.287C214.997 486.162 213.247 485.662 211.122 485.662L211.122 497.539L211.122 497.414Z" fill="white"/>
<path d="M638.217 386.518L679.602 386.518L679.602 402.021C679.602 405.146 679.226 407.772 678.351 409.647C677.476 411.523 676.226 413.023 674.475 414.148C672.725 415.273 670.85 415.774 668.974 415.774C667.224 415.774 665.598 415.273 663.973 414.273C662.348 413.273 661.097 411.898 660.222 409.897C659.472 412.398 658.222 414.273 656.471 415.648C654.721 417.024 652.595 417.649 650.22 417.649C648.22 417.649 646.469 417.274 644.844 416.399C643.218 415.523 641.843 414.523 640.968 413.398C640.093 412.148 639.342 410.647 638.967 408.897C638.467 407.022 638.217 404.896 638.217 402.146L638.217 386.393L638.217 386.518ZM662.223 391.894L662.223 400.77C662.223 403.146 662.348 404.896 662.723 406.021C663.098 407.397 663.848 408.522 664.723 409.147C665.724 409.897 666.849 410.272 668.349 410.272C669.724 410.272 670.975 409.897 671.975 409.272C672.975 408.647 673.725 407.647 674.1 406.397C674.475 405.146 674.725 403.021 674.725 400.145L674.725 391.894L662.223 391.894ZM643.093 391.894L643.093 402.146C643.093 403.896 643.093 405.146 643.343 405.897C643.593 407.147 643.969 408.272 644.469 409.022C644.969 409.897 645.844 410.522 646.719 411.148C647.719 411.648 648.845 411.898 650.22 411.898C651.72 411.898 653.096 411.523 654.221 410.773C655.346 410.022 656.096 408.897 656.596 407.522C657.097 406.147 657.347 404.021 657.347 401.396L657.347 391.894L643.093 391.894Z" fill="white"/>
<path d="M641.843 443.78C640.218 441.904 639.092 440.154 638.467 438.403C637.842 436.653 637.467 434.778 637.467 432.777C637.467 429.527 638.217 426.901 639.843 425.151C641.468 423.401 643.468 422.525 645.969 422.525C647.469 422.525 648.845 422.9 649.97 423.526C651.22 424.151 652.22 425.026 652.845 426.151C653.596 427.276 654.096 428.527 654.471 429.777C654.721 430.777 654.971 432.277 655.221 434.278C655.721 438.404 656.346 441.404 656.971 443.28C657.722 443.28 658.097 443.28 658.347 443.28C660.472 443.28 661.848 442.779 662.723 441.779C663.848 440.529 664.473 438.529 664.473 436.028C664.473 433.653 664.098 431.902 663.223 430.777C662.348 429.652 660.847 428.777 658.847 428.277L659.472 423.276C661.597 423.776 663.348 424.401 664.598 425.526C665.848 426.526 666.974 428.026 667.599 430.027C668.349 432.027 668.724 434.278 668.724 436.778C668.724 439.279 668.474 441.404 667.849 443.029C667.224 444.655 666.474 445.78 665.598 446.53C664.723 447.28 663.598 447.78 662.098 448.156C661.222 448.281 659.722 448.405 657.472 448.405L650.72 448.405C645.969 448.405 642.968 448.405 641.718 448.781C640.468 449.031 639.342 449.406 638.092 450.031L638.092 444.78C639.092 444.28 640.343 443.905 641.843 443.78ZM653.221 443.405C652.47 441.529 651.845 438.779 651.345 435.153C651.095 433.027 650.72 431.527 650.345 430.777C649.97 429.902 649.47 429.277 648.72 428.777C647.969 428.277 647.219 428.026 646.344 428.026C644.969 428.026 643.843 428.527 642.968 429.527C642.093 430.527 641.593 432.027 641.593 434.028C641.593 436.028 641.968 437.778 642.843 439.279C643.718 440.779 644.844 441.904 646.344 442.654C647.469 443.155 649.22 443.529 651.47 443.529L653.346 443.529L653.221 443.405Z" fill="white"/>
<path d="M638.217 455.906L668.224 455.906L668.224 460.532L663.973 460.532C667.224 462.783 668.974 465.908 668.974 470.034C668.974 471.784 668.599 473.535 667.974 475.035C667.349 476.535 666.474 477.661 665.473 478.411C664.473 479.161 663.223 479.661 661.722 480.036C660.847 480.161 659.097 480.286 656.721 480.286L638.342 480.286L638.342 475.16L656.596 475.16C658.722 475.16 660.222 474.91 661.222 474.535C662.223 474.16 663.098 473.41 663.723 472.409C664.348 471.409 664.598 470.284 664.598 468.909C664.598 466.783 663.848 464.908 662.598 463.283C661.222 461.782 658.597 460.907 654.846 460.907L638.467 460.907L638.467 455.781L638.217 455.906Z" fill="white"/>
<path d="M638.217 487.537L679.602 487.537L679.602 492.538L655.971 492.538L668.224 504.541L668.224 511.167L657.097 499.665L638.217 512.292L638.217 506.041L653.596 496.164L650.22 492.538L638.342 492.538L638.342 487.537L638.217 487.537Z" fill="white"/>
<path d="M488.684 395.644C488.684 400.27 487.058 403.77 483.808 406.396C479.932 409.522 473.555 411.022 464.553 411.022C455.551 411.022 449.175 409.522 445.299 406.396C442.048 403.895 440.423 400.27 440.423 395.644C440.423 391.018 442.173 387.392 445.674 384.517C449.175 381.766 455.551 380.266 464.553 380.266C473.555 380.266 479.807 381.766 483.808 384.892C487.058 387.517 488.684 391.018 488.684 395.644ZM481.182 395.644C481.182 394.519 480.807 393.518 480.182 392.643C479.431 391.768 478.181 391.143 476.431 390.643C474.055 390.018 470.179 389.642 464.553 389.642C458.927 389.642 455.176 389.893 453.176 390.518C451.175 391.143 449.675 391.768 449.05 392.643C448.3 393.518 448.049 394.518 448.049 395.519C448.049 396.519 448.425 397.644 449.05 398.394C449.8 399.269 451.05 399.895 452.801 400.395C455.176 401.02 459.052 401.27 464.553 401.27C470.054 401.27 473.93 401.02 475.931 400.395C478.056 399.895 479.431 399.144 480.057 398.269C480.807 397.394 481.057 396.394 481.057 395.394L481.182 395.644Z" fill="white"/>
<path d="M488.684 436.152C488.684 440.777 487.058 444.278 483.808 446.904C479.932 450.029 473.555 451.53 464.553 451.53C455.551 451.53 449.175 450.029 445.299 446.904C442.048 444.278 440.423 440.777 440.423 436.152C440.423 431.526 442.173 427.775 445.674 425.024C449.175 422.274 455.551 420.773 464.553 420.773C473.555 420.773 479.807 422.274 483.808 425.399C487.058 428.025 488.684 431.526 488.684 436.152ZM481.182 436.152C481.182 435.026 480.807 434.026 480.182 433.276C479.431 432.401 478.181 431.776 476.431 431.276C474.055 430.65 470.179 430.275 464.553 430.275C458.927 430.275 455.176 430.525 453.176 431.151C451.05 431.651 449.675 432.401 449.05 433.276C448.3 434.151 448.049 435.151 448.049 436.152C448.049 437.152 448.425 438.277 449.05 439.027C449.8 439.902 451.05 440.527 452.801 441.028C455.176 441.653 459.052 442.028 464.553 442.028C470.054 442.028 473.93 441.778 475.931 441.152C478.056 440.527 479.431 439.902 480.057 439.027C480.807 438.152 481.057 437.152 481.057 436.152L481.182 436.152Z" fill="white"/>
<path d="M488.684 476.659C488.684 481.285 487.058 484.786 483.808 487.412C479.932 490.537 473.555 492.037 464.553 492.037C455.551 492.037 449.175 490.537 445.299 487.412C442.048 484.786 440.423 481.285 440.423 476.659C440.423 472.034 442.173 468.408 445.674 465.532C449.175 462.657 455.551 461.281 464.553 461.281C473.555 461.281 479.807 462.782 483.808 465.907C487.058 468.408 488.684 472.034 488.684 476.659ZM481.182 476.659C481.182 475.534 480.807 474.659 480.182 473.784C479.431 472.909 478.181 472.284 476.431 471.783C474.055 471.158 470.179 470.908 464.553 470.908C458.927 470.908 455.176 471.158 453.176 471.783C451.05 472.284 449.675 473.034 449.05 473.909C448.3 474.784 448.049 475.659 448.049 476.784C448.049 477.91 448.425 478.91 449.05 479.785C449.8 480.66 451.05 481.285 452.801 481.785C455.176 482.41 459.052 482.786 464.553 482.786C470.054 482.786 473.93 482.536 475.931 481.91C477.931 481.285 479.431 480.66 480.057 479.785C480.807 478.91 481.057 477.91 481.057 476.909L481.182 476.659Z" fill="white"/>
<path d="M488.684 517.167C488.684 521.793 487.058 525.294 483.808 527.919C479.932 531.045 473.555 532.545 464.553 532.545C455.551 532.545 449.175 531.045 445.299 527.919C442.048 525.419 440.423 521.793 440.423 517.167C440.423 512.541 442.173 508.79 445.674 506.04C449.175 503.164 455.551 501.789 464.553 501.789C473.555 501.789 479.807 503.289 483.808 506.415C487.058 508.915 488.684 512.541 488.684 517.167ZM481.182 517.167C481.182 516.042 480.807 515.042 480.182 514.167C479.431 513.291 478.181 512.666 476.431 512.166C474.055 511.541 470.179 511.166 464.553 511.166C458.927 511.166 455.176 511.416 453.176 512.041C451.05 512.666 449.675 513.291 449.05 514.167C448.3 515.042 448.049 516.042 448.049 517.042C448.049 518.042 448.425 519.167 449.05 519.918C449.8 520.793 451.05 521.418 452.801 521.918C455.176 522.543 459.052 522.793 464.553 522.793C470.054 522.793 473.93 522.543 475.931 521.918C478.056 521.418 479.431 520.668 480.057 519.793C480.807 518.918 481.057 518.042 481.057 516.917L481.182 517.167Z" fill="white"/>
<path d="M488.684 578.806C488.684 583.432 487.058 586.933 483.808 589.558C479.932 592.684 473.555 594.184 464.553 594.184C455.551 594.184 449.175 592.684 445.299 589.558C442.048 586.933 440.423 583.432 440.423 578.806C440.423 574.18 442.173 570.554 445.674 567.679C449.175 564.803 455.551 563.428 464.553 563.428C473.555 563.428 479.807 564.928 483.808 568.054C487.058 570.679 488.684 574.18 488.684 578.806ZM481.182 578.806C481.182 577.681 480.807 576.68 480.182 575.93C479.431 575.055 478.181 574.43 476.431 573.93C474.055 573.305 470.179 572.93 464.553 572.93C458.927 572.93 455.176 573.18 453.176 573.805C451.05 574.305 449.675 575.055 449.05 575.93C448.3 576.805 448.049 577.806 448.049 578.806C448.049 579.806 448.425 580.931 449.05 581.806C449.8 582.682 451.05 583.307 452.801 583.807C455.176 584.432 459.052 584.682 464.553 584.682C470.054 584.682 473.93 584.432 475.931 583.807C477.931 583.182 479.431 582.557 480.057 581.681C480.807 580.806 481.057 579.806 481.057 578.806L481.182 578.806Z" fill="white"/>
<path d="M488.684 619.314C488.684 623.939 487.058 627.44 483.808 630.066C479.932 633.191 473.555 634.692 464.553 634.692C455.551 634.692 449.175 633.191 445.299 630.066C442.048 627.44 440.423 623.939 440.423 619.314C440.423 614.688 442.173 611.062 445.674 608.186C449.175 605.311 455.551 603.936 464.553 603.936C473.555 603.936 479.807 605.436 483.808 608.561C487.058 611.187 488.684 614.688 488.684 619.314ZM481.182 619.314C481.182 618.188 480.807 617.188 480.182 616.438C479.431 615.563 478.181 614.938 476.431 614.438C474.055 613.812 470.179 613.437 464.553 613.437C458.927 613.437 455.176 613.688 453.176 614.313C451.05 614.813 449.675 615.563 449.05 616.438C448.3 617.313 448.049 618.313 448.049 619.314C448.049 620.314 448.425 621.439 449.05 622.314C449.8 623.189 451.05 623.815 452.801 624.315C455.176 624.94 459.052 625.19 464.553 625.19C470.054 625.19 473.93 624.94 475.931 624.315C478.056 623.815 479.431 623.064 480.057 622.189C480.807 621.314 481.057 620.314 481.057 619.314L481.182 619.314Z" fill="white"/>
<path d="M488.684 659.821C488.684 664.447 487.058 667.948 483.808 670.574C479.932 673.699 473.555 675.199 464.553 675.199C455.551 675.199 449.175 673.574 445.299 670.574C442.048 668.073 440.423 664.447 440.423 659.946C440.423 655.445 442.173 651.57 445.674 648.819C449.175 646.069 455.551 644.568 464.553 644.568C473.555 644.568 479.807 646.069 483.808 649.194C487.058 651.695 488.684 655.32 488.684 659.946L488.684 659.821ZM481.182 659.821C481.182 658.696 480.807 657.696 480.182 656.946C479.431 656.071 478.181 655.446 476.431 654.945C474.055 654.32 470.179 654.07 464.553 654.07C458.927 654.07 455.176 654.32 453.176 654.945C451.05 655.571 449.675 656.196 449.05 657.071C448.3 657.946 448.049 658.946 448.049 659.946C448.049 660.947 448.425 662.072 449.05 662.822C449.8 663.697 451.05 664.322 452.801 664.822C455.176 665.447 459.052 665.823 464.553 665.823C470.054 665.823 473.93 665.573 475.931 664.947C478.056 664.447 479.431 663.697 480.057 662.822C480.807 661.947 481.057 660.947 481.057 659.946L481.182 659.821Z" fill="white"/>
<path d="M488.684 700.329C488.684 704.955 487.058 708.456 483.808 711.082C479.932 714.207 473.555 715.707 464.553 715.707C455.551 715.707 449.175 714.207 445.299 711.082C442.048 708.456 440.423 704.955 440.423 700.329C440.423 695.703 442.173 692.078 445.674 689.202C449.175 686.327 455.551 684.951 464.553 684.951C473.555 684.951 479.807 686.452 483.808 689.577C487.058 692.078 488.684 695.703 488.684 700.329ZM481.182 700.329C481.182 699.204 480.807 698.204 480.182 697.454C479.431 696.578 478.181 695.954 476.431 695.453C474.055 694.828 470.179 694.578 464.553 694.578C458.927 694.578 455.176 694.828 453.176 695.453C451.05 695.954 449.675 696.704 449.05 697.579C448.3 698.454 448.049 699.454 448.049 700.454C448.049 701.455 448.425 702.58 449.05 703.455C449.8 704.33 451.05 704.955 452.801 705.455C455.176 706.08 459.052 706.455 464.553 706.455C470.054 706.455 473.93 706.206 475.931 705.58C477.931 704.955 479.431 704.33 480.057 703.455C480.807 702.58 481.057 701.579 481.057 700.579L481.182 700.329Z" fill="white"/>
<path d="M488.684 761.968C488.684 766.594 487.058 770.094 483.808 772.72C479.932 775.846 473.555 777.346 464.553 777.346C455.551 777.346 449.175 775.846 445.299 772.72C442.048 770.094 440.423 766.594 440.423 761.968C440.423 757.342 442.173 753.591 445.674 750.841C449.175 747.965 455.551 746.59 464.553 746.59C473.555 746.59 479.807 748.09 483.808 751.216C487.058 753.716 488.684 757.342 488.684 761.968ZM481.182 761.968C481.182 760.843 480.807 759.843 480.182 758.967C479.431 758.092 478.181 757.467 476.431 756.967C474.055 756.342 470.179 756.092 464.553 756.092C458.927 756.092 455.176 756.342 453.176 756.967C451.05 757.467 449.675 758.217 449.05 759.092C448.3 759.968 448.049 760.968 448.049 761.968C448.049 762.968 448.425 763.968 449.05 764.843C449.8 765.719 451.05 766.344 452.801 766.844C455.176 767.469 459.052 767.844 464.553 767.844C470.054 767.844 473.93 767.594 475.931 766.969C478.056 766.469 479.431 765.719 480.057 764.843C480.807 763.968 481.057 762.968 481.057 761.968L481.182 761.968Z" fill="white"/>
<path d="M488.684 802.476C488.684 807.102 487.058 810.602 483.808 813.228C479.932 816.353 473.555 817.854 464.553 817.854C455.551 817.854 449.175 816.353 445.299 813.228C442.048 810.602 440.423 807.102 440.423 802.476C440.423 797.85 442.173 794.224 445.674 791.348C449.175 788.598 455.551 787.098 464.553 787.098C473.555 787.098 479.807 788.598 483.808 791.724C487.058 794.224 488.684 797.85 488.684 802.476ZM481.182 802.476C481.182 801.35 480.807 800.35 480.182 799.6C479.431 798.725 478.181 798.1 476.431 797.6C474.055 796.975 470.179 796.724 464.553 796.724C458.927 796.724 455.176 796.975 453.176 797.6C451.05 798.225 449.675 798.85 449.05 799.725C448.3 800.6 448.049 801.6 448.049 802.601C448.049 803.601 448.425 804.726 449.05 805.476C449.8 806.351 451.05 806.976 452.801 807.477C455.176 808.102 459.052 808.477 464.553 808.477C470.054 808.477 473.93 808.227 475.931 807.602C478.056 807.102 479.431 806.351 480.057 805.476C480.807 804.601 481.057 803.726 481.057 802.601L481.182 802.476Z" fill="white"/>
<path d="M488.684 842.983C488.684 847.609 487.058 851.11 483.808 853.736C479.932 856.861 473.555 858.362 464.553 858.362C455.551 858.362 449.175 856.861 445.299 853.736C442.048 851.235 440.423 847.609 440.423 842.983C440.423 838.358 442.173 834.732 445.674 831.856C449.175 829.106 455.551 827.605 464.553 827.605C473.555 827.605 479.807 829.106 483.808 832.231C487.058 834.732 488.684 838.358 488.684 842.983ZM481.182 842.983C481.182 841.858 480.807 840.983 480.182 840.108C479.431 839.233 478.181 838.608 476.431 838.108C474.055 837.482 470.179 837.107 464.553 837.107C458.927 837.107 455.176 837.357 453.176 837.983C451.05 838.483 449.675 839.233 449.05 840.108C448.3 840.983 448.049 841.983 448.049 842.983C448.049 843.984 448.425 845.109 449.05 845.984C449.8 846.859 451.05 847.485 452.801 847.985C455.176 848.61 459.052 848.86 464.553 848.86C470.054 848.86 473.93 848.61 475.931 847.985C478.056 847.485 479.431 846.734 480.057 845.859C480.807 844.984 481.057 844.109 481.057 842.983L481.182 842.983Z" fill="white"/>
<path d="M488.684 883.491C488.684 888.117 487.058 891.618 483.808 894.243C479.932 897.369 473.555 898.869 464.553 898.869C455.551 898.869 449.175 897.369 445.299 894.243C442.048 891.743 440.423 888.117 440.423 883.491C440.423 878.865 442.173 875.24 445.674 872.364C449.175 869.489 455.551 868.113 464.553 868.113C473.555 868.113 479.807 869.614 483.808 872.739C487.058 875.365 488.684 878.865 488.684 883.491ZM481.182 883.491C481.182 882.366 480.807 881.366 480.182 880.616C479.431 879.741 478.181 879.115 476.431 878.615C474.055 877.99 470.179 877.615 464.553 877.615C458.927 877.615 455.176 877.865 453.176 878.49C451.175 879.116 449.675 879.741 449.05 880.616C448.3 881.491 448.049 882.491 448.049 883.491C448.049 884.492 448.425 885.617 449.05 886.492C449.8 887.367 451.05 887.992 452.801 888.492C455.176 889.117 459.052 889.367 464.553 889.367C470.054 889.367 473.93 889.117 475.931 888.492C478.056 887.867 479.431 887.242 480.057 886.367C480.807 885.492 481.057 884.492 481.057 883.491L481.182 883.491Z" fill="white"/>
<path d="M488.684 945.128C488.684 949.754 487.058 953.255 483.808 955.88C479.932 959.006 473.555 960.506 464.553 960.506C455.551 960.506 449.175 959.006 445.299 955.88C442.048 953.38 440.423 949.754 440.423 945.253C440.423 940.752 442.173 936.876 445.674 934.126C449.175 931.375 455.551 929.875 464.553 929.875C473.555 929.875 479.807 931.375 483.808 934.501C487.058 937.126 488.684 940.627 488.684 945.253L488.684 945.128ZM481.182 945.128C481.182 944.003 480.807 943.003 480.182 942.127C479.431 941.252 478.181 940.627 476.431 940.127C474.055 939.502 470.179 939.127 464.553 939.127C458.927 939.127 455.176 939.377 453.176 940.002C451.05 940.502 449.675 941.252 449.05 942.127C448.3 943.003 448.049 944.003 448.049 945.003C448.049 946.003 448.425 947.003 449.05 947.878C449.8 948.754 451.05 949.379 452.801 949.879C455.176 950.504 459.052 950.879 464.553 950.879C470.054 950.879 473.93 950.629 475.931 950.004C478.056 949.379 479.431 948.754 480.057 947.878C480.807 947.003 481.057 946.003 481.057 945.003L481.182 945.128Z" fill="white"/>
<path d="M488.684 985.636C488.684 990.262 487.058 993.762 483.808 996.388C479.932 999.514 473.555 1001.01 464.553 1001.01C455.551 1001.01 449.175 999.514 445.299 996.388C442.048 993.762 440.423 990.262 440.423 985.636C440.423 981.01 442.173 977.384 445.674 974.509C449.175 971.633 455.551 970.258 464.553 970.258C473.555 970.258 479.807 971.758 483.808 974.884C487.058 977.384 488.684 981.01 488.684 985.636ZM481.182 985.636C481.182 984.511 480.807 983.635 480.182 982.76C479.431 981.885 478.181 981.26 476.431 980.76C474.055 980.135 470.179 979.885 464.553 979.885C458.927 979.885 455.176 980.135 453.176 980.76C451.05 981.26 449.675 982.01 449.05 982.885C448.3 983.76 448.049 984.761 448.049 985.761C448.049 986.761 448.425 987.886 449.05 988.761C449.8 989.637 451.05 990.262 452.801 990.762C455.176 991.387 459.052 991.637 464.553 991.637C470.054 991.637 473.93 991.387 475.931 990.762C478.056 990.137 479.431 989.512 480.057 988.637C480.807 987.761 481.057 986.761 481.057 985.761L481.182 985.636Z" fill="white"/>
<path d="M488.684 1026.15C488.684 1030.77 487.058 1034.27 483.808 1036.9C479.932 1040.02 473.555 1041.52 464.553 1041.52C455.551 1041.52 449.175 1040.02 445.299 1036.9C442.048 1034.4 440.423 1030.77 440.423 1026.15C440.423 1021.52 442.173 1017.89 445.674 1015.02C449.175 1012.14 455.551 1010.77 464.553 1010.77C473.555 1010.77 479.807 1012.27 483.808 1015.39C487.058 1017.89 488.684 1021.52 488.684 1026.15ZM481.182 1026.15C481.182 1025.02 480.807 1024.02 480.182 1023.27C479.431 1022.39 478.181 1021.77 476.431 1021.27C474.055 1020.64 470.179 1020.27 464.553 1020.27C458.927 1020.27 455.176 1020.52 453.176 1021.14C451.05 1021.77 449.675 1022.39 449.05 1023.27C448.3 1024.15 448.049 1025.15 448.049 1026.15C448.049 1027.15 448.425 1028.27 449.05 1029.02C449.8 1029.9 451.05 1030.52 452.801 1031.02C455.176 1031.65 459.052 1031.9 464.553 1031.9C470.054 1031.9 473.93 1031.65 475.931 1031.02C478.056 1030.52 479.431 1029.77 480.057 1028.9C480.807 1028.02 481.057 1027.15 481.057 1026.02L481.182 1026.15Z" fill="white"/>
<path d="M488.684 1066.65C488.684 1071.28 487.058 1074.78 483.808 1077.41C479.932 1080.53 473.555 1082.03 464.553 1082.03C455.551 1082.03 449.175 1080.53 445.299 1077.41C442.048 1074.78 440.423 1071.28 440.423 1066.65C440.423 1062.03 442.173 1058.4 445.674 1055.53C449.175 1052.78 455.551 1051.28 464.553 1051.28C473.555 1051.28 479.807 1052.78 483.808 1055.9C487.058 1058.4 488.684 1062.03 488.684 1066.65ZM481.182 1066.65C481.182 1065.53 480.807 1064.53 480.182 1063.78C479.431 1062.9 478.181 1062.28 476.431 1061.78C474.055 1061.15 470.179 1060.78 464.553 1060.78C458.927 1060.78 455.176 1061.03 453.176 1061.65C451.05 1062.28 449.675 1062.9 449.05 1063.78C448.3 1064.65 448.049 1065.53 448.049 1066.65C448.049 1067.78 448.425 1068.78 449.05 1069.53C449.8 1070.4 451.05 1071.03 452.801 1071.53C455.176 1072.15 459.052 1072.53 464.553 1072.53C470.054 1072.53 473.93 1072.28 475.931 1071.65C478.056 1071.15 479.431 1070.4 480.057 1069.53C480.807 1068.65 481.057 1067.65 481.057 1066.65L481.182 1066.65Z" fill="white"/>
<path d="M356.28 386.518L397.664 386.518L397.664 394.769L368.408 404.521C365.657 405.396 363.656 406.021 362.281 406.522C363.781 407.022 366.032 407.772 368.908 408.772L397.664 418.649L397.664 426.026L356.28 426.026L356.28 420.774L390.912 420.774L356.28 408.772L356.28 403.896L391.538 391.894L356.28 391.894L356.28 386.643L356.28 386.518Z" fill="white"/>
<path d="M391.788 434.152L397.664 434.152L397.664 439.278L391.788 439.278L391.788 434.152ZM356.28 434.152L386.286 434.152L386.286 439.278L356.28 439.278L356.28 434.152Z" fill="white"/>
<path d="M360.906 457.657L356.405 458.407C356.155 457.032 355.905 455.657 355.905 454.531C355.905 452.781 356.155 451.281 356.78 450.281C357.405 449.28 358.155 448.53 359.031 448.155C360.031 447.78 362.031 447.53 365.032 447.53L382.286 447.53L382.286 443.779L386.287 443.779L386.287 447.53L393.663 447.53L396.664 452.531L386.162 452.531L386.162 457.657L382.161 457.657L382.161 452.531L364.657 452.531C363.157 452.531 362.281 452.531 361.906 452.781C361.531 452.906 361.156 453.281 360.906 453.656C360.656 454.031 360.531 454.656 360.531 455.407C360.531 455.907 360.531 456.782 360.781 457.657L360.906 457.657Z" fill="white"/>
<path d="M367.282 481.288L366.657 486.288C363.156 485.788 360.531 484.288 358.53 482.163C356.53 479.912 355.655 477.162 355.655 473.911C355.655 469.785 357.03 466.534 359.655 464.034C362.281 461.533 366.157 460.283 371.158 460.283C374.409 460.283 377.159 460.783 379.66 461.909C382.036 463.034 383.911 464.659 385.161 466.785C386.412 469.035 387.037 471.411 387.037 473.911C387.037 477.162 386.161 479.787 384.536 481.913C382.911 483.913 380.535 485.288 377.535 485.913L376.784 481.037C378.785 480.537 380.285 479.662 381.285 478.537C382.286 477.287 382.786 475.911 382.786 474.161C382.786 471.66 381.785 469.535 380.035 467.91C378.16 466.284 375.284 465.534 371.283 465.534C367.282 465.534 364.407 466.284 362.531 467.785C360.656 469.285 359.781 471.41 359.781 473.786C359.781 475.786 360.406 477.412 361.656 478.787C362.906 480.162 364.782 480.912 367.282 481.288Z" fill="white"/>
<path d="M356.28 490.914L397.664 490.914L397.664 496.04L382.786 496.04C385.536 498.416 386.912 501.416 386.912 505.042C386.912 507.292 386.412 509.168 385.536 510.793C384.661 512.418 383.411 513.669 381.91 514.294C380.41 515.044 378.16 515.419 375.159 515.419L356.155 515.419L356.155 510.293L375.159 510.293C377.66 510.293 379.535 509.793 380.66 508.668C381.785 507.543 382.411 506.042 382.411 503.917C382.411 502.416 382.036 501.041 381.285 499.666C380.535 498.291 379.41 497.416 378.16 496.79C376.784 496.165 375.034 495.915 372.658 495.915L356.28 495.915L356.28 490.789L356.28 490.914Z" fill="white"/>
<path d="M356.28 539.549L397.664 539.549L397.664 547.8L368.408 557.552C365.657 558.428 363.656 559.178 362.281 559.553C363.781 560.053 366.032 560.803 368.908 561.803L397.664 571.68L397.664 579.057L356.28 579.057L356.28 573.806L390.912 573.806L356.28 561.803L356.28 556.927L391.538 544.925L356.28 544.925L356.28 539.674L356.28 539.549Z" fill="white"/>
<path d="M371.283 585.557C376.784 585.557 380.91 587.057 383.661 590.183C385.911 592.808 387.037 595.934 387.037 599.56C387.037 603.685 385.661 607.061 383.036 609.687C380.285 612.312 376.659 613.562 371.908 613.562C368.032 613.562 365.032 612.937 362.781 611.812C360.531 610.687 358.905 608.936 357.655 606.811C356.405 604.56 355.78 602.185 355.78 599.56C355.78 595.309 357.155 591.933 359.781 589.432C362.406 586.807 366.407 585.557 371.408 585.557L371.283 585.557ZM371.283 590.808C367.407 590.808 364.532 591.683 362.656 593.308C360.781 594.934 359.781 597.059 359.781 599.685C359.781 602.31 360.781 604.31 362.656 605.936C364.532 607.561 367.532 608.436 371.408 608.436C375.159 608.436 377.91 607.561 379.785 605.936C381.66 604.31 382.661 602.185 382.661 599.685C382.661 597.184 381.66 595.059 379.785 593.308C377.91 591.683 375.034 590.808 371.158 590.808L371.283 590.808Z" fill="white"/>
<path d="M356.28 619.439L386.286 619.439L386.286 623.94L381.785 623.94C383.911 625.066 385.286 626.191 386.036 627.191C386.662 628.191 387.037 629.316 387.037 630.442C387.037 632.192 386.537 633.942 385.411 635.693L380.66 633.942C381.41 632.692 381.785 631.442 381.785 630.192C381.785 629.066 381.41 628.066 380.785 627.191C380.16 626.316 379.16 625.691 378.035 625.316C376.284 624.691 374.284 624.44 372.158 624.44L356.405 624.44L356.405 619.439L356.28 619.439Z" fill="white"/>
<path d="M391.788 639.193L397.664 639.193L397.664 644.319L391.788 644.319L391.788 639.193ZM356.28 639.193L386.286 639.193L386.286 644.319L356.28 644.319L356.28 639.193Z" fill="white"/>
<path d="M365.282 649.695L366.032 654.696C364.031 654.946 362.531 655.697 361.406 657.072C360.405 658.322 359.78 660.198 359.78 662.448C359.78 664.698 360.281 666.449 361.156 667.574C362.031 668.699 363.156 669.199 364.531 669.199C365.657 669.199 366.532 668.699 367.282 667.699C367.782 666.949 368.282 665.324 369.032 662.448C370.033 658.697 370.783 656.197 371.533 654.696C372.158 653.196 373.158 652.196 374.409 651.446C375.659 650.696 376.909 650.321 378.409 650.321C379.785 650.321 381.035 650.696 382.16 651.196C383.286 651.821 384.286 652.696 385.036 653.696C385.661 654.446 386.161 655.572 386.536 656.947C386.912 658.322 387.162 659.822 387.162 661.323C387.162 663.698 386.787 665.699 386.161 667.449C385.536 669.199 384.536 670.575 383.411 671.45C382.285 672.325 380.66 672.825 378.785 673.2L378.16 668.199C379.66 667.949 380.91 667.324 381.785 666.199C382.661 665.073 383.161 663.573 383.161 661.573C383.161 659.197 382.786 657.572 382.035 656.572C381.285 655.572 380.41 655.071 379.285 655.071C378.66 655.071 378.035 655.321 377.534 655.697C377.034 656.072 376.534 656.697 376.159 657.697C376.034 658.197 375.534 659.697 374.909 662.198C373.908 665.824 373.158 668.324 372.533 669.699C371.908 671.075 371.033 672.2 369.908 673.075C368.782 673.825 367.282 674.325 365.532 674.325C363.781 674.325 362.281 673.825 360.781 672.825C359.28 671.825 358.155 670.449 357.28 668.574C356.405 666.699 356.03 664.573 356.03 662.198C356.03 658.322 356.905 655.321 358.405 653.321C360.03 651.321 362.406 649.945 365.657 649.445L365.282 649.695Z" fill="white"/>
<path d="M691.49 0H134.56C60.2446 0 0 60.2446 0 134.56V1536.67C0 1610.99 60.2446 1671.23 134.56 1671.23H691.49C765.805 1671.23 826.05 1610.99 826.05 1536.67V134.56C826.05 60.2446 765.805 0 691.49 0Z" fill="#0F506E"/>
<path d="M134.35 36.0293H691.71C745.8 36.0293 789.71 79.9393 789.71 134.029V1537.2C789.71 1591.29 745.8 1635.2 691.71 1635.2H134.35C80.2596 1635.2 36.3496 1591.29 36.3496 1537.2V134.029C36.3496 79.9393 80.2596 36.0293 134.35 36.0293Z" fill="#F3F6FF"/>
<path d="M691.7 36.0293H134.34C80.2998 36.0293 36.3398 79.9893 36.3398 134.029V198.449H789.7V134.029C789.7 79.9893 745.74 36.0293 691.7 36.0293Z" fill="#6881C2"/>
<path d="M691.7 1635.2H134.34C80.2998 1635.2 36.3398 1591.24 36.3398 1537.2V1472.78H789.7V1537.2C789.7 1591.24 745.74 1635.2 691.7 1635.2Z" fill="#6881C2"/>
<path d="M599.97 135.56H226.07C215.95 135.56 207.75 127.36 207.75 117.24C207.75 107.12 215.95 98.9199 226.07 98.9199H599.97C610.09 98.9199 618.29 107.12 618.29 117.24C618.29 127.36 610.09 135.56 599.97 135.56Z" fill="#5E77B8"/>
<path d="M413.02 946.09C560.369 946.09 679.82 826.64 679.82 679.29C679.82 531.941 560.369 412.49 413.02 412.49C265.67 412.49 146.22 531.941 146.22 679.29C146.22 826.64 265.67 946.09 413.02 946.09Z" fill="white"/>
<path d="M580.311 846.578C672.701 754.188 672.701 604.394 580.311 512.004C487.92 419.614 338.126 419.613 245.736 512.004C153.346 604.394 153.346 754.188 245.736 846.578C338.126 938.969 487.92 938.969 580.311 846.578Z" fill="#4DB35E"/>
<path d="M386.42 822.119L242.74 725.719L283.09 665.569L370.77 724.449L512.95 542.109L570.08 586.609L386.42 822.119Z" fill="white"/>
<defs>
<linearGradient id="paint0_linear_96_14333" x1="89.7383" y1="1373.51" x2="782.261" y2="314.027" gradientUnits="userSpaceOnUse">
<stop stop-color="#212026"/>
<stop offset="0.376481" stop-color="#646464"/>
<stop offset="0.666667" stop-color="#888888"/>
<stop offset="1" stop-color="#3A3A3B"/>
</linearGradient>
<linearGradient id="paint1_linear_96_14333" x1="97.0956" y1="247.49" x2="716.836" y2="1395.61" gradientUnits="userSpaceOnUse">
<stop stop-color="#AFB7D2"/>
<stop offset="1" stop-color="#C296CD"/>
</linearGradient>
</defs>
</svg>
