<svg width="827" height="1672" viewBox="0 0 827 1672" fill="none" xmlns="http://www.w3.org/2000/svg">
<path d="M691.49 0H134.56C60.2446 0 0 60.2446 0 134.56V1536.67C0 1610.99 60.2446 1671.23 134.56 1671.23H691.49C765.805 1671.23 826.05 1610.99 826.05 1536.67V134.56C826.05 60.2446 765.805 0 691.49 0Z" fill="#0F506E"/>
<path d="M134.35 36.0293H691.71C745.8 36.0293 789.71 79.9393 789.71 134.029V1537.2C789.71 1591.29 745.8 1635.2 691.71 1635.2H134.35C80.2599 1635.2 36.3499 1591.29 36.3499 1537.2V134.029C36.3499 79.9393 80.2599 36.0293 134.35 36.0293Z" fill="#F3F6FF"/>
<path d="M691.7 36.0293H134.34C80.2998 36.0293 36.3398 79.9893 36.3398 134.029V198.449H789.7V134.029C789.7 79.9893 745.74 36.0293 691.7 36.0293Z" fill="#6881C2"/>
<path d="M691.7 1635.2H134.34C80.2998 1635.2 36.3398 1591.24 36.3398 1537.2V1472.78H789.7V1537.2C789.7 1591.24 745.74 1635.2 691.7 1635.2Z" fill="#6881C2"/>
<path d="M599.97 135.56H226.07C215.95 135.56 207.75 127.36 207.75 117.24C207.75 107.12 215.95 98.9199 226.07 98.9199H599.97C610.09 98.9199 618.29 107.12 618.29 117.24C618.29 127.36 610.09 135.56 599.97 135.56Z" fill="#5E77B8"/>
</svg>
