<svg width="739" height="1079" viewBox="0 0 739 1079" fill="none" xmlns="http://www.w3.org/2000/svg">
<path d="M738.666 1029.83L738.667 48.5097C738.667 21.7185 716.947 -9.4937e-07 690.156 -2.12048e-06L50.3865 -3.00857e-05C23.5947 -3.12568e-05 1.87555 21.7185 1.87555 48.5096L1.8755 1029.83C1.8755 1056.62 23.5946 1078.34 50.3865 1078.34L690.156 1078.34C716.947 1078.34 738.666 1056.62 738.666 1029.83Z" fill="url(#paint0_linear_96_14226)"/>
<path d="M680.03 828.165L680.03 1001.45C680.03 1013.83 670.028 1023.83 657.65 1023.83L577.257 1023.83C564.879 1023.83 554.877 1013.83 554.877 1001.45L554.877 828.165C554.877 815.787 564.879 805.785 577.257 805.785L657.65 805.785C670.028 805.785 680.03 815.787 680.03 828.165Z" fill="white"/>
<path opacity="0.24" d="M7.88542e-05 364.199L8.55489e-05 211.043L738.916 388.704L738.916 541.859L7.88542e-05 364.199Z" fill="#F0F5FB"/>
<path opacity="0.24" d="M8.32153e-05 611.622L8.55489e-05 558.236L738.916 736.022L738.916 789.407L8.32153e-05 611.622Z" fill="#F0F5FB"/>
<path d="M610.264 859.422L607.513 868.049C602.762 866.673 599.136 864.548 596.886 861.422C594.51 858.422 593.385 854.546 593.385 849.795C593.385 844.044 595.385 839.168 599.386 835.417C603.387 831.666 608.763 829.791 615.64 829.791C622.892 829.791 628.643 831.666 632.644 835.417C636.645 839.168 638.645 844.169 638.645 850.295C638.645 855.671 637.02 860.047 633.894 863.298C632.019 865.298 629.393 866.798 625.892 867.799L623.767 859.047C626.017 858.547 627.893 857.422 629.143 855.796C630.518 854.171 631.143 852.17 631.143 849.795C631.143 846.544 630.018 843.919 627.643 841.918C625.267 839.918 621.516 838.918 616.265 838.918C610.764 838.918 606.763 839.918 604.387 841.918C602.012 843.919 600.887 846.544 600.887 849.67C600.887 852.045 601.637 854.046 603.137 855.796C604.637 857.422 607.013 858.672 610.139 859.422L610.264 859.422Z" fill="#393D6A"/>
<path d="M594.135 913.682L594.135 904.056L604.137 900.18L604.137 882.676L594.135 879.051L594.135 869.674L637.895 886.677L637.895 896.054L594.135 913.558L594.135 913.682ZM611.389 897.429L627.643 891.428L611.389 885.552L611.389 897.554L611.389 897.429Z" fill="#393D6A"/>
<path d="M594.135 918.559L637.895 918.559L637.895 937.187C637.895 941.938 637.52 945.314 636.77 947.44C636.02 949.565 634.519 951.19 632.519 952.565C630.518 953.816 628.268 954.441 625.642 954.441C622.391 954.441 619.641 953.441 617.515 951.565C615.39 949.69 614.015 946.814 613.514 942.939C612.389 944.814 611.139 946.439 609.889 947.689C608.513 948.94 606.138 950.565 602.762 952.691L594.26 958.067L594.26 947.44L603.762 941.063C607.138 938.813 609.389 937.187 610.264 936.437C611.139 935.687 611.764 934.687 612.014 933.812C612.389 932.811 612.514 931.436 612.514 929.311L612.514 927.56L594.26 927.56L594.26 918.684L594.135 918.559ZM619.391 927.435L619.391 933.937C619.391 938.188 619.516 940.813 619.891 941.938C620.266 942.939 620.891 943.814 621.766 944.439C622.642 945.064 623.767 945.314 625.017 945.314C626.517 945.314 627.643 944.939 628.643 944.189C629.518 943.439 630.143 942.313 630.393 940.813C630.393 940.063 630.518 937.938 630.518 934.312L630.518 927.435L619.391 927.435Z" fill="#393D6A"/>
<path d="M637.895 962.819L637.895 978.947C637.895 982.572 637.645 985.323 637.02 987.323C636.27 989.949 634.894 992.074 633.019 993.95C631.144 995.7 628.768 997.2 625.892 998.075C623.142 999.076 619.641 999.576 615.515 999.576C611.889 999.576 608.763 999.076 606.138 998.201C603.012 997.075 600.387 995.575 598.386 993.45C596.886 991.949 595.76 989.824 594.885 987.198C594.26 985.198 594.01 982.572 594.01 979.322L594.01 962.693L637.77 962.693L637.895 962.819ZM630.518 971.695L601.512 971.695L601.512 978.321C601.512 980.822 601.637 982.572 601.887 983.698C602.262 985.073 602.887 986.323 603.762 987.323C604.637 988.323 606.013 989.074 608.013 989.699C610.014 990.324 612.639 990.574 616.015 990.574C619.391 990.574 622.016 990.324 623.767 989.699C625.517 989.074 627.018 988.199 628.018 987.198C629.018 986.073 629.768 984.698 630.018 983.072C630.268 981.822 630.393 979.447 630.393 975.821L630.393 971.82L630.518 971.695Z" fill="#393D6A"/>
<path d="M191.043 611.247C191.043 615.248 189.668 618.373 186.793 620.624C183.417 623.249 177.79 624.625 169.914 624.625C162.037 624.625 156.411 623.249 153.035 620.499C150.159 618.248 148.784 615.123 148.784 611.122C148.784 607.121 150.284 603.87 153.41 601.37C156.536 598.869 162.037 597.619 169.914 597.619C177.79 597.619 183.292 598.995 186.667 601.62C189.543 603.87 190.918 606.996 190.918 610.997L191.043 611.247ZM184.417 611.247C184.417 610.247 184.042 609.372 183.542 608.621C182.917 607.871 181.791 607.246 180.291 606.871C178.291 606.371 174.79 605.996 169.914 605.996C165.038 605.996 161.787 606.246 159.911 606.746C158.036 607.246 156.911 607.871 156.286 608.621C155.661 609.372 155.41 610.247 155.41 611.122C155.41 611.997 155.786 612.872 156.286 613.747C156.911 614.498 158.036 615.123 159.536 615.498C161.537 615.998 165.038 616.248 169.914 616.248C174.79 616.248 178.041 615.998 179.916 615.498C181.666 614.998 182.917 614.372 183.542 613.622C184.167 612.872 184.417 611.997 184.417 610.997L184.417 611.247Z" fill="white"/>
<path d="M160.162 629.75L161.037 637.627C159.286 637.877 157.786 638.502 156.786 639.627C155.786 640.752 155.16 642.002 155.16 643.503C155.16 645.128 155.786 646.503 157.161 647.754C158.536 648.879 160.537 649.504 163.287 649.504C165.788 649.504 167.788 648.879 169.039 647.754C170.289 646.629 170.914 645.128 170.914 643.378C170.914 641.127 169.914 639.002 167.913 637.251L168.789 630.875L190.293 635.001L190.293 655.88L182.917 655.88L182.917 640.877L175.915 639.627C176.79 641.377 177.29 643.253 177.29 645.003C177.29 648.504 176.04 651.504 173.415 653.88C170.789 656.38 167.538 657.506 163.412 657.506C160.037 657.506 156.911 656.505 154.285 654.505C150.659 651.879 148.784 648.129 148.784 643.253C148.784 639.502 149.784 636.376 151.91 633.876C153.91 631.5 156.661 630 160.162 629.5L160.162 629.75Z" fill="white"/>
<path d="M148.784 675.385L191.543 685.637L191.543 691.638L148.784 681.261L148.784 675.385Z" fill="white"/>
<path d="M156.911 736.771L149.534 736.771L149.534 709.016C152.285 709.391 154.91 710.266 157.411 711.766C159.912 713.266 163.162 716.267 167.288 720.643C170.664 724.269 172.915 726.394 174.04 727.269C175.665 728.395 177.29 728.895 178.916 728.895C180.666 728.895 182.042 728.394 183.042 727.519C184.042 726.519 184.417 725.269 184.417 723.644C184.417 722.018 183.917 720.643 182.917 719.768C181.916 718.768 180.291 718.267 177.916 718.017L178.666 710.141C183.042 710.641 186.167 712.141 188.043 714.517C189.918 717.017 190.918 720.143 190.918 723.768C190.918 727.894 189.793 731.02 187.668 733.395C185.417 735.771 182.667 736.896 179.416 736.896C177.54 736.896 175.79 736.521 174.165 735.896C172.539 735.271 170.664 734.146 168.914 732.77C167.663 731.77 165.913 730.145 163.662 727.519C161.412 725.019 159.787 723.394 159.036 722.768C158.286 722.143 157.536 721.518 156.786 721.143L156.786 736.896L156.911 736.771Z" fill="white"/>
<path d="M191.043 755.526C191.043 759.527 189.668 762.653 186.793 764.903C183.417 767.529 177.79 768.904 169.914 768.904C162.037 768.904 156.411 767.529 153.035 764.778C150.159 762.528 148.784 759.402 148.784 755.401C148.784 751.4 150.284 748.15 153.41 745.649C156.536 743.149 162.037 741.898 169.914 741.898C177.79 741.898 183.292 743.274 186.667 746.024C189.543 748.275 190.918 751.4 190.918 755.401L191.043 755.526ZM184.417 755.526C184.417 754.526 184.042 753.776 183.542 752.901C182.917 752.15 181.791 751.525 180.291 751.15C178.291 750.65 174.79 750.4 169.914 750.4C165.038 750.4 161.787 750.65 159.911 751.15C158.036 751.65 156.911 752.276 156.286 753.026C155.661 753.776 155.41 754.651 155.41 755.526C155.41 756.401 155.786 757.401 156.286 758.027C156.911 758.777 158.036 759.402 159.536 759.777C161.537 760.277 165.038 760.527 169.914 760.527C174.79 760.527 178.041 760.277 179.916 759.777C181.666 759.277 182.917 758.652 183.542 757.902C184.167 757.151 184.417 756.276 184.417 755.401L184.417 755.526Z" fill="white"/>
<path d="M190.918 90.3926L190.918 105.646C190.918 109.021 190.668 111.772 190.168 113.522C189.418 115.898 188.168 118.023 186.417 119.774C184.542 121.524 182.291 122.774 179.666 123.774C177.04 124.65 173.79 125.15 169.914 125.15C166.538 125.15 163.537 124.774 161.037 123.899C158.036 122.899 155.661 121.399 153.785 119.523C152.41 118.023 151.284 116.148 150.534 113.647C149.909 111.772 149.659 109.396 149.659 106.271L149.659 90.5176L191.043 90.5176L190.918 90.3926ZM183.917 98.7693L156.536 98.7693L156.536 105.021C156.536 107.396 156.536 109.021 156.911 110.021C157.286 111.397 157.786 112.522 158.661 113.397C159.536 114.272 160.787 115.023 162.662 115.523C164.537 116.023 167.038 116.398 170.289 116.398C173.539 116.398 175.915 116.148 177.665 115.523C179.416 115.023 180.666 114.147 181.666 113.147C182.667 112.147 183.292 110.897 183.667 109.271C183.917 108.146 184.042 105.771 184.042 102.395L184.042 98.6443L183.917 98.7693Z" fill="white"/>
<path d="M170.289 137.902L171.539 130.651C174.415 131.526 176.54 132.901 177.916 134.776C179.291 136.777 180.041 139.652 180.041 143.528C180.041 147.029 179.666 149.654 178.791 151.405C177.916 153.155 176.915 154.405 175.665 155.03C174.415 155.781 172.039 156.031 168.538 156.031L159.286 156.031C156.661 156.031 154.66 156.031 153.41 156.281C152.16 156.531 150.784 157.031 149.409 157.656L149.409 149.779C149.409 149.779 150.659 149.279 151.785 149.029C152.285 149.029 152.535 148.779 152.785 148.779C151.41 147.404 150.534 146.029 149.784 144.403C149.159 142.903 148.784 141.278 148.784 139.527C148.784 136.402 149.659 134.026 151.285 132.276C152.91 130.526 155.035 129.65 157.661 129.65C159.286 129.65 160.912 130.025 162.162 130.901C163.537 131.651 164.537 132.776 165.163 134.276C165.913 135.777 166.538 137.902 167.038 140.528C167.788 144.278 168.413 146.779 169.038 148.279L169.789 148.279C171.289 148.279 172.414 147.904 173.039 147.154C173.665 146.404 174.04 145.028 174.04 142.903C174.04 141.528 173.79 140.402 173.164 139.527C172.664 138.777 171.664 138.152 170.289 137.652L170.289 137.902ZM163.912 148.404C163.537 147.404 163.162 145.779 162.662 143.653C162.162 141.403 161.787 140.027 161.287 139.402C160.537 138.402 159.661 137.902 158.536 137.902C157.411 137.902 156.411 138.277 155.661 139.152C154.91 140.027 154.41 141.028 154.41 142.278C154.41 143.653 154.91 145.028 155.786 146.404C156.536 147.404 157.411 147.904 158.411 148.279C159.036 148.529 160.412 148.529 162.287 148.529L163.912 148.529L163.912 148.404Z" fill="white"/>
<path d="M179.416 177.785L173.04 177.785L173.04 172.409L161.037 172.409C158.536 172.409 157.161 172.408 156.786 172.533C156.411 172.533 156.036 172.909 155.786 173.284C155.536 173.659 155.41 174.034 155.41 174.659C155.41 175.409 155.661 176.409 156.161 177.785L150.034 178.535C149.284 176.659 148.909 174.534 148.909 172.284C148.909 170.783 149.159 169.533 149.659 168.408C150.159 167.282 150.784 166.407 151.535 165.907C152.285 165.407 153.285 165.032 154.66 164.782C155.536 164.657 157.411 164.532 160.287 164.532L173.29 164.532L173.29 160.906L179.666 160.906L179.666 164.532L185.667 164.532L190.293 172.409L179.666 172.409L179.666 177.785L179.416 177.785Z" fill="white"/>
<path d="M159.036 201.039L157.661 208.916C154.785 207.916 152.535 206.29 151.035 204.165C149.534 201.914 148.784 199.164 148.784 195.913C148.784 190.662 150.534 186.911 153.91 184.286C156.661 182.285 160.037 181.285 164.288 181.285C169.289 181.285 173.164 182.536 175.915 185.161C178.666 187.787 180.166 191.037 180.166 195.038C180.166 199.539 178.666 203.04 175.79 205.54C172.789 208.166 168.288 209.291 162.287 209.166L162.287 189.287C159.912 189.287 158.161 190.037 156.786 191.162C155.411 192.412 154.785 193.913 154.785 195.788C154.785 197.038 155.16 198.039 155.786 198.914C156.411 199.789 157.536 200.414 159.036 200.914L159.036 201.039ZM167.038 201.414C169.289 201.414 171.039 200.789 172.289 199.664C173.54 198.539 174.04 197.163 174.04 195.538C174.04 193.788 173.415 192.412 172.164 191.287C170.914 190.162 169.164 189.662 167.038 189.662L167.038 201.539L167.038 201.414Z" fill="white"/>
<path d="M594.134 90.5176L635.518 90.5176L635.518 106.021C635.518 109.146 635.143 111.772 634.268 113.647C633.393 115.523 632.142 117.023 630.392 118.148C628.642 119.273 626.766 119.774 624.891 119.774C623.14 119.774 621.515 119.273 619.89 118.273C618.264 117.273 617.014 115.898 616.139 113.897C615.389 116.398 614.138 118.273 612.388 119.648C610.637 121.024 608.512 121.649 606.136 121.649C604.136 121.649 602.386 121.274 600.76 120.399C599.135 119.523 597.76 118.523 596.884 117.398C596.009 116.148 595.259 114.647 594.884 112.897C594.384 111.022 594.134 108.896 594.134 106.146L594.134 90.3926L594.134 90.5176ZM618.139 95.8937L618.139 104.77C618.139 107.146 618.264 108.896 618.639 110.021C619.014 111.397 619.765 112.522 620.64 113.147C621.64 113.897 622.765 114.272 624.266 114.272C625.641 114.272 626.891 113.897 627.891 113.272C628.892 112.647 629.642 111.647 630.017 110.397C630.392 109.146 630.642 107.021 630.642 104.145L630.642 95.8937L618.139 95.8937ZM599.01 95.8937L599.01 106.146C599.01 107.896 599.01 109.146 599.26 109.897C599.51 111.147 599.885 112.272 600.385 113.022C600.885 113.897 601.76 114.522 602.636 115.148C603.636 115.648 604.761 115.898 606.136 115.898C607.637 115.898 609.012 115.523 610.137 114.773C611.263 114.022 612.013 112.897 612.513 111.522C613.013 110.147 613.263 108.021 613.263 105.396L613.263 95.8937L599.01 95.8937Z" fill="white"/>
<path d="M597.76 147.78C596.134 145.904 595.009 144.154 594.384 142.403C593.759 140.653 593.384 138.778 593.384 136.777C593.384 133.527 594.134 130.901 595.759 129.151C597.384 127.401 599.385 126.525 601.886 126.525C603.386 126.525 604.761 126.9 605.886 127.526C607.137 128.151 608.137 129.026 608.762 130.151C609.512 131.276 610.012 132.527 610.387 133.777C610.637 134.777 610.888 136.277 611.138 138.278C611.638 142.404 612.263 145.404 612.888 147.28C613.638 147.28 614.013 147.28 614.263 147.28C616.389 147.28 617.764 146.779 618.639 145.779C619.764 144.529 620.39 142.529 620.39 140.028C620.39 137.653 620.015 135.902 619.139 134.777C618.264 133.652 616.764 132.777 614.763 132.277L615.388 127.276C617.514 127.776 619.264 128.401 620.515 129.526C621.765 130.526 622.89 132.026 623.515 134.027C624.265 136.027 624.641 138.278 624.641 140.778C624.641 143.279 624.391 145.404 623.765 147.029C623.14 148.655 622.39 149.78 621.515 150.53C620.64 151.28 619.514 151.78 618.014 152.156C617.139 152.281 615.639 152.405 613.388 152.405L606.637 152.405C601.885 152.405 598.885 152.405 597.634 152.781C596.384 153.031 595.259 153.406 594.009 154.031L594.009 148.78C595.009 148.28 596.259 147.905 597.76 147.78ZM609.137 147.405C608.387 145.529 607.762 142.779 607.262 139.153C607.012 137.027 606.637 135.527 606.261 134.777C605.886 133.902 605.386 133.277 604.636 132.777C603.886 132.277 603.136 132.026 602.261 132.026C600.885 132.026 599.76 132.527 598.885 133.527C598.01 134.527 597.509 136.027 597.509 138.028C597.509 140.028 597.885 141.778 598.76 143.279C599.635 144.779 600.76 145.904 602.261 146.654C603.386 147.155 605.136 147.529 607.387 147.529L609.262 147.529L609.137 147.405Z" fill="white"/>
<path d="M594.134 159.906L624.14 159.906L624.14 164.532L619.889 164.532C623.14 166.783 624.891 169.908 624.891 174.034C624.891 175.784 624.516 177.535 623.89 179.035C623.265 180.535 622.39 181.661 621.39 182.411C620.39 183.161 619.139 183.661 617.639 184.036C616.764 184.161 615.013 184.286 612.638 184.286L594.259 184.286L594.259 179.16L612.513 179.16C614.638 179.16 616.139 178.91 617.139 178.535C618.139 178.16 619.014 177.41 619.639 176.409C620.265 175.409 620.515 174.284 620.515 172.909C620.515 170.783 619.764 168.908 618.514 167.283C617.139 165.782 614.513 164.907 610.762 164.907L594.384 164.907L594.384 159.781L594.134 159.906Z" fill="white"/>
<path d="M594.134 191.537L635.518 191.537L635.518 196.538L611.888 196.538L624.141 208.541L624.141 215.167L613.013 203.665L594.134 216.292L594.134 210.041L609.512 200.164L606.136 196.538L594.259 196.538L594.259 191.537L594.134 191.537Z" fill="white"/>
<path d="M444.6 99.6437C444.6 104.27 442.975 107.77 439.724 110.396C435.848 113.522 429.472 115.022 420.47 115.022C411.468 115.022 405.091 113.522 401.215 110.396C397.965 107.895 396.339 104.27 396.339 99.6437C396.339 95.0178 398.09 91.3921 401.59 88.5165C405.091 85.766 411.468 84.2656 420.47 84.2656C429.472 84.2656 435.723 85.766 439.724 88.8916C442.975 91.5171 444.6 95.0178 444.6 99.6437ZM437.098 99.6437C437.098 98.5185 436.723 97.5182 436.098 96.6431C435.348 95.7679 434.098 95.1428 432.347 94.6427C429.972 94.0176 426.096 93.6425 420.47 93.6425C414.843 93.6425 411.093 93.8925 409.092 94.5177C407.092 95.1428 405.591 95.7679 404.966 96.6431C404.216 97.5182 403.966 98.5185 403.966 99.5187C403.966 100.519 404.341 101.644 404.966 102.394C405.716 103.269 406.967 103.895 408.717 104.395C411.093 105.02 414.968 105.27 420.47 105.27C425.971 105.27 429.847 105.02 431.847 104.395C433.973 103.895 435.348 103.144 435.973 102.269C436.723 101.394 436.973 100.394 436.973 99.3936L437.098 99.6437Z" fill="white"/>
<path d="M444.6 140.152C444.6 144.777 442.975 148.278 439.724 150.904C435.848 154.029 429.472 155.53 420.47 155.53C411.468 155.53 405.091 154.029 401.215 150.904C397.965 148.278 396.339 144.777 396.339 140.152C396.339 135.526 398.09 131.775 401.59 129.024C405.091 126.274 411.468 124.773 420.47 124.773C429.472 124.773 435.723 126.274 439.724 129.399C442.975 132.025 444.6 135.526 444.6 140.152ZM437.098 140.152C437.098 139.026 436.723 138.026 436.098 137.276C435.348 136.401 434.098 135.776 432.347 135.276C429.972 134.65 426.096 134.275 420.47 134.275C414.843 134.275 411.093 134.525 409.092 135.151C406.967 135.651 405.591 136.401 404.966 137.276C404.216 138.151 403.966 139.151 403.966 140.152C403.966 141.152 404.341 142.277 404.966 143.027C405.716 143.902 406.967 144.527 408.717 145.028C411.093 145.653 414.968 146.028 420.47 146.028C425.971 146.028 429.847 145.778 431.847 145.152C433.973 144.527 435.348 143.902 435.973 143.027C436.723 142.152 436.973 141.152 436.973 140.152L437.098 140.152Z" fill="white"/>
<path d="M444.6 180.659C444.6 185.285 442.975 188.786 439.724 191.412C435.848 194.537 429.472 196.037 420.47 196.037C411.468 196.037 405.091 194.537 401.215 191.412C397.965 188.786 396.339 185.285 396.339 180.659C396.339 176.034 398.09 172.408 401.59 169.532C405.091 166.657 411.468 165.281 420.47 165.281C429.472 165.281 435.723 166.782 439.724 169.907C442.975 172.408 444.6 176.034 444.6 180.659ZM437.098 180.659C437.098 179.534 436.723 178.659 436.098 177.784C435.348 176.909 434.098 176.284 432.347 175.783C429.972 175.158 426.096 174.908 420.47 174.908C414.843 174.908 411.093 175.158 409.092 175.783C406.967 176.284 405.591 177.034 404.966 177.909C404.216 178.784 403.966 179.659 403.966 180.784C403.966 181.91 404.341 182.91 404.966 183.785C405.716 184.66 406.967 185.285 408.717 185.785C411.093 186.41 414.968 186.786 420.47 186.786C425.971 186.786 429.847 186.536 431.847 185.91C433.848 185.285 435.348 184.66 435.973 183.785C436.723 182.91 436.973 181.91 436.973 180.909L437.098 180.659Z" fill="white"/>
<path d="M444.6 221.167C444.6 225.793 442.975 229.294 439.724 231.919C435.848 235.045 429.472 236.545 420.47 236.545C411.468 236.545 405.091 235.045 401.215 231.919C397.965 229.419 396.339 225.793 396.339 221.167C396.339 216.541 398.09 212.79 401.59 210.04C405.091 207.164 411.468 205.789 420.47 205.789C429.472 205.789 435.723 207.289 439.724 210.415C442.975 212.915 444.6 216.541 444.6 221.167ZM437.098 221.167C437.098 220.042 436.723 219.042 436.098 218.167C435.348 217.291 434.098 216.666 432.347 216.166C429.972 215.541 426.096 215.166 420.47 215.166C414.843 215.166 411.093 215.416 409.092 216.041C406.967 216.666 405.591 217.291 404.966 218.167C404.216 219.042 403.966 220.042 403.966 221.042C403.966 222.042 404.341 223.167 404.966 223.918C405.716 224.793 406.967 225.418 408.717 225.918C411.093 226.543 414.968 226.793 420.47 226.793C425.971 226.793 429.847 226.543 431.847 225.918C433.973 225.418 435.348 224.668 435.973 223.793C436.723 222.918 436.973 222.042 436.973 220.917L437.098 221.167Z" fill="white"/>
<path d="M444.6 282.806C444.6 287.432 442.975 290.933 439.724 293.558C435.848 296.684 429.472 298.184 420.47 298.184C411.468 298.184 405.091 296.684 401.215 293.558C397.965 290.933 396.339 287.432 396.339 282.806C396.339 278.18 398.09 274.554 401.59 271.679C405.091 268.803 411.468 267.428 420.47 267.428C429.472 267.428 435.723 268.928 439.724 272.054C442.975 274.679 444.6 278.18 444.6 282.806ZM437.098 282.806C437.098 281.681 436.723 280.68 436.098 279.93C435.348 279.055 434.098 278.43 432.347 277.93C429.972 277.305 426.096 276.93 420.47 276.93C414.843 276.93 411.093 277.18 409.092 277.805C406.967 278.305 405.591 279.055 404.966 279.93C404.216 280.805 403.966 281.806 403.966 282.806C403.966 283.806 404.341 284.931 404.966 285.806C405.716 286.682 406.967 287.307 408.717 287.807C411.093 288.432 414.968 288.682 420.47 288.682C425.971 288.682 429.847 288.432 431.847 287.807C433.848 287.182 435.348 286.557 435.973 285.681C436.723 284.806 436.973 283.806 436.973 282.806L437.098 282.806Z" fill="white"/>
<path d="M444.6 323.314C444.6 327.939 442.975 331.44 439.724 334.066C435.848 337.191 429.472 338.692 420.47 338.692C411.468 338.692 405.091 337.191 401.215 334.066C397.965 331.44 396.339 327.939 396.339 323.314C396.339 318.688 398.09 315.062 401.59 312.186C405.091 309.311 411.468 307.936 420.47 307.936C429.472 307.936 435.723 309.436 439.724 312.561C442.975 315.187 444.6 318.688 444.6 323.314ZM437.098 323.314C437.098 322.188 436.723 321.188 436.098 320.438C435.348 319.563 434.098 318.938 432.347 318.438C429.972 317.812 426.096 317.437 420.47 317.437C414.843 317.437 411.093 317.688 409.092 318.313C406.967 318.813 405.591 319.563 404.966 320.438C404.216 321.313 403.966 322.313 403.966 323.314C403.966 324.314 404.341 325.439 404.966 326.314C405.716 327.189 406.967 327.815 408.717 328.315C411.093 328.94 414.968 329.19 420.47 329.19C425.971 329.19 429.847 328.94 431.847 328.315C433.973 327.815 435.348 327.064 435.973 326.189C436.723 325.314 436.973 324.314 436.973 323.314L437.098 323.314Z" fill="white"/>
<path d="M444.6 363.821C444.6 368.447 442.975 371.948 439.724 374.574C435.848 377.699 429.472 379.199 420.47 379.199C411.468 379.199 405.091 377.574 401.215 374.574C397.965 372.073 396.339 368.447 396.339 363.946C396.339 359.445 398.09 355.57 401.59 352.819C405.091 350.069 411.468 348.568 420.47 348.568C429.472 348.568 435.723 350.069 439.724 353.194C442.975 355.695 444.6 359.32 444.6 363.946L444.6 363.821ZM437.098 363.821C437.098 362.696 436.723 361.696 436.098 360.946C435.348 360.071 434.098 359.446 432.347 358.945C429.972 358.32 426.096 358.07 420.47 358.07C414.843 358.07 411.093 358.32 409.092 358.945C406.967 359.571 405.591 360.196 404.966 361.071C404.216 361.946 403.966 362.946 403.966 363.946C403.966 364.947 404.341 366.072 404.966 366.822C405.716 367.697 406.967 368.322 408.717 368.822C411.093 369.447 414.968 369.823 420.47 369.823C425.971 369.823 429.847 369.573 431.847 368.947C433.973 368.447 435.348 367.697 435.973 366.822C436.723 365.947 436.973 364.947 436.973 363.946L437.098 363.821Z" fill="white"/>
<path d="M444.6 404.329C444.6 408.955 442.975 412.456 439.724 415.082C435.848 418.207 429.472 419.707 420.47 419.707C411.468 419.707 405.091 418.207 401.215 415.082C397.965 412.456 396.339 408.955 396.339 404.329C396.339 399.703 398.09 396.078 401.59 393.202C405.091 390.327 411.468 388.951 420.47 388.951C429.472 388.951 435.723 390.452 439.724 393.577C442.975 396.078 444.6 399.703 444.6 404.329ZM437.098 404.329C437.098 403.204 436.723 402.204 436.098 401.454C435.348 400.578 434.098 399.954 432.347 399.453C429.972 398.828 426.096 398.578 420.47 398.578C414.843 398.578 411.093 398.828 409.092 399.453C406.967 399.954 405.591 400.704 404.966 401.579C404.216 402.454 403.966 403.454 403.966 404.454C403.966 405.455 404.341 406.58 404.966 407.455C405.716 408.33 406.967 408.955 408.717 409.455C411.093 410.08 414.968 410.455 420.47 410.455C425.971 410.455 429.847 410.206 431.847 409.58C433.848 408.955 435.348 408.33 435.973 407.455C436.723 406.58 436.973 405.579 436.973 404.579L437.098 404.329Z" fill="white"/>
<path d="M444.6 465.968C444.6 470.594 442.975 474.094 439.724 476.72C435.848 479.846 429.472 481.346 420.47 481.346C411.468 481.346 405.091 479.846 401.215 476.72C397.965 474.094 396.339 470.594 396.339 465.968C396.339 461.342 398.09 457.591 401.59 454.841C405.091 451.965 411.468 450.59 420.47 450.59C429.472 450.59 435.723 452.09 439.724 455.216C442.975 457.716 444.6 461.342 444.6 465.968ZM437.098 465.968C437.098 464.843 436.723 463.843 436.098 462.967C435.348 462.092 434.098 461.467 432.347 460.967C429.972 460.342 426.096 460.092 420.47 460.092C414.843 460.092 411.093 460.342 409.092 460.967C406.967 461.467 405.591 462.217 404.966 463.092C404.216 463.968 403.966 464.968 403.966 465.968C403.966 466.968 404.341 467.968 404.966 468.843C405.716 469.719 406.967 470.344 408.717 470.844C411.093 471.469 414.968 471.844 420.47 471.844C425.971 471.844 429.847 471.594 431.847 470.969C433.973 470.469 435.348 469.719 435.973 468.843C436.723 467.968 436.973 466.968 436.973 465.968L437.098 465.968Z" fill="white"/>
<path d="M444.6 506.476C444.6 511.102 442.975 514.602 439.724 517.228C435.848 520.353 429.472 521.854 420.47 521.854C411.468 521.854 405.091 520.353 401.215 517.228C397.965 514.602 396.339 511.102 396.339 506.476C396.339 501.85 398.09 498.224 401.59 495.348C405.091 492.598 411.468 491.098 420.47 491.098C429.472 491.098 435.723 492.598 439.724 495.724C442.975 498.224 444.6 501.85 444.6 506.476ZM437.098 506.476C437.098 505.35 436.723 504.35 436.098 503.6C435.348 502.725 434.098 502.1 432.347 501.6C429.972 500.975 426.096 500.724 420.47 500.724C414.843 500.724 411.093 500.975 409.092 501.6C406.967 502.225 405.591 502.85 404.966 503.725C404.216 504.6 403.966 505.6 403.966 506.601C403.966 507.601 404.341 508.726 404.966 509.476C405.716 510.351 406.967 510.976 408.717 511.477C411.093 512.102 414.968 512.477 420.47 512.477C425.971 512.477 429.847 512.227 431.847 511.602C433.973 511.102 435.348 510.351 435.973 509.476C436.723 508.601 436.973 507.726 436.973 506.601L437.098 506.476Z" fill="white"/>
<path d="M444.6 546.983C444.6 551.609 442.975 555.11 439.724 557.736C435.848 560.861 429.472 562.362 420.47 562.362C411.468 562.362 405.091 560.861 401.215 557.736C397.965 555.235 396.339 551.609 396.339 546.983C396.339 542.358 398.09 538.732 401.59 535.856C405.091 533.106 411.468 531.605 420.47 531.605C429.472 531.605 435.723 533.106 439.724 536.231C442.975 538.732 444.6 542.358 444.6 546.983ZM437.098 546.983C437.098 545.858 436.723 544.983 436.098 544.108C435.348 543.233 434.098 542.608 432.347 542.108C429.972 541.482 426.096 541.107 420.47 541.107C414.843 541.107 411.093 541.357 409.092 541.983C406.967 542.483 405.591 543.233 404.966 544.108C404.216 544.983 403.966 545.983 403.966 546.983C403.966 547.984 404.341 549.109 404.966 549.984C405.716 550.859 406.967 551.485 408.717 551.985C411.093 552.61 414.968 552.86 420.47 552.86C425.971 552.86 429.847 552.61 431.847 551.985C433.973 551.485 435.348 550.734 435.973 549.859C436.723 548.984 436.973 548.109 436.973 546.983L437.098 546.983Z" fill="white"/>
<path d="M444.6 587.491C444.6 592.117 442.975 595.618 439.724 598.243C435.848 601.369 429.472 602.869 420.47 602.869C411.468 602.869 405.091 601.369 401.215 598.243C397.965 595.743 396.339 592.117 396.339 587.491C396.339 582.865 398.09 579.24 401.59 576.364C405.091 573.489 411.468 572.113 420.47 572.113C429.472 572.113 435.723 573.614 439.724 576.739C442.975 579.365 444.6 582.865 444.6 587.491ZM437.098 587.491C437.098 586.366 436.723 585.366 436.098 584.616C435.348 583.741 434.098 583.115 432.347 582.615C429.972 581.99 426.096 581.615 420.47 581.615C414.843 581.615 411.093 581.865 409.092 582.49C407.092 583.116 405.591 583.741 404.966 584.616C404.216 585.491 403.966 586.491 403.966 587.491C403.966 588.492 404.341 589.617 404.966 590.492C405.716 591.367 406.967 591.992 408.717 592.492C411.093 593.117 414.968 593.367 420.47 593.367C425.971 593.367 429.847 593.117 431.847 592.492C433.973 591.867 435.348 591.242 435.973 590.367C436.723 589.492 436.973 588.492 436.973 587.491L437.098 587.491Z" fill="white"/>
<path d="M444.6 649.128C444.6 653.754 442.975 657.255 439.724 659.88C435.848 663.006 429.472 664.506 420.47 664.506C411.468 664.506 405.091 663.006 401.215 659.88C397.965 657.38 396.339 653.754 396.339 649.253C396.339 644.752 398.09 640.876 401.59 638.126C405.091 635.375 411.468 633.875 420.47 633.875C429.472 633.875 435.723 635.375 439.724 638.501C442.975 641.126 444.6 644.627 444.6 649.253L444.6 649.128ZM437.098 649.128C437.098 648.003 436.723 647.003 436.098 646.127C435.348 645.252 434.098 644.627 432.347 644.127C429.972 643.502 426.096 643.127 420.47 643.127C414.843 643.127 411.093 643.377 409.092 644.002C406.967 644.502 405.591 645.252 404.966 646.127C404.216 647.003 403.966 648.003 403.966 649.003C403.966 650.003 404.341 651.003 404.966 651.878C405.716 652.754 406.967 653.379 408.717 653.879C411.093 654.504 414.968 654.879 420.47 654.879C425.971 654.879 429.847 654.629 431.847 654.004C433.973 653.379 435.348 652.754 435.973 651.878C436.723 651.003 436.973 650.003 436.973 649.003L437.098 649.128Z" fill="white"/>
<path d="M444.6 689.636C444.6 694.262 442.975 697.762 439.724 700.388C435.848 703.514 429.472 705.014 420.47 705.014C411.468 705.014 405.091 703.514 401.215 700.388C397.965 697.762 396.339 694.262 396.339 689.636C396.339 685.01 398.09 681.384 401.59 678.509C405.091 675.633 411.468 674.258 420.47 674.258C429.472 674.258 435.723 675.758 439.724 678.884C442.975 681.384 444.6 685.01 444.6 689.636ZM437.098 689.636C437.098 688.511 436.723 687.635 436.098 686.76C435.348 685.885 434.098 685.26 432.347 684.76C429.972 684.135 426.096 683.885 420.47 683.885C414.843 683.885 411.093 684.135 409.092 684.76C406.967 685.26 405.591 686.01 404.966 686.885C404.216 687.76 403.966 688.761 403.966 689.761C403.966 690.761 404.341 691.886 404.966 692.761C405.716 693.637 406.967 694.262 408.717 694.762C411.093 695.387 414.968 695.637 420.47 695.637C425.971 695.637 429.847 695.387 431.847 694.762C433.973 694.137 435.348 693.512 435.973 692.637C436.723 691.761 436.973 690.761 436.973 689.761L437.098 689.636Z" fill="white"/>
<path d="M444.6 730.146C444.6 734.772 442.975 738.272 439.724 740.898C435.848 744.023 429.472 745.524 420.47 745.524C411.468 745.524 405.091 744.023 401.215 740.898C397.965 738.397 396.339 734.772 396.339 730.146C396.339 725.52 398.09 721.894 401.59 719.018C405.091 716.143 411.468 714.768 420.47 714.768C429.472 714.768 435.723 716.268 439.724 719.393C442.975 721.894 444.6 725.52 444.6 730.146ZM437.098 730.146C437.098 729.02 436.723 728.02 436.098 727.27C435.348 726.395 434.098 725.77 432.347 725.27C429.972 724.645 426.096 724.269 420.47 724.269C414.843 724.269 411.093 724.519 409.092 725.144C406.967 725.77 405.591 726.395 404.966 727.27C404.216 728.145 403.966 729.145 403.966 730.146C403.966 731.146 404.341 732.271 404.966 733.021C405.716 733.896 406.967 734.521 408.717 735.022C411.093 735.647 414.968 735.897 420.47 735.897C425.971 735.897 429.847 735.647 431.847 735.022C433.973 734.521 435.348 733.771 435.973 732.896C436.723 732.021 436.973 731.146 436.973 730.02L437.098 730.146Z" fill="white"/>
<path d="M444.6 770.653C444.6 775.279 442.975 778.78 439.724 781.406C435.848 784.531 429.472 786.032 420.47 786.032C411.468 786.032 405.091 784.531 401.215 781.406C397.965 778.78 396.339 775.279 396.339 770.653C396.339 766.027 398.09 762.402 401.59 759.526C405.091 756.776 411.468 755.275 420.47 755.275C429.472 755.275 435.723 756.776 439.724 759.901C442.975 762.402 444.6 766.027 444.6 770.653ZM437.098 770.653C437.098 769.528 436.723 768.528 436.098 767.778C435.348 766.903 434.098 766.278 432.347 765.777C429.972 765.152 426.096 764.777 420.47 764.777C414.843 764.777 411.093 765.027 409.092 765.652C406.967 766.278 405.591 766.903 404.966 767.778C404.216 768.653 403.966 769.528 403.966 770.653C403.966 771.779 404.341 772.779 404.966 773.529C405.716 774.404 406.967 775.029 408.717 775.53C411.093 776.155 414.968 776.53 420.47 776.53C425.971 776.53 429.847 776.28 431.847 775.655C433.973 775.154 435.348 774.404 435.973 773.529C436.723 772.654 436.973 771.654 436.973 770.653L437.098 770.653Z" fill="white"/>
<path d="M312.196 90.5176L353.581 90.5176L353.581 98.7693L324.324 108.521C321.573 109.396 319.573 110.021 318.198 110.522C319.698 111.022 321.948 111.772 324.824 112.772L353.581 122.649L353.581 130.026L312.196 130.026L312.196 124.774L346.829 124.774L312.196 112.772L312.196 107.896L347.454 95.8937L312.196 95.8937L312.196 90.6426L312.196 90.5176Z" fill="white"/>
<path d="M347.704 138.152L353.581 138.152L353.581 143.278L347.704 143.278L347.704 138.152ZM312.196 138.152L342.203 138.152L342.203 143.278L312.196 143.278L312.196 138.152Z" fill="white"/>
<path d="M316.823 161.657L312.321 162.407C312.071 161.032 311.821 159.657 311.821 158.531C311.821 156.781 312.071 155.281 312.697 154.281C313.322 153.28 314.072 152.53 314.947 152.155C315.947 151.78 317.948 151.53 320.948 151.53L338.202 151.53L338.202 147.779L342.203 147.779L342.203 151.53L349.58 151.53L352.581 156.531L342.078 156.531L342.078 161.657L338.077 161.657L338.077 156.531L320.573 156.531C319.073 156.531 318.198 156.531 317.823 156.781C317.448 156.906 317.073 157.281 316.823 157.656C316.572 158.031 316.447 158.656 316.447 159.407C316.447 159.907 316.447 160.782 316.698 161.657L316.823 161.657Z" fill="white"/>
<path d="M323.199 185.288L322.574 190.288C319.073 189.788 316.447 188.288 314.447 186.163C312.446 183.912 311.571 181.162 311.571 177.911C311.571 173.785 312.946 170.534 315.572 168.034C318.198 165.533 322.073 164.283 327.074 164.283C330.325 164.283 333.076 164.783 335.577 165.909C337.952 167.034 339.827 168.659 341.078 170.785C342.328 173.035 342.953 175.411 342.953 177.911C342.953 181.162 342.078 183.787 340.453 185.913C338.827 187.913 336.452 189.288 333.451 189.913L332.701 185.037C334.701 184.537 336.202 183.662 337.202 182.537C338.202 181.287 338.702 179.911 338.702 178.161C338.702 175.66 337.702 173.535 335.952 171.91C334.076 170.284 331.201 169.534 327.2 169.534C323.199 169.534 320.323 170.284 318.448 171.785C316.572 173.285 315.697 175.41 315.697 177.786C315.697 179.786 316.322 181.412 317.572 182.787C318.823 184.162 320.698 184.912 323.199 185.288Z" fill="white"/>
<path d="M312.196 194.914L353.581 194.914L353.581 200.04L338.702 200.04C341.453 202.416 342.828 205.416 342.828 209.042C342.828 211.292 342.328 213.168 341.453 214.793C340.578 216.418 339.327 217.669 337.827 218.294C336.327 219.044 334.076 219.419 331.075 219.419L312.071 219.419L312.071 214.293L331.075 214.293C333.576 214.293 335.451 213.793 336.577 212.668C337.702 211.543 338.327 210.042 338.327 207.917C338.327 206.416 337.952 205.041 337.202 203.666C336.452 202.291 335.326 201.416 334.076 200.79C332.701 200.165 330.95 199.915 328.575 199.915L312.196 199.915L312.196 194.789L312.196 194.914Z" fill="white"/>
<path d="M312.196 243.549L353.581 243.549L353.581 251.8L324.324 261.552C321.573 262.428 319.573 263.178 318.198 263.553C319.698 264.053 321.948 264.803 324.824 265.803L353.581 275.68L353.581 283.057L312.196 283.057L312.196 277.806L346.829 277.806L312.196 265.803L312.196 260.927L347.454 248.925L312.196 248.925L312.196 243.674L312.196 243.549Z" fill="white"/>
<path d="M327.2 289.557C332.701 289.557 336.827 291.057 339.577 294.183C341.828 296.808 342.953 299.934 342.953 303.56C342.953 307.685 341.578 311.061 338.952 313.687C336.202 316.312 332.576 317.562 327.825 317.562C323.949 317.562 320.948 316.937 318.698 315.812C316.447 314.687 314.822 312.936 313.572 310.811C312.321 308.56 311.696 306.185 311.696 303.56C311.696 299.309 313.071 295.933 315.697 293.432C318.323 290.807 322.323 289.557 327.325 289.557L327.2 289.557ZM327.2 294.808C323.324 294.808 320.448 295.683 318.573 297.308C316.697 298.934 315.697 301.059 315.697 303.685C315.697 306.31 316.697 308.31 318.573 309.936C320.448 311.561 323.449 312.436 327.325 312.436C331.075 312.436 333.826 311.561 335.701 309.936C337.577 308.31 338.577 306.185 338.577 303.685C338.577 301.184 337.577 299.059 335.701 297.308C333.826 295.683 330.95 294.808 327.074 294.808L327.2 294.808Z" fill="white"/>
<path d="M312.196 323.439L342.203 323.439L342.203 327.94L337.702 327.94C339.827 329.066 341.203 330.191 341.953 331.191C342.578 332.191 342.953 333.316 342.953 334.442C342.953 336.192 342.453 337.942 341.328 339.693L336.577 337.942C337.327 336.692 337.702 335.442 337.702 334.192C337.702 333.066 337.327 332.066 336.702 331.191C336.077 330.316 335.076 329.691 333.951 329.316C332.201 328.691 330.2 328.44 328.075 328.44L312.321 328.44L312.321 323.439L312.196 323.439Z" fill="white"/>
<path d="M347.704 343.193L353.581 343.193L353.581 348.319L347.704 348.319L347.704 343.193ZM312.196 343.193L342.203 343.193L342.203 348.319L312.196 348.319L312.196 343.193Z" fill="white"/>
<path d="M321.198 353.695L321.948 358.696C319.948 358.946 318.447 359.697 317.322 361.072C316.322 362.322 315.697 364.198 315.697 366.448C315.697 368.698 316.197 370.449 317.072 371.574C317.947 372.699 319.073 373.199 320.448 373.199C321.573 373.199 322.448 372.699 323.199 371.699C323.699 370.949 324.199 369.324 324.949 366.448C325.949 362.697 326.699 360.197 327.45 358.696C328.075 357.196 329.075 356.196 330.325 355.446C331.575 354.696 332.826 354.321 334.326 354.321C335.701 354.321 336.952 354.696 338.077 355.196C339.202 355.821 340.202 356.696 340.952 357.696C341.578 358.446 342.078 359.572 342.453 360.947C342.828 362.322 343.078 363.822 343.078 365.323C343.078 367.698 342.703 369.699 342.078 371.449C341.453 373.199 340.452 374.575 339.327 375.45C338.202 376.325 336.576 376.825 334.701 377.2L334.076 372.199C335.576 371.949 336.827 371.324 337.702 370.199C338.577 369.073 339.077 367.573 339.077 365.573C339.077 363.197 338.702 361.572 337.952 360.572C337.202 359.572 336.327 359.071 335.201 359.071C334.576 359.071 333.951 359.321 333.451 359.697C332.951 360.072 332.451 360.697 332.076 361.697C331.951 362.197 331.45 363.697 330.825 366.198C329.825 369.824 329.075 372.324 328.45 373.699C327.825 375.075 326.949 376.2 325.824 377.075C324.699 377.825 323.199 378.325 321.448 378.325C319.698 378.325 318.198 377.825 316.697 376.825C315.197 375.825 314.072 374.449 313.196 372.574C312.321 370.699 311.946 368.573 311.946 366.198C311.946 362.322 312.821 359.321 314.322 357.321C315.947 355.321 318.323 353.945 321.573 353.445L321.198 353.695Z" fill="white"/>
<defs>
<linearGradient id="paint0_linear_96_14226" x1="53.0121" y1="-48.5097" x2="672.752" y2="1099.61" gradientUnits="userSpaceOnUse">
<stop stop-color="#AFB7D2"/>
<stop offset="1" stop-color="#C296CD"/>
</linearGradient>
</defs>
</svg>
