<svg width="387" height="84" viewBox="0 0 387 84" fill="none" xmlns="http://www.w3.org/2000/svg">
<g clip-path="url(#clip0_65_368)">
<path d="M61.5987 32.8808C63.2838 35.887 64.2199 39.0812 64.2199 42.839C64.2199 48.8515 62.1604 53.7366 57.8541 57.4944C53.7351 61.2522 48.1181 63.1311 41.0034 63.1311C33.8887 63.1311 28.459 61.2522 24.1527 57.4944C20.0336 53.7366 17.7869 48.8515 17.7869 42.839C17.7869 36.8265 18.723 35.6991 20.4081 32.8808C22.0932 29.8745 24.7144 27.6198 28.0845 26.1167C29.0831 25.7034 29.0831 25.7034 28.0845 26.1167L11.2338 16.5343L9.73597 15.5948C8.98705 16.3464 8.23813 17.2859 7.48921 18.2253C2.43399 24.9894 0 33.2565 0 42.839C0 52.4214 1.68507 57.6823 5.24244 63.8827C8.79982 70.0831 13.4806 74.7803 19.8464 78.3503C26.025 81.7323 33.1397 83.6112 41.0034 83.6112C48.8671 83.6112 55.9818 81.9202 62.1604 78.3503C68.339 74.9682 73.207 70.0831 76.5771 63.8827C80.1345 57.6823 81.8196 50.7304 81.8196 42.839C81.8196 34.9476 79.3856 25.1773 74.3304 18.2253C73.7687 17.4738 73.0198 16.5343 72.4581 15.7827L54.2967 26.3046C57.4797 27.8077 59.9137 30.0624 61.5987 32.8808Z" fill="white"/>
<path d="M52.05 0.375732L68.5262 9.95815L70.2113 10.8976H69.6496C69.6496 11.0855 52.05 21.4195 52.05 21.4195V0.375732Z" fill="white"/>
<path d="M31.8291 0.375732V21.6074L13.4806 11.0855L31.6419 0.563623L31.8291 0.375732Z" fill="white"/>
</g>
<path d="M386.653 31.624V37.6102H367.119V31.624H386.653ZM372.349 23.2432H380.699V55.8841C380.699 56.8924 380.835 57.6695 381.108 58.2156C381.381 58.7618 381.791 59.1293 382.337 59.3184C382.883 59.5074 383.534 59.6019 384.29 59.6019C384.836 59.6019 385.341 59.5704 385.803 59.5074C386.265 59.4444 386.653 59.3814 386.968 59.3184L387 65.5567C386.307 65.7878 385.519 65.9768 384.637 66.1238C383.776 66.2709 382.799 66.3444 381.707 66.3444C379.837 66.3444 378.199 66.0293 376.792 65.3992C375.384 64.748 374.292 63.7083 373.515 62.28C372.738 60.8307 372.349 58.9193 372.349 56.5458V23.2432Z" fill="white"/>
<path d="M362.582 17.3196V65.7139H354.233V17.3196H362.582Z" fill="white"/>
<path d="M338.007 57.6166V31.6235H346.388V65.7138H338.511L338.007 57.6166ZM339.078 50.5591L341.662 50.4961C341.662 52.7856 341.41 54.8965 340.906 56.8289C340.402 58.7613 339.614 60.4417 338.543 61.87C337.492 63.2773 336.159 64.38 334.541 65.1782C332.924 65.9554 331.013 66.344 328.807 66.344C327.127 66.344 325.593 66.1129 324.207 65.6508C322.821 65.1677 321.624 64.422 320.615 63.4138C319.628 62.3846 318.862 61.0718 318.315 59.4755C317.769 57.8581 317.496 55.9152 317.496 53.6467V31.6235H325.814V53.7098C325.814 54.844 325.94 55.7892 326.192 56.5454C326.465 57.3015 326.833 57.9212 327.295 58.4043C327.778 58.8664 328.335 59.2024 328.965 59.4125C329.616 59.6015 330.309 59.696 331.044 59.696C333.061 59.696 334.646 59.297 335.802 58.4988C336.978 57.6796 337.818 56.5874 338.322 55.2221C338.826 53.8358 339.078 52.2815 339.078 50.5591Z" fill="white"/>
<path d="M301.837 58.4675V42.7457C301.837 41.5904 301.638 40.5927 301.239 39.7525C300.84 38.9123 300.231 38.2612 299.411 37.7991C298.592 37.337 297.553 37.106 296.292 37.106C295.179 37.106 294.202 37.295 293.362 37.6731C292.543 38.0512 291.913 38.5868 291.472 39.2799C291.031 39.9521 290.81 40.7292 290.81 41.6114H282.461C282.461 40.2041 282.797 38.8703 283.469 37.6101C284.141 36.3288 285.097 35.1945 286.336 34.2073C287.596 33.1991 289.098 32.4115 290.842 31.8443C292.606 31.2772 294.58 30.9937 296.765 30.9937C299.348 30.9937 301.648 31.4347 303.665 32.3169C305.702 33.1781 307.299 34.4804 308.454 36.2238C309.63 37.9671 310.218 40.1621 310.218 42.8087V57.6799C310.218 59.3812 310.323 60.841 310.533 62.0593C310.764 63.2565 311.1 64.2963 311.542 65.1785V65.7141H303.066C302.667 64.8529 302.363 63.7607 302.153 62.4374C301.942 61.0931 301.837 59.7698 301.837 58.4675ZM303.003 44.9511L303.066 49.8977H297.805C296.502 49.8977 295.358 50.0342 294.37 50.3073C293.383 50.5593 292.574 50.9374 291.944 51.4415C291.314 51.9246 290.842 52.5128 290.527 53.2059C290.211 53.878 290.054 54.6447 290.054 55.5059C290.054 56.3461 290.243 57.1022 290.621 57.7744C291.02 58.4465 291.587 58.9821 292.322 59.3812C293.079 59.7593 293.961 59.9483 294.969 59.9483C296.439 59.9483 297.721 59.6543 298.813 59.0662C299.905 58.457 300.756 57.7219 301.365 56.8607C301.974 55.9995 302.3 55.1803 302.342 54.4032L304.736 57.9949C304.442 58.8561 304.001 59.7698 303.413 60.736C302.825 61.7022 302.069 62.6054 301.144 63.4456C300.22 64.2858 299.107 64.9789 297.805 65.525C296.502 66.0711 294.99 66.3442 293.268 66.3442C291.062 66.3442 289.088 65.9031 287.344 65.0209C285.601 64.1387 284.225 62.931 283.217 61.3976C282.209 59.8643 281.705 58.1209 281.705 56.1675C281.705 54.3611 282.041 52.7648 282.713 51.3785C283.385 49.9922 284.383 48.8265 285.706 47.8813C287.029 46.9151 288.668 46.1904 290.621 45.7073C292.595 45.2032 294.853 44.9511 297.395 44.9511H303.003Z" fill="white"/>
<path d="M259.367 56.7347L270.803 19.8403H280.413L264.219 65.7141H257.823L259.367 56.7347ZM248.812 19.8403L260.186 56.7347L261.824 65.7141H255.365L239.234 19.8403H248.812Z" fill="white"/>
<path d="M223.197 66.3442C220.613 66.3442 218.292 65.9241 216.234 65.0839C214.175 64.2438 212.422 63.078 210.972 61.5867C209.544 60.0744 208.441 58.3205 207.664 56.3251C206.908 54.3086 206.53 52.1452 206.53 49.8347V48.5744C206.53 45.9488 206.908 43.5648 207.664 41.4224C208.42 39.2589 209.491 37.4 210.878 35.8457C212.264 34.2914 213.923 33.0941 215.856 32.2539C217.788 31.4137 219.92 30.9937 222.252 30.9937C224.667 30.9937 226.799 31.4032 228.648 32.2224C230.496 33.0206 232.04 34.1548 233.279 35.6251C234.518 37.0955 235.453 38.8598 236.083 40.9183C236.713 42.9557 237.028 45.2137 237.028 47.6922V51.1895H210.311V45.4552H228.837V44.8251C228.795 43.5018 228.542 42.2941 228.08 41.2018C227.618 40.0886 226.904 39.2064 225.938 38.5553C224.972 37.8831 223.722 37.5471 222.189 37.5471C220.949 37.5471 219.868 37.8201 218.943 38.3662C218.04 38.8913 217.284 39.6475 216.675 40.6347C216.087 41.6009 215.646 42.7562 215.352 44.1005C215.058 45.4447 214.911 46.9361 214.911 48.5744V49.8347C214.911 51.263 215.1 52.5863 215.478 53.8045C215.877 55.0228 216.454 56.0835 217.211 56.9867C217.988 57.8689 218.912 58.562 219.983 59.0662C221.075 59.5493 222.315 59.7908 223.701 59.7908C225.444 59.7908 227.02 59.4547 228.427 58.7826C229.855 58.0894 231.095 57.0707 232.145 55.7264L236.335 60.0744C235.621 61.1246 234.655 62.1328 233.437 63.099C232.239 64.0652 230.79 64.8529 229.089 65.462C227.387 66.0501 225.423 66.3442 223.197 66.3442Z" fill="white"/>
<path d="M193.581 38.5868V65.7141H185.263V31.6238H193.14L193.581 38.5868ZM203.946 31.4032L203.82 39.1539C203.358 39.0699 202.833 39.0069 202.245 38.9649C201.678 38.9228 201.142 38.9018 200.638 38.9018C199.357 38.9018 198.233 39.0804 197.267 39.4375C196.301 39.7735 195.492 40.2671 194.841 40.9183C194.211 41.5694 193.728 42.3676 193.392 43.3128C193.055 44.237 192.866 45.2872 192.824 46.4635L191.029 46.2429C191.029 44.0795 191.249 42.0735 191.69 40.2251C192.131 38.3767 192.772 36.7594 193.612 35.3731C194.452 33.9868 195.503 32.9156 196.763 32.1594C198.044 31.3822 199.514 30.9937 201.174 30.9937C201.636 30.9937 202.129 31.0357 202.655 31.1197C203.201 31.1827 203.631 31.2772 203.946 31.4032Z" fill="white"/>
<path d="M147.234 49.0155V48.3539C147.234 45.8543 147.591 43.5543 148.306 41.4539C149.02 39.3324 150.059 37.4945 151.425 35.9402C152.79 34.3859 154.46 33.1781 156.434 32.3169C158.409 31.4347 160.656 30.9937 163.177 30.9937C165.739 30.9937 168.008 31.4347 169.982 32.3169C171.978 33.1781 173.658 34.3859 175.023 35.9402C176.389 37.4945 177.428 39.3324 178.142 41.4539C178.857 43.5543 179.214 45.8543 179.214 48.3539V49.0155C179.214 51.494 178.857 53.794 178.142 55.9155C177.428 58.0159 176.389 59.8538 175.023 61.4292C173.658 62.9835 171.988 64.1912 170.014 65.0524C168.039 65.9136 165.781 66.3442 163.24 66.3442C160.719 66.3442 158.461 65.9136 156.466 65.0524C154.47 64.1912 152.79 62.9835 151.425 61.4292C150.059 59.8538 149.02 58.0159 148.306 55.9155C147.591 53.794 147.234 51.494 147.234 49.0155ZM155.552 48.3539V49.0155C155.552 50.5068 155.699 51.9036 155.993 53.2059C156.287 54.5082 156.739 55.6529 157.348 56.6401C157.957 57.6273 158.745 58.4045 159.711 58.9716C160.698 59.5177 161.875 59.7908 163.24 59.7908C164.584 59.7908 165.739 59.5177 166.706 58.9716C167.672 58.4045 168.459 57.6273 169.069 56.6401C169.699 55.6529 170.161 54.5082 170.455 53.2059C170.749 51.9036 170.896 50.5068 170.896 49.0155V48.3539C170.896 46.8835 170.749 45.5078 170.455 44.2265C170.161 42.9242 169.699 41.7795 169.069 40.7922C168.459 39.784 167.661 38.9964 166.674 38.4292C165.708 37.8411 164.542 37.5471 163.177 37.5471C161.832 37.5471 160.677 37.8411 159.711 38.4292C158.745 38.9964 157.957 39.784 157.348 40.7922C156.739 41.7795 156.287 42.9242 155.993 44.2265C155.699 45.5078 155.552 46.8835 155.552 48.3539Z" fill="white"/>
<path d="M133.97 50.6223H142.634C142.403 53.689 141.553 56.409 140.082 58.7826C138.612 61.1351 136.564 62.9834 133.939 64.3277C131.313 65.672 128.131 66.3442 124.392 66.3442C121.514 66.3442 118.92 65.8401 116.61 64.8318C114.32 63.8026 112.356 62.3428 110.718 60.4524C109.101 58.541 107.861 56.2515 107 53.5839C106.139 50.8954 105.708 47.8812 105.708 44.5415V41.0443C105.708 37.7045 106.15 34.6904 107.032 32.0018C107.914 29.3133 109.174 27.0238 110.813 25.1334C112.472 23.222 114.457 21.7516 116.767 20.7224C119.099 19.6932 121.703 19.1786 124.581 19.1786C128.32 19.1786 131.481 19.8717 134.065 21.258C136.648 22.6233 138.654 24.5032 140.082 26.8977C141.511 29.2922 142.372 32.0438 142.666 35.1525H134.002C133.834 33.2201 133.413 31.5817 132.741 30.2375C132.09 28.8932 131.103 27.8744 129.78 27.1813C128.477 26.4671 126.744 26.1101 124.581 26.1101C122.901 26.1101 121.42 26.4251 120.139 27.0553C118.878 27.6854 117.828 28.6306 116.988 29.8909C116.148 31.1301 115.518 32.6845 115.098 34.5539C114.677 36.4023 114.467 38.5447 114.467 40.9812V44.5415C114.467 46.873 114.656 48.963 115.034 50.8113C115.413 52.6597 116.001 54.2246 116.799 55.5059C117.597 56.7871 118.626 57.7638 119.887 58.436C121.147 59.1081 122.649 59.4442 124.392 59.4442C126.513 59.4442 128.236 59.1081 129.559 58.436C130.903 57.7638 131.922 56.7766 132.615 55.4743C133.329 54.1721 133.781 52.5547 133.97 50.6223Z" fill="white"/>
<defs>
<clipPath id="clip0_65_368">
<rect width="81.8196" height="83.6113" fill="white"/>
</clipPath>
</defs>
</svg>
